%
M48
M72
T01C0.02362
T02C0.02400
T03C0.07874
T04C0.11811
%
T01
X96485Y27391
X142745Y43532
X160658Y27981
X165776Y27981
X155540Y24241
X174635Y9477
X187666Y9517
X195894Y25028
X165776Y61446
X166367Y80737
X141367Y99044
X162824Y112233
X190973Y102391
X201209Y102194
X75816Y78375
X74831Y86839
T02
X93599Y86965
X129646Y106276
X121922Y107564
X93599Y129450
X47253Y103702
X136083Y68942
X157969Y71517
X186292Y75379
X201741Y67654
X174706Y50918
X151532Y39331
X127072Y21308
X119347Y22595
X109048Y13583
X215902Y18733
T03
X121367Y48178
X40068Y48375
T04
X19123Y47469
X18926Y55540
X18729Y63020
X19123Y70501
X19713Y78178
X19713Y85265
X19713Y93139
X128769Y80934
X232902Y77981
X232902Y85461
X232706Y93139
X232902Y70107
X232902Y62824
X232902Y55540
X233099Y48257
M30
