G75*
%MOIN*%
%OFA0B0*%
%FSLAX25Y25*%
%IPPOS*%
%LPD*%
%AMOC8*
5,1,8,0,0,1.08239X$1,22.5*
%
%ADD10C,0.00000*%
%ADD11C,0.00400*%
%ADD12C,0.00500*%
D10*
X0002194Y0001997D02*
X0001997Y0139398D01*
X0249635Y0139202D01*
X0249438Y0001800D01*
X0002194Y0001997D01*
X0013217Y0047469D02*
X0013219Y0047622D01*
X0013225Y0047776D01*
X0013235Y0047929D01*
X0013249Y0048081D01*
X0013267Y0048234D01*
X0013289Y0048385D01*
X0013314Y0048536D01*
X0013344Y0048687D01*
X0013378Y0048837D01*
X0013415Y0048985D01*
X0013456Y0049133D01*
X0013501Y0049279D01*
X0013550Y0049425D01*
X0013603Y0049569D01*
X0013659Y0049711D01*
X0013719Y0049852D01*
X0013783Y0049992D01*
X0013850Y0050130D01*
X0013921Y0050266D01*
X0013996Y0050400D01*
X0014073Y0050532D01*
X0014155Y0050662D01*
X0014239Y0050790D01*
X0014327Y0050916D01*
X0014418Y0051039D01*
X0014512Y0051160D01*
X0014610Y0051278D01*
X0014710Y0051394D01*
X0014814Y0051507D01*
X0014920Y0051618D01*
X0015029Y0051726D01*
X0015141Y0051831D01*
X0015255Y0051932D01*
X0015373Y0052031D01*
X0015492Y0052127D01*
X0015614Y0052220D01*
X0015739Y0052309D01*
X0015866Y0052396D01*
X0015995Y0052478D01*
X0016126Y0052558D01*
X0016259Y0052634D01*
X0016394Y0052707D01*
X0016531Y0052776D01*
X0016670Y0052841D01*
X0016810Y0052903D01*
X0016952Y0052961D01*
X0017095Y0053016D01*
X0017240Y0053067D01*
X0017386Y0053114D01*
X0017533Y0053157D01*
X0017681Y0053196D01*
X0017830Y0053232D01*
X0017980Y0053263D01*
X0018131Y0053291D01*
X0018282Y0053315D01*
X0018435Y0053335D01*
X0018587Y0053351D01*
X0018740Y0053363D01*
X0018893Y0053371D01*
X0019046Y0053375D01*
X0019200Y0053375D01*
X0019353Y0053371D01*
X0019506Y0053363D01*
X0019659Y0053351D01*
X0019811Y0053335D01*
X0019964Y0053315D01*
X0020115Y0053291D01*
X0020266Y0053263D01*
X0020416Y0053232D01*
X0020565Y0053196D01*
X0020713Y0053157D01*
X0020860Y0053114D01*
X0021006Y0053067D01*
X0021151Y0053016D01*
X0021294Y0052961D01*
X0021436Y0052903D01*
X0021576Y0052841D01*
X0021715Y0052776D01*
X0021852Y0052707D01*
X0021987Y0052634D01*
X0022120Y0052558D01*
X0022251Y0052478D01*
X0022380Y0052396D01*
X0022507Y0052309D01*
X0022632Y0052220D01*
X0022754Y0052127D01*
X0022873Y0052031D01*
X0022991Y0051932D01*
X0023105Y0051831D01*
X0023217Y0051726D01*
X0023326Y0051618D01*
X0023432Y0051507D01*
X0023536Y0051394D01*
X0023636Y0051278D01*
X0023734Y0051160D01*
X0023828Y0051039D01*
X0023919Y0050916D01*
X0024007Y0050790D01*
X0024091Y0050662D01*
X0024173Y0050532D01*
X0024250Y0050400D01*
X0024325Y0050266D01*
X0024396Y0050130D01*
X0024463Y0049992D01*
X0024527Y0049852D01*
X0024587Y0049711D01*
X0024643Y0049569D01*
X0024696Y0049425D01*
X0024745Y0049279D01*
X0024790Y0049133D01*
X0024831Y0048985D01*
X0024868Y0048837D01*
X0024902Y0048687D01*
X0024932Y0048536D01*
X0024957Y0048385D01*
X0024979Y0048234D01*
X0024997Y0048081D01*
X0025011Y0047929D01*
X0025021Y0047776D01*
X0025027Y0047622D01*
X0025029Y0047469D01*
X0025027Y0047316D01*
X0025021Y0047162D01*
X0025011Y0047009D01*
X0024997Y0046857D01*
X0024979Y0046704D01*
X0024957Y0046553D01*
X0024932Y0046402D01*
X0024902Y0046251D01*
X0024868Y0046101D01*
X0024831Y0045953D01*
X0024790Y0045805D01*
X0024745Y0045659D01*
X0024696Y0045513D01*
X0024643Y0045369D01*
X0024587Y0045227D01*
X0024527Y0045086D01*
X0024463Y0044946D01*
X0024396Y0044808D01*
X0024325Y0044672D01*
X0024250Y0044538D01*
X0024173Y0044406D01*
X0024091Y0044276D01*
X0024007Y0044148D01*
X0023919Y0044022D01*
X0023828Y0043899D01*
X0023734Y0043778D01*
X0023636Y0043660D01*
X0023536Y0043544D01*
X0023432Y0043431D01*
X0023326Y0043320D01*
X0023217Y0043212D01*
X0023105Y0043107D01*
X0022991Y0043006D01*
X0022873Y0042907D01*
X0022754Y0042811D01*
X0022632Y0042718D01*
X0022507Y0042629D01*
X0022380Y0042542D01*
X0022251Y0042460D01*
X0022120Y0042380D01*
X0021987Y0042304D01*
X0021852Y0042231D01*
X0021715Y0042162D01*
X0021576Y0042097D01*
X0021436Y0042035D01*
X0021294Y0041977D01*
X0021151Y0041922D01*
X0021006Y0041871D01*
X0020860Y0041824D01*
X0020713Y0041781D01*
X0020565Y0041742D01*
X0020416Y0041706D01*
X0020266Y0041675D01*
X0020115Y0041647D01*
X0019964Y0041623D01*
X0019811Y0041603D01*
X0019659Y0041587D01*
X0019506Y0041575D01*
X0019353Y0041567D01*
X0019200Y0041563D01*
X0019046Y0041563D01*
X0018893Y0041567D01*
X0018740Y0041575D01*
X0018587Y0041587D01*
X0018435Y0041603D01*
X0018282Y0041623D01*
X0018131Y0041647D01*
X0017980Y0041675D01*
X0017830Y0041706D01*
X0017681Y0041742D01*
X0017533Y0041781D01*
X0017386Y0041824D01*
X0017240Y0041871D01*
X0017095Y0041922D01*
X0016952Y0041977D01*
X0016810Y0042035D01*
X0016670Y0042097D01*
X0016531Y0042162D01*
X0016394Y0042231D01*
X0016259Y0042304D01*
X0016126Y0042380D01*
X0015995Y0042460D01*
X0015866Y0042542D01*
X0015739Y0042629D01*
X0015614Y0042718D01*
X0015492Y0042811D01*
X0015373Y0042907D01*
X0015255Y0043006D01*
X0015141Y0043107D01*
X0015029Y0043212D01*
X0014920Y0043320D01*
X0014814Y0043431D01*
X0014710Y0043544D01*
X0014610Y0043660D01*
X0014512Y0043778D01*
X0014418Y0043899D01*
X0014327Y0044022D01*
X0014239Y0044148D01*
X0014155Y0044276D01*
X0014073Y0044406D01*
X0013996Y0044538D01*
X0013921Y0044672D01*
X0013850Y0044808D01*
X0013783Y0044946D01*
X0013719Y0045086D01*
X0013659Y0045227D01*
X0013603Y0045369D01*
X0013550Y0045513D01*
X0013501Y0045659D01*
X0013456Y0045805D01*
X0013415Y0045953D01*
X0013378Y0046101D01*
X0013344Y0046251D01*
X0013314Y0046402D01*
X0013289Y0046553D01*
X0013267Y0046704D01*
X0013249Y0046857D01*
X0013235Y0047009D01*
X0013225Y0047162D01*
X0013219Y0047316D01*
X0013217Y0047469D01*
X0013020Y0055540D02*
X0013022Y0055693D01*
X0013028Y0055847D01*
X0013038Y0056000D01*
X0013052Y0056152D01*
X0013070Y0056305D01*
X0013092Y0056456D01*
X0013117Y0056607D01*
X0013147Y0056758D01*
X0013181Y0056908D01*
X0013218Y0057056D01*
X0013259Y0057204D01*
X0013304Y0057350D01*
X0013353Y0057496D01*
X0013406Y0057640D01*
X0013462Y0057782D01*
X0013522Y0057923D01*
X0013586Y0058063D01*
X0013653Y0058201D01*
X0013724Y0058337D01*
X0013799Y0058471D01*
X0013876Y0058603D01*
X0013958Y0058733D01*
X0014042Y0058861D01*
X0014130Y0058987D01*
X0014221Y0059110D01*
X0014315Y0059231D01*
X0014413Y0059349D01*
X0014513Y0059465D01*
X0014617Y0059578D01*
X0014723Y0059689D01*
X0014832Y0059797D01*
X0014944Y0059902D01*
X0015058Y0060003D01*
X0015176Y0060102D01*
X0015295Y0060198D01*
X0015417Y0060291D01*
X0015542Y0060380D01*
X0015669Y0060467D01*
X0015798Y0060549D01*
X0015929Y0060629D01*
X0016062Y0060705D01*
X0016197Y0060778D01*
X0016334Y0060847D01*
X0016473Y0060912D01*
X0016613Y0060974D01*
X0016755Y0061032D01*
X0016898Y0061087D01*
X0017043Y0061138D01*
X0017189Y0061185D01*
X0017336Y0061228D01*
X0017484Y0061267D01*
X0017633Y0061303D01*
X0017783Y0061334D01*
X0017934Y0061362D01*
X0018085Y0061386D01*
X0018238Y0061406D01*
X0018390Y0061422D01*
X0018543Y0061434D01*
X0018696Y0061442D01*
X0018849Y0061446D01*
X0019003Y0061446D01*
X0019156Y0061442D01*
X0019309Y0061434D01*
X0019462Y0061422D01*
X0019614Y0061406D01*
X0019767Y0061386D01*
X0019918Y0061362D01*
X0020069Y0061334D01*
X0020219Y0061303D01*
X0020368Y0061267D01*
X0020516Y0061228D01*
X0020663Y0061185D01*
X0020809Y0061138D01*
X0020954Y0061087D01*
X0021097Y0061032D01*
X0021239Y0060974D01*
X0021379Y0060912D01*
X0021518Y0060847D01*
X0021655Y0060778D01*
X0021790Y0060705D01*
X0021923Y0060629D01*
X0022054Y0060549D01*
X0022183Y0060467D01*
X0022310Y0060380D01*
X0022435Y0060291D01*
X0022557Y0060198D01*
X0022676Y0060102D01*
X0022794Y0060003D01*
X0022908Y0059902D01*
X0023020Y0059797D01*
X0023129Y0059689D01*
X0023235Y0059578D01*
X0023339Y0059465D01*
X0023439Y0059349D01*
X0023537Y0059231D01*
X0023631Y0059110D01*
X0023722Y0058987D01*
X0023810Y0058861D01*
X0023894Y0058733D01*
X0023976Y0058603D01*
X0024053Y0058471D01*
X0024128Y0058337D01*
X0024199Y0058201D01*
X0024266Y0058063D01*
X0024330Y0057923D01*
X0024390Y0057782D01*
X0024446Y0057640D01*
X0024499Y0057496D01*
X0024548Y0057350D01*
X0024593Y0057204D01*
X0024634Y0057056D01*
X0024671Y0056908D01*
X0024705Y0056758D01*
X0024735Y0056607D01*
X0024760Y0056456D01*
X0024782Y0056305D01*
X0024800Y0056152D01*
X0024814Y0056000D01*
X0024824Y0055847D01*
X0024830Y0055693D01*
X0024832Y0055540D01*
X0024830Y0055387D01*
X0024824Y0055233D01*
X0024814Y0055080D01*
X0024800Y0054928D01*
X0024782Y0054775D01*
X0024760Y0054624D01*
X0024735Y0054473D01*
X0024705Y0054322D01*
X0024671Y0054172D01*
X0024634Y0054024D01*
X0024593Y0053876D01*
X0024548Y0053730D01*
X0024499Y0053584D01*
X0024446Y0053440D01*
X0024390Y0053298D01*
X0024330Y0053157D01*
X0024266Y0053017D01*
X0024199Y0052879D01*
X0024128Y0052743D01*
X0024053Y0052609D01*
X0023976Y0052477D01*
X0023894Y0052347D01*
X0023810Y0052219D01*
X0023722Y0052093D01*
X0023631Y0051970D01*
X0023537Y0051849D01*
X0023439Y0051731D01*
X0023339Y0051615D01*
X0023235Y0051502D01*
X0023129Y0051391D01*
X0023020Y0051283D01*
X0022908Y0051178D01*
X0022794Y0051077D01*
X0022676Y0050978D01*
X0022557Y0050882D01*
X0022435Y0050789D01*
X0022310Y0050700D01*
X0022183Y0050613D01*
X0022054Y0050531D01*
X0021923Y0050451D01*
X0021790Y0050375D01*
X0021655Y0050302D01*
X0021518Y0050233D01*
X0021379Y0050168D01*
X0021239Y0050106D01*
X0021097Y0050048D01*
X0020954Y0049993D01*
X0020809Y0049942D01*
X0020663Y0049895D01*
X0020516Y0049852D01*
X0020368Y0049813D01*
X0020219Y0049777D01*
X0020069Y0049746D01*
X0019918Y0049718D01*
X0019767Y0049694D01*
X0019614Y0049674D01*
X0019462Y0049658D01*
X0019309Y0049646D01*
X0019156Y0049638D01*
X0019003Y0049634D01*
X0018849Y0049634D01*
X0018696Y0049638D01*
X0018543Y0049646D01*
X0018390Y0049658D01*
X0018238Y0049674D01*
X0018085Y0049694D01*
X0017934Y0049718D01*
X0017783Y0049746D01*
X0017633Y0049777D01*
X0017484Y0049813D01*
X0017336Y0049852D01*
X0017189Y0049895D01*
X0017043Y0049942D01*
X0016898Y0049993D01*
X0016755Y0050048D01*
X0016613Y0050106D01*
X0016473Y0050168D01*
X0016334Y0050233D01*
X0016197Y0050302D01*
X0016062Y0050375D01*
X0015929Y0050451D01*
X0015798Y0050531D01*
X0015669Y0050613D01*
X0015542Y0050700D01*
X0015417Y0050789D01*
X0015295Y0050882D01*
X0015176Y0050978D01*
X0015058Y0051077D01*
X0014944Y0051178D01*
X0014832Y0051283D01*
X0014723Y0051391D01*
X0014617Y0051502D01*
X0014513Y0051615D01*
X0014413Y0051731D01*
X0014315Y0051849D01*
X0014221Y0051970D01*
X0014130Y0052093D01*
X0014042Y0052219D01*
X0013958Y0052347D01*
X0013876Y0052477D01*
X0013799Y0052609D01*
X0013724Y0052743D01*
X0013653Y0052879D01*
X0013586Y0053017D01*
X0013522Y0053157D01*
X0013462Y0053298D01*
X0013406Y0053440D01*
X0013353Y0053584D01*
X0013304Y0053730D01*
X0013259Y0053876D01*
X0013218Y0054024D01*
X0013181Y0054172D01*
X0013147Y0054322D01*
X0013117Y0054473D01*
X0013092Y0054624D01*
X0013070Y0054775D01*
X0013052Y0054928D01*
X0013038Y0055080D01*
X0013028Y0055233D01*
X0013022Y0055387D01*
X0013020Y0055540D01*
X0012823Y0063020D02*
X0012825Y0063173D01*
X0012831Y0063327D01*
X0012841Y0063480D01*
X0012855Y0063632D01*
X0012873Y0063785D01*
X0012895Y0063936D01*
X0012920Y0064087D01*
X0012950Y0064238D01*
X0012984Y0064388D01*
X0013021Y0064536D01*
X0013062Y0064684D01*
X0013107Y0064830D01*
X0013156Y0064976D01*
X0013209Y0065120D01*
X0013265Y0065262D01*
X0013325Y0065403D01*
X0013389Y0065543D01*
X0013456Y0065681D01*
X0013527Y0065817D01*
X0013602Y0065951D01*
X0013679Y0066083D01*
X0013761Y0066213D01*
X0013845Y0066341D01*
X0013933Y0066467D01*
X0014024Y0066590D01*
X0014118Y0066711D01*
X0014216Y0066829D01*
X0014316Y0066945D01*
X0014420Y0067058D01*
X0014526Y0067169D01*
X0014635Y0067277D01*
X0014747Y0067382D01*
X0014861Y0067483D01*
X0014979Y0067582D01*
X0015098Y0067678D01*
X0015220Y0067771D01*
X0015345Y0067860D01*
X0015472Y0067947D01*
X0015601Y0068029D01*
X0015732Y0068109D01*
X0015865Y0068185D01*
X0016000Y0068258D01*
X0016137Y0068327D01*
X0016276Y0068392D01*
X0016416Y0068454D01*
X0016558Y0068512D01*
X0016701Y0068567D01*
X0016846Y0068618D01*
X0016992Y0068665D01*
X0017139Y0068708D01*
X0017287Y0068747D01*
X0017436Y0068783D01*
X0017586Y0068814D01*
X0017737Y0068842D01*
X0017888Y0068866D01*
X0018041Y0068886D01*
X0018193Y0068902D01*
X0018346Y0068914D01*
X0018499Y0068922D01*
X0018652Y0068926D01*
X0018806Y0068926D01*
X0018959Y0068922D01*
X0019112Y0068914D01*
X0019265Y0068902D01*
X0019417Y0068886D01*
X0019570Y0068866D01*
X0019721Y0068842D01*
X0019872Y0068814D01*
X0020022Y0068783D01*
X0020171Y0068747D01*
X0020319Y0068708D01*
X0020466Y0068665D01*
X0020612Y0068618D01*
X0020757Y0068567D01*
X0020900Y0068512D01*
X0021042Y0068454D01*
X0021182Y0068392D01*
X0021321Y0068327D01*
X0021458Y0068258D01*
X0021593Y0068185D01*
X0021726Y0068109D01*
X0021857Y0068029D01*
X0021986Y0067947D01*
X0022113Y0067860D01*
X0022238Y0067771D01*
X0022360Y0067678D01*
X0022479Y0067582D01*
X0022597Y0067483D01*
X0022711Y0067382D01*
X0022823Y0067277D01*
X0022932Y0067169D01*
X0023038Y0067058D01*
X0023142Y0066945D01*
X0023242Y0066829D01*
X0023340Y0066711D01*
X0023434Y0066590D01*
X0023525Y0066467D01*
X0023613Y0066341D01*
X0023697Y0066213D01*
X0023779Y0066083D01*
X0023856Y0065951D01*
X0023931Y0065817D01*
X0024002Y0065681D01*
X0024069Y0065543D01*
X0024133Y0065403D01*
X0024193Y0065262D01*
X0024249Y0065120D01*
X0024302Y0064976D01*
X0024351Y0064830D01*
X0024396Y0064684D01*
X0024437Y0064536D01*
X0024474Y0064388D01*
X0024508Y0064238D01*
X0024538Y0064087D01*
X0024563Y0063936D01*
X0024585Y0063785D01*
X0024603Y0063632D01*
X0024617Y0063480D01*
X0024627Y0063327D01*
X0024633Y0063173D01*
X0024635Y0063020D01*
X0024633Y0062867D01*
X0024627Y0062713D01*
X0024617Y0062560D01*
X0024603Y0062408D01*
X0024585Y0062255D01*
X0024563Y0062104D01*
X0024538Y0061953D01*
X0024508Y0061802D01*
X0024474Y0061652D01*
X0024437Y0061504D01*
X0024396Y0061356D01*
X0024351Y0061210D01*
X0024302Y0061064D01*
X0024249Y0060920D01*
X0024193Y0060778D01*
X0024133Y0060637D01*
X0024069Y0060497D01*
X0024002Y0060359D01*
X0023931Y0060223D01*
X0023856Y0060089D01*
X0023779Y0059957D01*
X0023697Y0059827D01*
X0023613Y0059699D01*
X0023525Y0059573D01*
X0023434Y0059450D01*
X0023340Y0059329D01*
X0023242Y0059211D01*
X0023142Y0059095D01*
X0023038Y0058982D01*
X0022932Y0058871D01*
X0022823Y0058763D01*
X0022711Y0058658D01*
X0022597Y0058557D01*
X0022479Y0058458D01*
X0022360Y0058362D01*
X0022238Y0058269D01*
X0022113Y0058180D01*
X0021986Y0058093D01*
X0021857Y0058011D01*
X0021726Y0057931D01*
X0021593Y0057855D01*
X0021458Y0057782D01*
X0021321Y0057713D01*
X0021182Y0057648D01*
X0021042Y0057586D01*
X0020900Y0057528D01*
X0020757Y0057473D01*
X0020612Y0057422D01*
X0020466Y0057375D01*
X0020319Y0057332D01*
X0020171Y0057293D01*
X0020022Y0057257D01*
X0019872Y0057226D01*
X0019721Y0057198D01*
X0019570Y0057174D01*
X0019417Y0057154D01*
X0019265Y0057138D01*
X0019112Y0057126D01*
X0018959Y0057118D01*
X0018806Y0057114D01*
X0018652Y0057114D01*
X0018499Y0057118D01*
X0018346Y0057126D01*
X0018193Y0057138D01*
X0018041Y0057154D01*
X0017888Y0057174D01*
X0017737Y0057198D01*
X0017586Y0057226D01*
X0017436Y0057257D01*
X0017287Y0057293D01*
X0017139Y0057332D01*
X0016992Y0057375D01*
X0016846Y0057422D01*
X0016701Y0057473D01*
X0016558Y0057528D01*
X0016416Y0057586D01*
X0016276Y0057648D01*
X0016137Y0057713D01*
X0016000Y0057782D01*
X0015865Y0057855D01*
X0015732Y0057931D01*
X0015601Y0058011D01*
X0015472Y0058093D01*
X0015345Y0058180D01*
X0015220Y0058269D01*
X0015098Y0058362D01*
X0014979Y0058458D01*
X0014861Y0058557D01*
X0014747Y0058658D01*
X0014635Y0058763D01*
X0014526Y0058871D01*
X0014420Y0058982D01*
X0014316Y0059095D01*
X0014216Y0059211D01*
X0014118Y0059329D01*
X0014024Y0059450D01*
X0013933Y0059573D01*
X0013845Y0059699D01*
X0013761Y0059827D01*
X0013679Y0059957D01*
X0013602Y0060089D01*
X0013527Y0060223D01*
X0013456Y0060359D01*
X0013389Y0060497D01*
X0013325Y0060637D01*
X0013265Y0060778D01*
X0013209Y0060920D01*
X0013156Y0061064D01*
X0013107Y0061210D01*
X0013062Y0061356D01*
X0013021Y0061504D01*
X0012984Y0061652D01*
X0012950Y0061802D01*
X0012920Y0061953D01*
X0012895Y0062104D01*
X0012873Y0062255D01*
X0012855Y0062408D01*
X0012841Y0062560D01*
X0012831Y0062713D01*
X0012825Y0062867D01*
X0012823Y0063020D01*
X0013217Y0070501D02*
X0013219Y0070654D01*
X0013225Y0070808D01*
X0013235Y0070961D01*
X0013249Y0071113D01*
X0013267Y0071266D01*
X0013289Y0071417D01*
X0013314Y0071568D01*
X0013344Y0071719D01*
X0013378Y0071869D01*
X0013415Y0072017D01*
X0013456Y0072165D01*
X0013501Y0072311D01*
X0013550Y0072457D01*
X0013603Y0072601D01*
X0013659Y0072743D01*
X0013719Y0072884D01*
X0013783Y0073024D01*
X0013850Y0073162D01*
X0013921Y0073298D01*
X0013996Y0073432D01*
X0014073Y0073564D01*
X0014155Y0073694D01*
X0014239Y0073822D01*
X0014327Y0073948D01*
X0014418Y0074071D01*
X0014512Y0074192D01*
X0014610Y0074310D01*
X0014710Y0074426D01*
X0014814Y0074539D01*
X0014920Y0074650D01*
X0015029Y0074758D01*
X0015141Y0074863D01*
X0015255Y0074964D01*
X0015373Y0075063D01*
X0015492Y0075159D01*
X0015614Y0075252D01*
X0015739Y0075341D01*
X0015866Y0075428D01*
X0015995Y0075510D01*
X0016126Y0075590D01*
X0016259Y0075666D01*
X0016394Y0075739D01*
X0016531Y0075808D01*
X0016670Y0075873D01*
X0016810Y0075935D01*
X0016952Y0075993D01*
X0017095Y0076048D01*
X0017240Y0076099D01*
X0017386Y0076146D01*
X0017533Y0076189D01*
X0017681Y0076228D01*
X0017830Y0076264D01*
X0017980Y0076295D01*
X0018131Y0076323D01*
X0018282Y0076347D01*
X0018435Y0076367D01*
X0018587Y0076383D01*
X0018740Y0076395D01*
X0018893Y0076403D01*
X0019046Y0076407D01*
X0019200Y0076407D01*
X0019353Y0076403D01*
X0019506Y0076395D01*
X0019659Y0076383D01*
X0019811Y0076367D01*
X0019964Y0076347D01*
X0020115Y0076323D01*
X0020266Y0076295D01*
X0020416Y0076264D01*
X0020565Y0076228D01*
X0020713Y0076189D01*
X0020860Y0076146D01*
X0021006Y0076099D01*
X0021151Y0076048D01*
X0021294Y0075993D01*
X0021436Y0075935D01*
X0021576Y0075873D01*
X0021715Y0075808D01*
X0021852Y0075739D01*
X0021987Y0075666D01*
X0022120Y0075590D01*
X0022251Y0075510D01*
X0022380Y0075428D01*
X0022507Y0075341D01*
X0022632Y0075252D01*
X0022754Y0075159D01*
X0022873Y0075063D01*
X0022991Y0074964D01*
X0023105Y0074863D01*
X0023217Y0074758D01*
X0023326Y0074650D01*
X0023432Y0074539D01*
X0023536Y0074426D01*
X0023636Y0074310D01*
X0023734Y0074192D01*
X0023828Y0074071D01*
X0023919Y0073948D01*
X0024007Y0073822D01*
X0024091Y0073694D01*
X0024173Y0073564D01*
X0024250Y0073432D01*
X0024325Y0073298D01*
X0024396Y0073162D01*
X0024463Y0073024D01*
X0024527Y0072884D01*
X0024587Y0072743D01*
X0024643Y0072601D01*
X0024696Y0072457D01*
X0024745Y0072311D01*
X0024790Y0072165D01*
X0024831Y0072017D01*
X0024868Y0071869D01*
X0024902Y0071719D01*
X0024932Y0071568D01*
X0024957Y0071417D01*
X0024979Y0071266D01*
X0024997Y0071113D01*
X0025011Y0070961D01*
X0025021Y0070808D01*
X0025027Y0070654D01*
X0025029Y0070501D01*
X0025027Y0070348D01*
X0025021Y0070194D01*
X0025011Y0070041D01*
X0024997Y0069889D01*
X0024979Y0069736D01*
X0024957Y0069585D01*
X0024932Y0069434D01*
X0024902Y0069283D01*
X0024868Y0069133D01*
X0024831Y0068985D01*
X0024790Y0068837D01*
X0024745Y0068691D01*
X0024696Y0068545D01*
X0024643Y0068401D01*
X0024587Y0068259D01*
X0024527Y0068118D01*
X0024463Y0067978D01*
X0024396Y0067840D01*
X0024325Y0067704D01*
X0024250Y0067570D01*
X0024173Y0067438D01*
X0024091Y0067308D01*
X0024007Y0067180D01*
X0023919Y0067054D01*
X0023828Y0066931D01*
X0023734Y0066810D01*
X0023636Y0066692D01*
X0023536Y0066576D01*
X0023432Y0066463D01*
X0023326Y0066352D01*
X0023217Y0066244D01*
X0023105Y0066139D01*
X0022991Y0066038D01*
X0022873Y0065939D01*
X0022754Y0065843D01*
X0022632Y0065750D01*
X0022507Y0065661D01*
X0022380Y0065574D01*
X0022251Y0065492D01*
X0022120Y0065412D01*
X0021987Y0065336D01*
X0021852Y0065263D01*
X0021715Y0065194D01*
X0021576Y0065129D01*
X0021436Y0065067D01*
X0021294Y0065009D01*
X0021151Y0064954D01*
X0021006Y0064903D01*
X0020860Y0064856D01*
X0020713Y0064813D01*
X0020565Y0064774D01*
X0020416Y0064738D01*
X0020266Y0064707D01*
X0020115Y0064679D01*
X0019964Y0064655D01*
X0019811Y0064635D01*
X0019659Y0064619D01*
X0019506Y0064607D01*
X0019353Y0064599D01*
X0019200Y0064595D01*
X0019046Y0064595D01*
X0018893Y0064599D01*
X0018740Y0064607D01*
X0018587Y0064619D01*
X0018435Y0064635D01*
X0018282Y0064655D01*
X0018131Y0064679D01*
X0017980Y0064707D01*
X0017830Y0064738D01*
X0017681Y0064774D01*
X0017533Y0064813D01*
X0017386Y0064856D01*
X0017240Y0064903D01*
X0017095Y0064954D01*
X0016952Y0065009D01*
X0016810Y0065067D01*
X0016670Y0065129D01*
X0016531Y0065194D01*
X0016394Y0065263D01*
X0016259Y0065336D01*
X0016126Y0065412D01*
X0015995Y0065492D01*
X0015866Y0065574D01*
X0015739Y0065661D01*
X0015614Y0065750D01*
X0015492Y0065843D01*
X0015373Y0065939D01*
X0015255Y0066038D01*
X0015141Y0066139D01*
X0015029Y0066244D01*
X0014920Y0066352D01*
X0014814Y0066463D01*
X0014710Y0066576D01*
X0014610Y0066692D01*
X0014512Y0066810D01*
X0014418Y0066931D01*
X0014327Y0067054D01*
X0014239Y0067180D01*
X0014155Y0067308D01*
X0014073Y0067438D01*
X0013996Y0067570D01*
X0013921Y0067704D01*
X0013850Y0067840D01*
X0013783Y0067978D01*
X0013719Y0068118D01*
X0013659Y0068259D01*
X0013603Y0068401D01*
X0013550Y0068545D01*
X0013501Y0068691D01*
X0013456Y0068837D01*
X0013415Y0068985D01*
X0013378Y0069133D01*
X0013344Y0069283D01*
X0013314Y0069434D01*
X0013289Y0069585D01*
X0013267Y0069736D01*
X0013249Y0069889D01*
X0013235Y0070041D01*
X0013225Y0070194D01*
X0013219Y0070348D01*
X0013217Y0070501D01*
X0013807Y0078178D02*
X0013809Y0078331D01*
X0013815Y0078485D01*
X0013825Y0078638D01*
X0013839Y0078790D01*
X0013857Y0078943D01*
X0013879Y0079094D01*
X0013904Y0079245D01*
X0013934Y0079396D01*
X0013968Y0079546D01*
X0014005Y0079694D01*
X0014046Y0079842D01*
X0014091Y0079988D01*
X0014140Y0080134D01*
X0014193Y0080278D01*
X0014249Y0080420D01*
X0014309Y0080561D01*
X0014373Y0080701D01*
X0014440Y0080839D01*
X0014511Y0080975D01*
X0014586Y0081109D01*
X0014663Y0081241D01*
X0014745Y0081371D01*
X0014829Y0081499D01*
X0014917Y0081625D01*
X0015008Y0081748D01*
X0015102Y0081869D01*
X0015200Y0081987D01*
X0015300Y0082103D01*
X0015404Y0082216D01*
X0015510Y0082327D01*
X0015619Y0082435D01*
X0015731Y0082540D01*
X0015845Y0082641D01*
X0015963Y0082740D01*
X0016082Y0082836D01*
X0016204Y0082929D01*
X0016329Y0083018D01*
X0016456Y0083105D01*
X0016585Y0083187D01*
X0016716Y0083267D01*
X0016849Y0083343D01*
X0016984Y0083416D01*
X0017121Y0083485D01*
X0017260Y0083550D01*
X0017400Y0083612D01*
X0017542Y0083670D01*
X0017685Y0083725D01*
X0017830Y0083776D01*
X0017976Y0083823D01*
X0018123Y0083866D01*
X0018271Y0083905D01*
X0018420Y0083941D01*
X0018570Y0083972D01*
X0018721Y0084000D01*
X0018872Y0084024D01*
X0019025Y0084044D01*
X0019177Y0084060D01*
X0019330Y0084072D01*
X0019483Y0084080D01*
X0019636Y0084084D01*
X0019790Y0084084D01*
X0019943Y0084080D01*
X0020096Y0084072D01*
X0020249Y0084060D01*
X0020401Y0084044D01*
X0020554Y0084024D01*
X0020705Y0084000D01*
X0020856Y0083972D01*
X0021006Y0083941D01*
X0021155Y0083905D01*
X0021303Y0083866D01*
X0021450Y0083823D01*
X0021596Y0083776D01*
X0021741Y0083725D01*
X0021884Y0083670D01*
X0022026Y0083612D01*
X0022166Y0083550D01*
X0022305Y0083485D01*
X0022442Y0083416D01*
X0022577Y0083343D01*
X0022710Y0083267D01*
X0022841Y0083187D01*
X0022970Y0083105D01*
X0023097Y0083018D01*
X0023222Y0082929D01*
X0023344Y0082836D01*
X0023463Y0082740D01*
X0023581Y0082641D01*
X0023695Y0082540D01*
X0023807Y0082435D01*
X0023916Y0082327D01*
X0024022Y0082216D01*
X0024126Y0082103D01*
X0024226Y0081987D01*
X0024324Y0081869D01*
X0024418Y0081748D01*
X0024509Y0081625D01*
X0024597Y0081499D01*
X0024681Y0081371D01*
X0024763Y0081241D01*
X0024840Y0081109D01*
X0024915Y0080975D01*
X0024986Y0080839D01*
X0025053Y0080701D01*
X0025117Y0080561D01*
X0025177Y0080420D01*
X0025233Y0080278D01*
X0025286Y0080134D01*
X0025335Y0079988D01*
X0025380Y0079842D01*
X0025421Y0079694D01*
X0025458Y0079546D01*
X0025492Y0079396D01*
X0025522Y0079245D01*
X0025547Y0079094D01*
X0025569Y0078943D01*
X0025587Y0078790D01*
X0025601Y0078638D01*
X0025611Y0078485D01*
X0025617Y0078331D01*
X0025619Y0078178D01*
X0025617Y0078025D01*
X0025611Y0077871D01*
X0025601Y0077718D01*
X0025587Y0077566D01*
X0025569Y0077413D01*
X0025547Y0077262D01*
X0025522Y0077111D01*
X0025492Y0076960D01*
X0025458Y0076810D01*
X0025421Y0076662D01*
X0025380Y0076514D01*
X0025335Y0076368D01*
X0025286Y0076222D01*
X0025233Y0076078D01*
X0025177Y0075936D01*
X0025117Y0075795D01*
X0025053Y0075655D01*
X0024986Y0075517D01*
X0024915Y0075381D01*
X0024840Y0075247D01*
X0024763Y0075115D01*
X0024681Y0074985D01*
X0024597Y0074857D01*
X0024509Y0074731D01*
X0024418Y0074608D01*
X0024324Y0074487D01*
X0024226Y0074369D01*
X0024126Y0074253D01*
X0024022Y0074140D01*
X0023916Y0074029D01*
X0023807Y0073921D01*
X0023695Y0073816D01*
X0023581Y0073715D01*
X0023463Y0073616D01*
X0023344Y0073520D01*
X0023222Y0073427D01*
X0023097Y0073338D01*
X0022970Y0073251D01*
X0022841Y0073169D01*
X0022710Y0073089D01*
X0022577Y0073013D01*
X0022442Y0072940D01*
X0022305Y0072871D01*
X0022166Y0072806D01*
X0022026Y0072744D01*
X0021884Y0072686D01*
X0021741Y0072631D01*
X0021596Y0072580D01*
X0021450Y0072533D01*
X0021303Y0072490D01*
X0021155Y0072451D01*
X0021006Y0072415D01*
X0020856Y0072384D01*
X0020705Y0072356D01*
X0020554Y0072332D01*
X0020401Y0072312D01*
X0020249Y0072296D01*
X0020096Y0072284D01*
X0019943Y0072276D01*
X0019790Y0072272D01*
X0019636Y0072272D01*
X0019483Y0072276D01*
X0019330Y0072284D01*
X0019177Y0072296D01*
X0019025Y0072312D01*
X0018872Y0072332D01*
X0018721Y0072356D01*
X0018570Y0072384D01*
X0018420Y0072415D01*
X0018271Y0072451D01*
X0018123Y0072490D01*
X0017976Y0072533D01*
X0017830Y0072580D01*
X0017685Y0072631D01*
X0017542Y0072686D01*
X0017400Y0072744D01*
X0017260Y0072806D01*
X0017121Y0072871D01*
X0016984Y0072940D01*
X0016849Y0073013D01*
X0016716Y0073089D01*
X0016585Y0073169D01*
X0016456Y0073251D01*
X0016329Y0073338D01*
X0016204Y0073427D01*
X0016082Y0073520D01*
X0015963Y0073616D01*
X0015845Y0073715D01*
X0015731Y0073816D01*
X0015619Y0073921D01*
X0015510Y0074029D01*
X0015404Y0074140D01*
X0015300Y0074253D01*
X0015200Y0074369D01*
X0015102Y0074487D01*
X0015008Y0074608D01*
X0014917Y0074731D01*
X0014829Y0074857D01*
X0014745Y0074985D01*
X0014663Y0075115D01*
X0014586Y0075247D01*
X0014511Y0075381D01*
X0014440Y0075517D01*
X0014373Y0075655D01*
X0014309Y0075795D01*
X0014249Y0075936D01*
X0014193Y0076078D01*
X0014140Y0076222D01*
X0014091Y0076368D01*
X0014046Y0076514D01*
X0014005Y0076662D01*
X0013968Y0076810D01*
X0013934Y0076960D01*
X0013904Y0077111D01*
X0013879Y0077262D01*
X0013857Y0077413D01*
X0013839Y0077566D01*
X0013825Y0077718D01*
X0013815Y0077871D01*
X0013809Y0078025D01*
X0013807Y0078178D01*
X0013807Y0085265D02*
X0013809Y0085418D01*
X0013815Y0085572D01*
X0013825Y0085725D01*
X0013839Y0085877D01*
X0013857Y0086030D01*
X0013879Y0086181D01*
X0013904Y0086332D01*
X0013934Y0086483D01*
X0013968Y0086633D01*
X0014005Y0086781D01*
X0014046Y0086929D01*
X0014091Y0087075D01*
X0014140Y0087221D01*
X0014193Y0087365D01*
X0014249Y0087507D01*
X0014309Y0087648D01*
X0014373Y0087788D01*
X0014440Y0087926D01*
X0014511Y0088062D01*
X0014586Y0088196D01*
X0014663Y0088328D01*
X0014745Y0088458D01*
X0014829Y0088586D01*
X0014917Y0088712D01*
X0015008Y0088835D01*
X0015102Y0088956D01*
X0015200Y0089074D01*
X0015300Y0089190D01*
X0015404Y0089303D01*
X0015510Y0089414D01*
X0015619Y0089522D01*
X0015731Y0089627D01*
X0015845Y0089728D01*
X0015963Y0089827D01*
X0016082Y0089923D01*
X0016204Y0090016D01*
X0016329Y0090105D01*
X0016456Y0090192D01*
X0016585Y0090274D01*
X0016716Y0090354D01*
X0016849Y0090430D01*
X0016984Y0090503D01*
X0017121Y0090572D01*
X0017260Y0090637D01*
X0017400Y0090699D01*
X0017542Y0090757D01*
X0017685Y0090812D01*
X0017830Y0090863D01*
X0017976Y0090910D01*
X0018123Y0090953D01*
X0018271Y0090992D01*
X0018420Y0091028D01*
X0018570Y0091059D01*
X0018721Y0091087D01*
X0018872Y0091111D01*
X0019025Y0091131D01*
X0019177Y0091147D01*
X0019330Y0091159D01*
X0019483Y0091167D01*
X0019636Y0091171D01*
X0019790Y0091171D01*
X0019943Y0091167D01*
X0020096Y0091159D01*
X0020249Y0091147D01*
X0020401Y0091131D01*
X0020554Y0091111D01*
X0020705Y0091087D01*
X0020856Y0091059D01*
X0021006Y0091028D01*
X0021155Y0090992D01*
X0021303Y0090953D01*
X0021450Y0090910D01*
X0021596Y0090863D01*
X0021741Y0090812D01*
X0021884Y0090757D01*
X0022026Y0090699D01*
X0022166Y0090637D01*
X0022305Y0090572D01*
X0022442Y0090503D01*
X0022577Y0090430D01*
X0022710Y0090354D01*
X0022841Y0090274D01*
X0022970Y0090192D01*
X0023097Y0090105D01*
X0023222Y0090016D01*
X0023344Y0089923D01*
X0023463Y0089827D01*
X0023581Y0089728D01*
X0023695Y0089627D01*
X0023807Y0089522D01*
X0023916Y0089414D01*
X0024022Y0089303D01*
X0024126Y0089190D01*
X0024226Y0089074D01*
X0024324Y0088956D01*
X0024418Y0088835D01*
X0024509Y0088712D01*
X0024597Y0088586D01*
X0024681Y0088458D01*
X0024763Y0088328D01*
X0024840Y0088196D01*
X0024915Y0088062D01*
X0024986Y0087926D01*
X0025053Y0087788D01*
X0025117Y0087648D01*
X0025177Y0087507D01*
X0025233Y0087365D01*
X0025286Y0087221D01*
X0025335Y0087075D01*
X0025380Y0086929D01*
X0025421Y0086781D01*
X0025458Y0086633D01*
X0025492Y0086483D01*
X0025522Y0086332D01*
X0025547Y0086181D01*
X0025569Y0086030D01*
X0025587Y0085877D01*
X0025601Y0085725D01*
X0025611Y0085572D01*
X0025617Y0085418D01*
X0025619Y0085265D01*
X0025617Y0085112D01*
X0025611Y0084958D01*
X0025601Y0084805D01*
X0025587Y0084653D01*
X0025569Y0084500D01*
X0025547Y0084349D01*
X0025522Y0084198D01*
X0025492Y0084047D01*
X0025458Y0083897D01*
X0025421Y0083749D01*
X0025380Y0083601D01*
X0025335Y0083455D01*
X0025286Y0083309D01*
X0025233Y0083165D01*
X0025177Y0083023D01*
X0025117Y0082882D01*
X0025053Y0082742D01*
X0024986Y0082604D01*
X0024915Y0082468D01*
X0024840Y0082334D01*
X0024763Y0082202D01*
X0024681Y0082072D01*
X0024597Y0081944D01*
X0024509Y0081818D01*
X0024418Y0081695D01*
X0024324Y0081574D01*
X0024226Y0081456D01*
X0024126Y0081340D01*
X0024022Y0081227D01*
X0023916Y0081116D01*
X0023807Y0081008D01*
X0023695Y0080903D01*
X0023581Y0080802D01*
X0023463Y0080703D01*
X0023344Y0080607D01*
X0023222Y0080514D01*
X0023097Y0080425D01*
X0022970Y0080338D01*
X0022841Y0080256D01*
X0022710Y0080176D01*
X0022577Y0080100D01*
X0022442Y0080027D01*
X0022305Y0079958D01*
X0022166Y0079893D01*
X0022026Y0079831D01*
X0021884Y0079773D01*
X0021741Y0079718D01*
X0021596Y0079667D01*
X0021450Y0079620D01*
X0021303Y0079577D01*
X0021155Y0079538D01*
X0021006Y0079502D01*
X0020856Y0079471D01*
X0020705Y0079443D01*
X0020554Y0079419D01*
X0020401Y0079399D01*
X0020249Y0079383D01*
X0020096Y0079371D01*
X0019943Y0079363D01*
X0019790Y0079359D01*
X0019636Y0079359D01*
X0019483Y0079363D01*
X0019330Y0079371D01*
X0019177Y0079383D01*
X0019025Y0079399D01*
X0018872Y0079419D01*
X0018721Y0079443D01*
X0018570Y0079471D01*
X0018420Y0079502D01*
X0018271Y0079538D01*
X0018123Y0079577D01*
X0017976Y0079620D01*
X0017830Y0079667D01*
X0017685Y0079718D01*
X0017542Y0079773D01*
X0017400Y0079831D01*
X0017260Y0079893D01*
X0017121Y0079958D01*
X0016984Y0080027D01*
X0016849Y0080100D01*
X0016716Y0080176D01*
X0016585Y0080256D01*
X0016456Y0080338D01*
X0016329Y0080425D01*
X0016204Y0080514D01*
X0016082Y0080607D01*
X0015963Y0080703D01*
X0015845Y0080802D01*
X0015731Y0080903D01*
X0015619Y0081008D01*
X0015510Y0081116D01*
X0015404Y0081227D01*
X0015300Y0081340D01*
X0015200Y0081456D01*
X0015102Y0081574D01*
X0015008Y0081695D01*
X0014917Y0081818D01*
X0014829Y0081944D01*
X0014745Y0082072D01*
X0014663Y0082202D01*
X0014586Y0082334D01*
X0014511Y0082468D01*
X0014440Y0082604D01*
X0014373Y0082742D01*
X0014309Y0082882D01*
X0014249Y0083023D01*
X0014193Y0083165D01*
X0014140Y0083309D01*
X0014091Y0083455D01*
X0014046Y0083601D01*
X0014005Y0083749D01*
X0013968Y0083897D01*
X0013934Y0084047D01*
X0013904Y0084198D01*
X0013879Y0084349D01*
X0013857Y0084500D01*
X0013839Y0084653D01*
X0013825Y0084805D01*
X0013815Y0084958D01*
X0013809Y0085112D01*
X0013807Y0085265D01*
X0013807Y0093139D02*
X0013809Y0093292D01*
X0013815Y0093446D01*
X0013825Y0093599D01*
X0013839Y0093751D01*
X0013857Y0093904D01*
X0013879Y0094055D01*
X0013904Y0094206D01*
X0013934Y0094357D01*
X0013968Y0094507D01*
X0014005Y0094655D01*
X0014046Y0094803D01*
X0014091Y0094949D01*
X0014140Y0095095D01*
X0014193Y0095239D01*
X0014249Y0095381D01*
X0014309Y0095522D01*
X0014373Y0095662D01*
X0014440Y0095800D01*
X0014511Y0095936D01*
X0014586Y0096070D01*
X0014663Y0096202D01*
X0014745Y0096332D01*
X0014829Y0096460D01*
X0014917Y0096586D01*
X0015008Y0096709D01*
X0015102Y0096830D01*
X0015200Y0096948D01*
X0015300Y0097064D01*
X0015404Y0097177D01*
X0015510Y0097288D01*
X0015619Y0097396D01*
X0015731Y0097501D01*
X0015845Y0097602D01*
X0015963Y0097701D01*
X0016082Y0097797D01*
X0016204Y0097890D01*
X0016329Y0097979D01*
X0016456Y0098066D01*
X0016585Y0098148D01*
X0016716Y0098228D01*
X0016849Y0098304D01*
X0016984Y0098377D01*
X0017121Y0098446D01*
X0017260Y0098511D01*
X0017400Y0098573D01*
X0017542Y0098631D01*
X0017685Y0098686D01*
X0017830Y0098737D01*
X0017976Y0098784D01*
X0018123Y0098827D01*
X0018271Y0098866D01*
X0018420Y0098902D01*
X0018570Y0098933D01*
X0018721Y0098961D01*
X0018872Y0098985D01*
X0019025Y0099005D01*
X0019177Y0099021D01*
X0019330Y0099033D01*
X0019483Y0099041D01*
X0019636Y0099045D01*
X0019790Y0099045D01*
X0019943Y0099041D01*
X0020096Y0099033D01*
X0020249Y0099021D01*
X0020401Y0099005D01*
X0020554Y0098985D01*
X0020705Y0098961D01*
X0020856Y0098933D01*
X0021006Y0098902D01*
X0021155Y0098866D01*
X0021303Y0098827D01*
X0021450Y0098784D01*
X0021596Y0098737D01*
X0021741Y0098686D01*
X0021884Y0098631D01*
X0022026Y0098573D01*
X0022166Y0098511D01*
X0022305Y0098446D01*
X0022442Y0098377D01*
X0022577Y0098304D01*
X0022710Y0098228D01*
X0022841Y0098148D01*
X0022970Y0098066D01*
X0023097Y0097979D01*
X0023222Y0097890D01*
X0023344Y0097797D01*
X0023463Y0097701D01*
X0023581Y0097602D01*
X0023695Y0097501D01*
X0023807Y0097396D01*
X0023916Y0097288D01*
X0024022Y0097177D01*
X0024126Y0097064D01*
X0024226Y0096948D01*
X0024324Y0096830D01*
X0024418Y0096709D01*
X0024509Y0096586D01*
X0024597Y0096460D01*
X0024681Y0096332D01*
X0024763Y0096202D01*
X0024840Y0096070D01*
X0024915Y0095936D01*
X0024986Y0095800D01*
X0025053Y0095662D01*
X0025117Y0095522D01*
X0025177Y0095381D01*
X0025233Y0095239D01*
X0025286Y0095095D01*
X0025335Y0094949D01*
X0025380Y0094803D01*
X0025421Y0094655D01*
X0025458Y0094507D01*
X0025492Y0094357D01*
X0025522Y0094206D01*
X0025547Y0094055D01*
X0025569Y0093904D01*
X0025587Y0093751D01*
X0025601Y0093599D01*
X0025611Y0093446D01*
X0025617Y0093292D01*
X0025619Y0093139D01*
X0025617Y0092986D01*
X0025611Y0092832D01*
X0025601Y0092679D01*
X0025587Y0092527D01*
X0025569Y0092374D01*
X0025547Y0092223D01*
X0025522Y0092072D01*
X0025492Y0091921D01*
X0025458Y0091771D01*
X0025421Y0091623D01*
X0025380Y0091475D01*
X0025335Y0091329D01*
X0025286Y0091183D01*
X0025233Y0091039D01*
X0025177Y0090897D01*
X0025117Y0090756D01*
X0025053Y0090616D01*
X0024986Y0090478D01*
X0024915Y0090342D01*
X0024840Y0090208D01*
X0024763Y0090076D01*
X0024681Y0089946D01*
X0024597Y0089818D01*
X0024509Y0089692D01*
X0024418Y0089569D01*
X0024324Y0089448D01*
X0024226Y0089330D01*
X0024126Y0089214D01*
X0024022Y0089101D01*
X0023916Y0088990D01*
X0023807Y0088882D01*
X0023695Y0088777D01*
X0023581Y0088676D01*
X0023463Y0088577D01*
X0023344Y0088481D01*
X0023222Y0088388D01*
X0023097Y0088299D01*
X0022970Y0088212D01*
X0022841Y0088130D01*
X0022710Y0088050D01*
X0022577Y0087974D01*
X0022442Y0087901D01*
X0022305Y0087832D01*
X0022166Y0087767D01*
X0022026Y0087705D01*
X0021884Y0087647D01*
X0021741Y0087592D01*
X0021596Y0087541D01*
X0021450Y0087494D01*
X0021303Y0087451D01*
X0021155Y0087412D01*
X0021006Y0087376D01*
X0020856Y0087345D01*
X0020705Y0087317D01*
X0020554Y0087293D01*
X0020401Y0087273D01*
X0020249Y0087257D01*
X0020096Y0087245D01*
X0019943Y0087237D01*
X0019790Y0087233D01*
X0019636Y0087233D01*
X0019483Y0087237D01*
X0019330Y0087245D01*
X0019177Y0087257D01*
X0019025Y0087273D01*
X0018872Y0087293D01*
X0018721Y0087317D01*
X0018570Y0087345D01*
X0018420Y0087376D01*
X0018271Y0087412D01*
X0018123Y0087451D01*
X0017976Y0087494D01*
X0017830Y0087541D01*
X0017685Y0087592D01*
X0017542Y0087647D01*
X0017400Y0087705D01*
X0017260Y0087767D01*
X0017121Y0087832D01*
X0016984Y0087901D01*
X0016849Y0087974D01*
X0016716Y0088050D01*
X0016585Y0088130D01*
X0016456Y0088212D01*
X0016329Y0088299D01*
X0016204Y0088388D01*
X0016082Y0088481D01*
X0015963Y0088577D01*
X0015845Y0088676D01*
X0015731Y0088777D01*
X0015619Y0088882D01*
X0015510Y0088990D01*
X0015404Y0089101D01*
X0015300Y0089214D01*
X0015200Y0089330D01*
X0015102Y0089448D01*
X0015008Y0089569D01*
X0014917Y0089692D01*
X0014829Y0089818D01*
X0014745Y0089946D01*
X0014663Y0090076D01*
X0014586Y0090208D01*
X0014511Y0090342D01*
X0014440Y0090478D01*
X0014373Y0090616D01*
X0014309Y0090756D01*
X0014249Y0090897D01*
X0014193Y0091039D01*
X0014140Y0091183D01*
X0014091Y0091329D01*
X0014046Y0091475D01*
X0014005Y0091623D01*
X0013968Y0091771D01*
X0013934Y0091921D01*
X0013904Y0092072D01*
X0013879Y0092223D01*
X0013857Y0092374D01*
X0013839Y0092527D01*
X0013825Y0092679D01*
X0013815Y0092832D01*
X0013809Y0092986D01*
X0013807Y0093139D01*
X0122863Y0080934D02*
X0122865Y0081087D01*
X0122871Y0081241D01*
X0122881Y0081394D01*
X0122895Y0081546D01*
X0122913Y0081699D01*
X0122935Y0081850D01*
X0122960Y0082001D01*
X0122990Y0082152D01*
X0123024Y0082302D01*
X0123061Y0082450D01*
X0123102Y0082598D01*
X0123147Y0082744D01*
X0123196Y0082890D01*
X0123249Y0083034D01*
X0123305Y0083176D01*
X0123365Y0083317D01*
X0123429Y0083457D01*
X0123496Y0083595D01*
X0123567Y0083731D01*
X0123642Y0083865D01*
X0123719Y0083997D01*
X0123801Y0084127D01*
X0123885Y0084255D01*
X0123973Y0084381D01*
X0124064Y0084504D01*
X0124158Y0084625D01*
X0124256Y0084743D01*
X0124356Y0084859D01*
X0124460Y0084972D01*
X0124566Y0085083D01*
X0124675Y0085191D01*
X0124787Y0085296D01*
X0124901Y0085397D01*
X0125019Y0085496D01*
X0125138Y0085592D01*
X0125260Y0085685D01*
X0125385Y0085774D01*
X0125512Y0085861D01*
X0125641Y0085943D01*
X0125772Y0086023D01*
X0125905Y0086099D01*
X0126040Y0086172D01*
X0126177Y0086241D01*
X0126316Y0086306D01*
X0126456Y0086368D01*
X0126598Y0086426D01*
X0126741Y0086481D01*
X0126886Y0086532D01*
X0127032Y0086579D01*
X0127179Y0086622D01*
X0127327Y0086661D01*
X0127476Y0086697D01*
X0127626Y0086728D01*
X0127777Y0086756D01*
X0127928Y0086780D01*
X0128081Y0086800D01*
X0128233Y0086816D01*
X0128386Y0086828D01*
X0128539Y0086836D01*
X0128692Y0086840D01*
X0128846Y0086840D01*
X0128999Y0086836D01*
X0129152Y0086828D01*
X0129305Y0086816D01*
X0129457Y0086800D01*
X0129610Y0086780D01*
X0129761Y0086756D01*
X0129912Y0086728D01*
X0130062Y0086697D01*
X0130211Y0086661D01*
X0130359Y0086622D01*
X0130506Y0086579D01*
X0130652Y0086532D01*
X0130797Y0086481D01*
X0130940Y0086426D01*
X0131082Y0086368D01*
X0131222Y0086306D01*
X0131361Y0086241D01*
X0131498Y0086172D01*
X0131633Y0086099D01*
X0131766Y0086023D01*
X0131897Y0085943D01*
X0132026Y0085861D01*
X0132153Y0085774D01*
X0132278Y0085685D01*
X0132400Y0085592D01*
X0132519Y0085496D01*
X0132637Y0085397D01*
X0132751Y0085296D01*
X0132863Y0085191D01*
X0132972Y0085083D01*
X0133078Y0084972D01*
X0133182Y0084859D01*
X0133282Y0084743D01*
X0133380Y0084625D01*
X0133474Y0084504D01*
X0133565Y0084381D01*
X0133653Y0084255D01*
X0133737Y0084127D01*
X0133819Y0083997D01*
X0133896Y0083865D01*
X0133971Y0083731D01*
X0134042Y0083595D01*
X0134109Y0083457D01*
X0134173Y0083317D01*
X0134233Y0083176D01*
X0134289Y0083034D01*
X0134342Y0082890D01*
X0134391Y0082744D01*
X0134436Y0082598D01*
X0134477Y0082450D01*
X0134514Y0082302D01*
X0134548Y0082152D01*
X0134578Y0082001D01*
X0134603Y0081850D01*
X0134625Y0081699D01*
X0134643Y0081546D01*
X0134657Y0081394D01*
X0134667Y0081241D01*
X0134673Y0081087D01*
X0134675Y0080934D01*
X0134673Y0080781D01*
X0134667Y0080627D01*
X0134657Y0080474D01*
X0134643Y0080322D01*
X0134625Y0080169D01*
X0134603Y0080018D01*
X0134578Y0079867D01*
X0134548Y0079716D01*
X0134514Y0079566D01*
X0134477Y0079418D01*
X0134436Y0079270D01*
X0134391Y0079124D01*
X0134342Y0078978D01*
X0134289Y0078834D01*
X0134233Y0078692D01*
X0134173Y0078551D01*
X0134109Y0078411D01*
X0134042Y0078273D01*
X0133971Y0078137D01*
X0133896Y0078003D01*
X0133819Y0077871D01*
X0133737Y0077741D01*
X0133653Y0077613D01*
X0133565Y0077487D01*
X0133474Y0077364D01*
X0133380Y0077243D01*
X0133282Y0077125D01*
X0133182Y0077009D01*
X0133078Y0076896D01*
X0132972Y0076785D01*
X0132863Y0076677D01*
X0132751Y0076572D01*
X0132637Y0076471D01*
X0132519Y0076372D01*
X0132400Y0076276D01*
X0132278Y0076183D01*
X0132153Y0076094D01*
X0132026Y0076007D01*
X0131897Y0075925D01*
X0131766Y0075845D01*
X0131633Y0075769D01*
X0131498Y0075696D01*
X0131361Y0075627D01*
X0131222Y0075562D01*
X0131082Y0075500D01*
X0130940Y0075442D01*
X0130797Y0075387D01*
X0130652Y0075336D01*
X0130506Y0075289D01*
X0130359Y0075246D01*
X0130211Y0075207D01*
X0130062Y0075171D01*
X0129912Y0075140D01*
X0129761Y0075112D01*
X0129610Y0075088D01*
X0129457Y0075068D01*
X0129305Y0075052D01*
X0129152Y0075040D01*
X0128999Y0075032D01*
X0128846Y0075028D01*
X0128692Y0075028D01*
X0128539Y0075032D01*
X0128386Y0075040D01*
X0128233Y0075052D01*
X0128081Y0075068D01*
X0127928Y0075088D01*
X0127777Y0075112D01*
X0127626Y0075140D01*
X0127476Y0075171D01*
X0127327Y0075207D01*
X0127179Y0075246D01*
X0127032Y0075289D01*
X0126886Y0075336D01*
X0126741Y0075387D01*
X0126598Y0075442D01*
X0126456Y0075500D01*
X0126316Y0075562D01*
X0126177Y0075627D01*
X0126040Y0075696D01*
X0125905Y0075769D01*
X0125772Y0075845D01*
X0125641Y0075925D01*
X0125512Y0076007D01*
X0125385Y0076094D01*
X0125260Y0076183D01*
X0125138Y0076276D01*
X0125019Y0076372D01*
X0124901Y0076471D01*
X0124787Y0076572D01*
X0124675Y0076677D01*
X0124566Y0076785D01*
X0124460Y0076896D01*
X0124356Y0077009D01*
X0124256Y0077125D01*
X0124158Y0077243D01*
X0124064Y0077364D01*
X0123973Y0077487D01*
X0123885Y0077613D01*
X0123801Y0077741D01*
X0123719Y0077871D01*
X0123642Y0078003D01*
X0123567Y0078137D01*
X0123496Y0078273D01*
X0123429Y0078411D01*
X0123365Y0078551D01*
X0123305Y0078692D01*
X0123249Y0078834D01*
X0123196Y0078978D01*
X0123147Y0079124D01*
X0123102Y0079270D01*
X0123061Y0079418D01*
X0123024Y0079566D01*
X0122990Y0079716D01*
X0122960Y0079867D01*
X0122935Y0080018D01*
X0122913Y0080169D01*
X0122895Y0080322D01*
X0122881Y0080474D01*
X0122871Y0080627D01*
X0122865Y0080781D01*
X0122863Y0080934D01*
X0226996Y0077981D02*
X0226998Y0078134D01*
X0227004Y0078288D01*
X0227014Y0078441D01*
X0227028Y0078593D01*
X0227046Y0078746D01*
X0227068Y0078897D01*
X0227093Y0079048D01*
X0227123Y0079199D01*
X0227157Y0079349D01*
X0227194Y0079497D01*
X0227235Y0079645D01*
X0227280Y0079791D01*
X0227329Y0079937D01*
X0227382Y0080081D01*
X0227438Y0080223D01*
X0227498Y0080364D01*
X0227562Y0080504D01*
X0227629Y0080642D01*
X0227700Y0080778D01*
X0227775Y0080912D01*
X0227852Y0081044D01*
X0227934Y0081174D01*
X0228018Y0081302D01*
X0228106Y0081428D01*
X0228197Y0081551D01*
X0228291Y0081672D01*
X0228389Y0081790D01*
X0228489Y0081906D01*
X0228593Y0082019D01*
X0228699Y0082130D01*
X0228808Y0082238D01*
X0228920Y0082343D01*
X0229034Y0082444D01*
X0229152Y0082543D01*
X0229271Y0082639D01*
X0229393Y0082732D01*
X0229518Y0082821D01*
X0229645Y0082908D01*
X0229774Y0082990D01*
X0229905Y0083070D01*
X0230038Y0083146D01*
X0230173Y0083219D01*
X0230310Y0083288D01*
X0230449Y0083353D01*
X0230589Y0083415D01*
X0230731Y0083473D01*
X0230874Y0083528D01*
X0231019Y0083579D01*
X0231165Y0083626D01*
X0231312Y0083669D01*
X0231460Y0083708D01*
X0231609Y0083744D01*
X0231759Y0083775D01*
X0231910Y0083803D01*
X0232061Y0083827D01*
X0232214Y0083847D01*
X0232366Y0083863D01*
X0232519Y0083875D01*
X0232672Y0083883D01*
X0232825Y0083887D01*
X0232979Y0083887D01*
X0233132Y0083883D01*
X0233285Y0083875D01*
X0233438Y0083863D01*
X0233590Y0083847D01*
X0233743Y0083827D01*
X0233894Y0083803D01*
X0234045Y0083775D01*
X0234195Y0083744D01*
X0234344Y0083708D01*
X0234492Y0083669D01*
X0234639Y0083626D01*
X0234785Y0083579D01*
X0234930Y0083528D01*
X0235073Y0083473D01*
X0235215Y0083415D01*
X0235355Y0083353D01*
X0235494Y0083288D01*
X0235631Y0083219D01*
X0235766Y0083146D01*
X0235899Y0083070D01*
X0236030Y0082990D01*
X0236159Y0082908D01*
X0236286Y0082821D01*
X0236411Y0082732D01*
X0236533Y0082639D01*
X0236652Y0082543D01*
X0236770Y0082444D01*
X0236884Y0082343D01*
X0236996Y0082238D01*
X0237105Y0082130D01*
X0237211Y0082019D01*
X0237315Y0081906D01*
X0237415Y0081790D01*
X0237513Y0081672D01*
X0237607Y0081551D01*
X0237698Y0081428D01*
X0237786Y0081302D01*
X0237870Y0081174D01*
X0237952Y0081044D01*
X0238029Y0080912D01*
X0238104Y0080778D01*
X0238175Y0080642D01*
X0238242Y0080504D01*
X0238306Y0080364D01*
X0238366Y0080223D01*
X0238422Y0080081D01*
X0238475Y0079937D01*
X0238524Y0079791D01*
X0238569Y0079645D01*
X0238610Y0079497D01*
X0238647Y0079349D01*
X0238681Y0079199D01*
X0238711Y0079048D01*
X0238736Y0078897D01*
X0238758Y0078746D01*
X0238776Y0078593D01*
X0238790Y0078441D01*
X0238800Y0078288D01*
X0238806Y0078134D01*
X0238808Y0077981D01*
X0238806Y0077828D01*
X0238800Y0077674D01*
X0238790Y0077521D01*
X0238776Y0077369D01*
X0238758Y0077216D01*
X0238736Y0077065D01*
X0238711Y0076914D01*
X0238681Y0076763D01*
X0238647Y0076613D01*
X0238610Y0076465D01*
X0238569Y0076317D01*
X0238524Y0076171D01*
X0238475Y0076025D01*
X0238422Y0075881D01*
X0238366Y0075739D01*
X0238306Y0075598D01*
X0238242Y0075458D01*
X0238175Y0075320D01*
X0238104Y0075184D01*
X0238029Y0075050D01*
X0237952Y0074918D01*
X0237870Y0074788D01*
X0237786Y0074660D01*
X0237698Y0074534D01*
X0237607Y0074411D01*
X0237513Y0074290D01*
X0237415Y0074172D01*
X0237315Y0074056D01*
X0237211Y0073943D01*
X0237105Y0073832D01*
X0236996Y0073724D01*
X0236884Y0073619D01*
X0236770Y0073518D01*
X0236652Y0073419D01*
X0236533Y0073323D01*
X0236411Y0073230D01*
X0236286Y0073141D01*
X0236159Y0073054D01*
X0236030Y0072972D01*
X0235899Y0072892D01*
X0235766Y0072816D01*
X0235631Y0072743D01*
X0235494Y0072674D01*
X0235355Y0072609D01*
X0235215Y0072547D01*
X0235073Y0072489D01*
X0234930Y0072434D01*
X0234785Y0072383D01*
X0234639Y0072336D01*
X0234492Y0072293D01*
X0234344Y0072254D01*
X0234195Y0072218D01*
X0234045Y0072187D01*
X0233894Y0072159D01*
X0233743Y0072135D01*
X0233590Y0072115D01*
X0233438Y0072099D01*
X0233285Y0072087D01*
X0233132Y0072079D01*
X0232979Y0072075D01*
X0232825Y0072075D01*
X0232672Y0072079D01*
X0232519Y0072087D01*
X0232366Y0072099D01*
X0232214Y0072115D01*
X0232061Y0072135D01*
X0231910Y0072159D01*
X0231759Y0072187D01*
X0231609Y0072218D01*
X0231460Y0072254D01*
X0231312Y0072293D01*
X0231165Y0072336D01*
X0231019Y0072383D01*
X0230874Y0072434D01*
X0230731Y0072489D01*
X0230589Y0072547D01*
X0230449Y0072609D01*
X0230310Y0072674D01*
X0230173Y0072743D01*
X0230038Y0072816D01*
X0229905Y0072892D01*
X0229774Y0072972D01*
X0229645Y0073054D01*
X0229518Y0073141D01*
X0229393Y0073230D01*
X0229271Y0073323D01*
X0229152Y0073419D01*
X0229034Y0073518D01*
X0228920Y0073619D01*
X0228808Y0073724D01*
X0228699Y0073832D01*
X0228593Y0073943D01*
X0228489Y0074056D01*
X0228389Y0074172D01*
X0228291Y0074290D01*
X0228197Y0074411D01*
X0228106Y0074534D01*
X0228018Y0074660D01*
X0227934Y0074788D01*
X0227852Y0074918D01*
X0227775Y0075050D01*
X0227700Y0075184D01*
X0227629Y0075320D01*
X0227562Y0075458D01*
X0227498Y0075598D01*
X0227438Y0075739D01*
X0227382Y0075881D01*
X0227329Y0076025D01*
X0227280Y0076171D01*
X0227235Y0076317D01*
X0227194Y0076465D01*
X0227157Y0076613D01*
X0227123Y0076763D01*
X0227093Y0076914D01*
X0227068Y0077065D01*
X0227046Y0077216D01*
X0227028Y0077369D01*
X0227014Y0077521D01*
X0227004Y0077674D01*
X0226998Y0077828D01*
X0226996Y0077981D01*
X0226996Y0085461D02*
X0226998Y0085614D01*
X0227004Y0085768D01*
X0227014Y0085921D01*
X0227028Y0086073D01*
X0227046Y0086226D01*
X0227068Y0086377D01*
X0227093Y0086528D01*
X0227123Y0086679D01*
X0227157Y0086829D01*
X0227194Y0086977D01*
X0227235Y0087125D01*
X0227280Y0087271D01*
X0227329Y0087417D01*
X0227382Y0087561D01*
X0227438Y0087703D01*
X0227498Y0087844D01*
X0227562Y0087984D01*
X0227629Y0088122D01*
X0227700Y0088258D01*
X0227775Y0088392D01*
X0227852Y0088524D01*
X0227934Y0088654D01*
X0228018Y0088782D01*
X0228106Y0088908D01*
X0228197Y0089031D01*
X0228291Y0089152D01*
X0228389Y0089270D01*
X0228489Y0089386D01*
X0228593Y0089499D01*
X0228699Y0089610D01*
X0228808Y0089718D01*
X0228920Y0089823D01*
X0229034Y0089924D01*
X0229152Y0090023D01*
X0229271Y0090119D01*
X0229393Y0090212D01*
X0229518Y0090301D01*
X0229645Y0090388D01*
X0229774Y0090470D01*
X0229905Y0090550D01*
X0230038Y0090626D01*
X0230173Y0090699D01*
X0230310Y0090768D01*
X0230449Y0090833D01*
X0230589Y0090895D01*
X0230731Y0090953D01*
X0230874Y0091008D01*
X0231019Y0091059D01*
X0231165Y0091106D01*
X0231312Y0091149D01*
X0231460Y0091188D01*
X0231609Y0091224D01*
X0231759Y0091255D01*
X0231910Y0091283D01*
X0232061Y0091307D01*
X0232214Y0091327D01*
X0232366Y0091343D01*
X0232519Y0091355D01*
X0232672Y0091363D01*
X0232825Y0091367D01*
X0232979Y0091367D01*
X0233132Y0091363D01*
X0233285Y0091355D01*
X0233438Y0091343D01*
X0233590Y0091327D01*
X0233743Y0091307D01*
X0233894Y0091283D01*
X0234045Y0091255D01*
X0234195Y0091224D01*
X0234344Y0091188D01*
X0234492Y0091149D01*
X0234639Y0091106D01*
X0234785Y0091059D01*
X0234930Y0091008D01*
X0235073Y0090953D01*
X0235215Y0090895D01*
X0235355Y0090833D01*
X0235494Y0090768D01*
X0235631Y0090699D01*
X0235766Y0090626D01*
X0235899Y0090550D01*
X0236030Y0090470D01*
X0236159Y0090388D01*
X0236286Y0090301D01*
X0236411Y0090212D01*
X0236533Y0090119D01*
X0236652Y0090023D01*
X0236770Y0089924D01*
X0236884Y0089823D01*
X0236996Y0089718D01*
X0237105Y0089610D01*
X0237211Y0089499D01*
X0237315Y0089386D01*
X0237415Y0089270D01*
X0237513Y0089152D01*
X0237607Y0089031D01*
X0237698Y0088908D01*
X0237786Y0088782D01*
X0237870Y0088654D01*
X0237952Y0088524D01*
X0238029Y0088392D01*
X0238104Y0088258D01*
X0238175Y0088122D01*
X0238242Y0087984D01*
X0238306Y0087844D01*
X0238366Y0087703D01*
X0238422Y0087561D01*
X0238475Y0087417D01*
X0238524Y0087271D01*
X0238569Y0087125D01*
X0238610Y0086977D01*
X0238647Y0086829D01*
X0238681Y0086679D01*
X0238711Y0086528D01*
X0238736Y0086377D01*
X0238758Y0086226D01*
X0238776Y0086073D01*
X0238790Y0085921D01*
X0238800Y0085768D01*
X0238806Y0085614D01*
X0238808Y0085461D01*
X0238806Y0085308D01*
X0238800Y0085154D01*
X0238790Y0085001D01*
X0238776Y0084849D01*
X0238758Y0084696D01*
X0238736Y0084545D01*
X0238711Y0084394D01*
X0238681Y0084243D01*
X0238647Y0084093D01*
X0238610Y0083945D01*
X0238569Y0083797D01*
X0238524Y0083651D01*
X0238475Y0083505D01*
X0238422Y0083361D01*
X0238366Y0083219D01*
X0238306Y0083078D01*
X0238242Y0082938D01*
X0238175Y0082800D01*
X0238104Y0082664D01*
X0238029Y0082530D01*
X0237952Y0082398D01*
X0237870Y0082268D01*
X0237786Y0082140D01*
X0237698Y0082014D01*
X0237607Y0081891D01*
X0237513Y0081770D01*
X0237415Y0081652D01*
X0237315Y0081536D01*
X0237211Y0081423D01*
X0237105Y0081312D01*
X0236996Y0081204D01*
X0236884Y0081099D01*
X0236770Y0080998D01*
X0236652Y0080899D01*
X0236533Y0080803D01*
X0236411Y0080710D01*
X0236286Y0080621D01*
X0236159Y0080534D01*
X0236030Y0080452D01*
X0235899Y0080372D01*
X0235766Y0080296D01*
X0235631Y0080223D01*
X0235494Y0080154D01*
X0235355Y0080089D01*
X0235215Y0080027D01*
X0235073Y0079969D01*
X0234930Y0079914D01*
X0234785Y0079863D01*
X0234639Y0079816D01*
X0234492Y0079773D01*
X0234344Y0079734D01*
X0234195Y0079698D01*
X0234045Y0079667D01*
X0233894Y0079639D01*
X0233743Y0079615D01*
X0233590Y0079595D01*
X0233438Y0079579D01*
X0233285Y0079567D01*
X0233132Y0079559D01*
X0232979Y0079555D01*
X0232825Y0079555D01*
X0232672Y0079559D01*
X0232519Y0079567D01*
X0232366Y0079579D01*
X0232214Y0079595D01*
X0232061Y0079615D01*
X0231910Y0079639D01*
X0231759Y0079667D01*
X0231609Y0079698D01*
X0231460Y0079734D01*
X0231312Y0079773D01*
X0231165Y0079816D01*
X0231019Y0079863D01*
X0230874Y0079914D01*
X0230731Y0079969D01*
X0230589Y0080027D01*
X0230449Y0080089D01*
X0230310Y0080154D01*
X0230173Y0080223D01*
X0230038Y0080296D01*
X0229905Y0080372D01*
X0229774Y0080452D01*
X0229645Y0080534D01*
X0229518Y0080621D01*
X0229393Y0080710D01*
X0229271Y0080803D01*
X0229152Y0080899D01*
X0229034Y0080998D01*
X0228920Y0081099D01*
X0228808Y0081204D01*
X0228699Y0081312D01*
X0228593Y0081423D01*
X0228489Y0081536D01*
X0228389Y0081652D01*
X0228291Y0081770D01*
X0228197Y0081891D01*
X0228106Y0082014D01*
X0228018Y0082140D01*
X0227934Y0082268D01*
X0227852Y0082398D01*
X0227775Y0082530D01*
X0227700Y0082664D01*
X0227629Y0082800D01*
X0227562Y0082938D01*
X0227498Y0083078D01*
X0227438Y0083219D01*
X0227382Y0083361D01*
X0227329Y0083505D01*
X0227280Y0083651D01*
X0227235Y0083797D01*
X0227194Y0083945D01*
X0227157Y0084093D01*
X0227123Y0084243D01*
X0227093Y0084394D01*
X0227068Y0084545D01*
X0227046Y0084696D01*
X0227028Y0084849D01*
X0227014Y0085001D01*
X0227004Y0085154D01*
X0226998Y0085308D01*
X0226996Y0085461D01*
X0226800Y0093139D02*
X0226802Y0093292D01*
X0226808Y0093446D01*
X0226818Y0093599D01*
X0226832Y0093751D01*
X0226850Y0093904D01*
X0226872Y0094055D01*
X0226897Y0094206D01*
X0226927Y0094357D01*
X0226961Y0094507D01*
X0226998Y0094655D01*
X0227039Y0094803D01*
X0227084Y0094949D01*
X0227133Y0095095D01*
X0227186Y0095239D01*
X0227242Y0095381D01*
X0227302Y0095522D01*
X0227366Y0095662D01*
X0227433Y0095800D01*
X0227504Y0095936D01*
X0227579Y0096070D01*
X0227656Y0096202D01*
X0227738Y0096332D01*
X0227822Y0096460D01*
X0227910Y0096586D01*
X0228001Y0096709D01*
X0228095Y0096830D01*
X0228193Y0096948D01*
X0228293Y0097064D01*
X0228397Y0097177D01*
X0228503Y0097288D01*
X0228612Y0097396D01*
X0228724Y0097501D01*
X0228838Y0097602D01*
X0228956Y0097701D01*
X0229075Y0097797D01*
X0229197Y0097890D01*
X0229322Y0097979D01*
X0229449Y0098066D01*
X0229578Y0098148D01*
X0229709Y0098228D01*
X0229842Y0098304D01*
X0229977Y0098377D01*
X0230114Y0098446D01*
X0230253Y0098511D01*
X0230393Y0098573D01*
X0230535Y0098631D01*
X0230678Y0098686D01*
X0230823Y0098737D01*
X0230969Y0098784D01*
X0231116Y0098827D01*
X0231264Y0098866D01*
X0231413Y0098902D01*
X0231563Y0098933D01*
X0231714Y0098961D01*
X0231865Y0098985D01*
X0232018Y0099005D01*
X0232170Y0099021D01*
X0232323Y0099033D01*
X0232476Y0099041D01*
X0232629Y0099045D01*
X0232783Y0099045D01*
X0232936Y0099041D01*
X0233089Y0099033D01*
X0233242Y0099021D01*
X0233394Y0099005D01*
X0233547Y0098985D01*
X0233698Y0098961D01*
X0233849Y0098933D01*
X0233999Y0098902D01*
X0234148Y0098866D01*
X0234296Y0098827D01*
X0234443Y0098784D01*
X0234589Y0098737D01*
X0234734Y0098686D01*
X0234877Y0098631D01*
X0235019Y0098573D01*
X0235159Y0098511D01*
X0235298Y0098446D01*
X0235435Y0098377D01*
X0235570Y0098304D01*
X0235703Y0098228D01*
X0235834Y0098148D01*
X0235963Y0098066D01*
X0236090Y0097979D01*
X0236215Y0097890D01*
X0236337Y0097797D01*
X0236456Y0097701D01*
X0236574Y0097602D01*
X0236688Y0097501D01*
X0236800Y0097396D01*
X0236909Y0097288D01*
X0237015Y0097177D01*
X0237119Y0097064D01*
X0237219Y0096948D01*
X0237317Y0096830D01*
X0237411Y0096709D01*
X0237502Y0096586D01*
X0237590Y0096460D01*
X0237674Y0096332D01*
X0237756Y0096202D01*
X0237833Y0096070D01*
X0237908Y0095936D01*
X0237979Y0095800D01*
X0238046Y0095662D01*
X0238110Y0095522D01*
X0238170Y0095381D01*
X0238226Y0095239D01*
X0238279Y0095095D01*
X0238328Y0094949D01*
X0238373Y0094803D01*
X0238414Y0094655D01*
X0238451Y0094507D01*
X0238485Y0094357D01*
X0238515Y0094206D01*
X0238540Y0094055D01*
X0238562Y0093904D01*
X0238580Y0093751D01*
X0238594Y0093599D01*
X0238604Y0093446D01*
X0238610Y0093292D01*
X0238612Y0093139D01*
X0238610Y0092986D01*
X0238604Y0092832D01*
X0238594Y0092679D01*
X0238580Y0092527D01*
X0238562Y0092374D01*
X0238540Y0092223D01*
X0238515Y0092072D01*
X0238485Y0091921D01*
X0238451Y0091771D01*
X0238414Y0091623D01*
X0238373Y0091475D01*
X0238328Y0091329D01*
X0238279Y0091183D01*
X0238226Y0091039D01*
X0238170Y0090897D01*
X0238110Y0090756D01*
X0238046Y0090616D01*
X0237979Y0090478D01*
X0237908Y0090342D01*
X0237833Y0090208D01*
X0237756Y0090076D01*
X0237674Y0089946D01*
X0237590Y0089818D01*
X0237502Y0089692D01*
X0237411Y0089569D01*
X0237317Y0089448D01*
X0237219Y0089330D01*
X0237119Y0089214D01*
X0237015Y0089101D01*
X0236909Y0088990D01*
X0236800Y0088882D01*
X0236688Y0088777D01*
X0236574Y0088676D01*
X0236456Y0088577D01*
X0236337Y0088481D01*
X0236215Y0088388D01*
X0236090Y0088299D01*
X0235963Y0088212D01*
X0235834Y0088130D01*
X0235703Y0088050D01*
X0235570Y0087974D01*
X0235435Y0087901D01*
X0235298Y0087832D01*
X0235159Y0087767D01*
X0235019Y0087705D01*
X0234877Y0087647D01*
X0234734Y0087592D01*
X0234589Y0087541D01*
X0234443Y0087494D01*
X0234296Y0087451D01*
X0234148Y0087412D01*
X0233999Y0087376D01*
X0233849Y0087345D01*
X0233698Y0087317D01*
X0233547Y0087293D01*
X0233394Y0087273D01*
X0233242Y0087257D01*
X0233089Y0087245D01*
X0232936Y0087237D01*
X0232783Y0087233D01*
X0232629Y0087233D01*
X0232476Y0087237D01*
X0232323Y0087245D01*
X0232170Y0087257D01*
X0232018Y0087273D01*
X0231865Y0087293D01*
X0231714Y0087317D01*
X0231563Y0087345D01*
X0231413Y0087376D01*
X0231264Y0087412D01*
X0231116Y0087451D01*
X0230969Y0087494D01*
X0230823Y0087541D01*
X0230678Y0087592D01*
X0230535Y0087647D01*
X0230393Y0087705D01*
X0230253Y0087767D01*
X0230114Y0087832D01*
X0229977Y0087901D01*
X0229842Y0087974D01*
X0229709Y0088050D01*
X0229578Y0088130D01*
X0229449Y0088212D01*
X0229322Y0088299D01*
X0229197Y0088388D01*
X0229075Y0088481D01*
X0228956Y0088577D01*
X0228838Y0088676D01*
X0228724Y0088777D01*
X0228612Y0088882D01*
X0228503Y0088990D01*
X0228397Y0089101D01*
X0228293Y0089214D01*
X0228193Y0089330D01*
X0228095Y0089448D01*
X0228001Y0089569D01*
X0227910Y0089692D01*
X0227822Y0089818D01*
X0227738Y0089946D01*
X0227656Y0090076D01*
X0227579Y0090208D01*
X0227504Y0090342D01*
X0227433Y0090478D01*
X0227366Y0090616D01*
X0227302Y0090756D01*
X0227242Y0090897D01*
X0227186Y0091039D01*
X0227133Y0091183D01*
X0227084Y0091329D01*
X0227039Y0091475D01*
X0226998Y0091623D01*
X0226961Y0091771D01*
X0226927Y0091921D01*
X0226897Y0092072D01*
X0226872Y0092223D01*
X0226850Y0092374D01*
X0226832Y0092527D01*
X0226818Y0092679D01*
X0226808Y0092832D01*
X0226802Y0092986D01*
X0226800Y0093139D01*
X0226996Y0070107D02*
X0226998Y0070260D01*
X0227004Y0070414D01*
X0227014Y0070567D01*
X0227028Y0070719D01*
X0227046Y0070872D01*
X0227068Y0071023D01*
X0227093Y0071174D01*
X0227123Y0071325D01*
X0227157Y0071475D01*
X0227194Y0071623D01*
X0227235Y0071771D01*
X0227280Y0071917D01*
X0227329Y0072063D01*
X0227382Y0072207D01*
X0227438Y0072349D01*
X0227498Y0072490D01*
X0227562Y0072630D01*
X0227629Y0072768D01*
X0227700Y0072904D01*
X0227775Y0073038D01*
X0227852Y0073170D01*
X0227934Y0073300D01*
X0228018Y0073428D01*
X0228106Y0073554D01*
X0228197Y0073677D01*
X0228291Y0073798D01*
X0228389Y0073916D01*
X0228489Y0074032D01*
X0228593Y0074145D01*
X0228699Y0074256D01*
X0228808Y0074364D01*
X0228920Y0074469D01*
X0229034Y0074570D01*
X0229152Y0074669D01*
X0229271Y0074765D01*
X0229393Y0074858D01*
X0229518Y0074947D01*
X0229645Y0075034D01*
X0229774Y0075116D01*
X0229905Y0075196D01*
X0230038Y0075272D01*
X0230173Y0075345D01*
X0230310Y0075414D01*
X0230449Y0075479D01*
X0230589Y0075541D01*
X0230731Y0075599D01*
X0230874Y0075654D01*
X0231019Y0075705D01*
X0231165Y0075752D01*
X0231312Y0075795D01*
X0231460Y0075834D01*
X0231609Y0075870D01*
X0231759Y0075901D01*
X0231910Y0075929D01*
X0232061Y0075953D01*
X0232214Y0075973D01*
X0232366Y0075989D01*
X0232519Y0076001D01*
X0232672Y0076009D01*
X0232825Y0076013D01*
X0232979Y0076013D01*
X0233132Y0076009D01*
X0233285Y0076001D01*
X0233438Y0075989D01*
X0233590Y0075973D01*
X0233743Y0075953D01*
X0233894Y0075929D01*
X0234045Y0075901D01*
X0234195Y0075870D01*
X0234344Y0075834D01*
X0234492Y0075795D01*
X0234639Y0075752D01*
X0234785Y0075705D01*
X0234930Y0075654D01*
X0235073Y0075599D01*
X0235215Y0075541D01*
X0235355Y0075479D01*
X0235494Y0075414D01*
X0235631Y0075345D01*
X0235766Y0075272D01*
X0235899Y0075196D01*
X0236030Y0075116D01*
X0236159Y0075034D01*
X0236286Y0074947D01*
X0236411Y0074858D01*
X0236533Y0074765D01*
X0236652Y0074669D01*
X0236770Y0074570D01*
X0236884Y0074469D01*
X0236996Y0074364D01*
X0237105Y0074256D01*
X0237211Y0074145D01*
X0237315Y0074032D01*
X0237415Y0073916D01*
X0237513Y0073798D01*
X0237607Y0073677D01*
X0237698Y0073554D01*
X0237786Y0073428D01*
X0237870Y0073300D01*
X0237952Y0073170D01*
X0238029Y0073038D01*
X0238104Y0072904D01*
X0238175Y0072768D01*
X0238242Y0072630D01*
X0238306Y0072490D01*
X0238366Y0072349D01*
X0238422Y0072207D01*
X0238475Y0072063D01*
X0238524Y0071917D01*
X0238569Y0071771D01*
X0238610Y0071623D01*
X0238647Y0071475D01*
X0238681Y0071325D01*
X0238711Y0071174D01*
X0238736Y0071023D01*
X0238758Y0070872D01*
X0238776Y0070719D01*
X0238790Y0070567D01*
X0238800Y0070414D01*
X0238806Y0070260D01*
X0238808Y0070107D01*
X0238806Y0069954D01*
X0238800Y0069800D01*
X0238790Y0069647D01*
X0238776Y0069495D01*
X0238758Y0069342D01*
X0238736Y0069191D01*
X0238711Y0069040D01*
X0238681Y0068889D01*
X0238647Y0068739D01*
X0238610Y0068591D01*
X0238569Y0068443D01*
X0238524Y0068297D01*
X0238475Y0068151D01*
X0238422Y0068007D01*
X0238366Y0067865D01*
X0238306Y0067724D01*
X0238242Y0067584D01*
X0238175Y0067446D01*
X0238104Y0067310D01*
X0238029Y0067176D01*
X0237952Y0067044D01*
X0237870Y0066914D01*
X0237786Y0066786D01*
X0237698Y0066660D01*
X0237607Y0066537D01*
X0237513Y0066416D01*
X0237415Y0066298D01*
X0237315Y0066182D01*
X0237211Y0066069D01*
X0237105Y0065958D01*
X0236996Y0065850D01*
X0236884Y0065745D01*
X0236770Y0065644D01*
X0236652Y0065545D01*
X0236533Y0065449D01*
X0236411Y0065356D01*
X0236286Y0065267D01*
X0236159Y0065180D01*
X0236030Y0065098D01*
X0235899Y0065018D01*
X0235766Y0064942D01*
X0235631Y0064869D01*
X0235494Y0064800D01*
X0235355Y0064735D01*
X0235215Y0064673D01*
X0235073Y0064615D01*
X0234930Y0064560D01*
X0234785Y0064509D01*
X0234639Y0064462D01*
X0234492Y0064419D01*
X0234344Y0064380D01*
X0234195Y0064344D01*
X0234045Y0064313D01*
X0233894Y0064285D01*
X0233743Y0064261D01*
X0233590Y0064241D01*
X0233438Y0064225D01*
X0233285Y0064213D01*
X0233132Y0064205D01*
X0232979Y0064201D01*
X0232825Y0064201D01*
X0232672Y0064205D01*
X0232519Y0064213D01*
X0232366Y0064225D01*
X0232214Y0064241D01*
X0232061Y0064261D01*
X0231910Y0064285D01*
X0231759Y0064313D01*
X0231609Y0064344D01*
X0231460Y0064380D01*
X0231312Y0064419D01*
X0231165Y0064462D01*
X0231019Y0064509D01*
X0230874Y0064560D01*
X0230731Y0064615D01*
X0230589Y0064673D01*
X0230449Y0064735D01*
X0230310Y0064800D01*
X0230173Y0064869D01*
X0230038Y0064942D01*
X0229905Y0065018D01*
X0229774Y0065098D01*
X0229645Y0065180D01*
X0229518Y0065267D01*
X0229393Y0065356D01*
X0229271Y0065449D01*
X0229152Y0065545D01*
X0229034Y0065644D01*
X0228920Y0065745D01*
X0228808Y0065850D01*
X0228699Y0065958D01*
X0228593Y0066069D01*
X0228489Y0066182D01*
X0228389Y0066298D01*
X0228291Y0066416D01*
X0228197Y0066537D01*
X0228106Y0066660D01*
X0228018Y0066786D01*
X0227934Y0066914D01*
X0227852Y0067044D01*
X0227775Y0067176D01*
X0227700Y0067310D01*
X0227629Y0067446D01*
X0227562Y0067584D01*
X0227498Y0067724D01*
X0227438Y0067865D01*
X0227382Y0068007D01*
X0227329Y0068151D01*
X0227280Y0068297D01*
X0227235Y0068443D01*
X0227194Y0068591D01*
X0227157Y0068739D01*
X0227123Y0068889D01*
X0227093Y0069040D01*
X0227068Y0069191D01*
X0227046Y0069342D01*
X0227028Y0069495D01*
X0227014Y0069647D01*
X0227004Y0069800D01*
X0226998Y0069954D01*
X0226996Y0070107D01*
X0226996Y0062824D02*
X0226998Y0062977D01*
X0227004Y0063131D01*
X0227014Y0063284D01*
X0227028Y0063436D01*
X0227046Y0063589D01*
X0227068Y0063740D01*
X0227093Y0063891D01*
X0227123Y0064042D01*
X0227157Y0064192D01*
X0227194Y0064340D01*
X0227235Y0064488D01*
X0227280Y0064634D01*
X0227329Y0064780D01*
X0227382Y0064924D01*
X0227438Y0065066D01*
X0227498Y0065207D01*
X0227562Y0065347D01*
X0227629Y0065485D01*
X0227700Y0065621D01*
X0227775Y0065755D01*
X0227852Y0065887D01*
X0227934Y0066017D01*
X0228018Y0066145D01*
X0228106Y0066271D01*
X0228197Y0066394D01*
X0228291Y0066515D01*
X0228389Y0066633D01*
X0228489Y0066749D01*
X0228593Y0066862D01*
X0228699Y0066973D01*
X0228808Y0067081D01*
X0228920Y0067186D01*
X0229034Y0067287D01*
X0229152Y0067386D01*
X0229271Y0067482D01*
X0229393Y0067575D01*
X0229518Y0067664D01*
X0229645Y0067751D01*
X0229774Y0067833D01*
X0229905Y0067913D01*
X0230038Y0067989D01*
X0230173Y0068062D01*
X0230310Y0068131D01*
X0230449Y0068196D01*
X0230589Y0068258D01*
X0230731Y0068316D01*
X0230874Y0068371D01*
X0231019Y0068422D01*
X0231165Y0068469D01*
X0231312Y0068512D01*
X0231460Y0068551D01*
X0231609Y0068587D01*
X0231759Y0068618D01*
X0231910Y0068646D01*
X0232061Y0068670D01*
X0232214Y0068690D01*
X0232366Y0068706D01*
X0232519Y0068718D01*
X0232672Y0068726D01*
X0232825Y0068730D01*
X0232979Y0068730D01*
X0233132Y0068726D01*
X0233285Y0068718D01*
X0233438Y0068706D01*
X0233590Y0068690D01*
X0233743Y0068670D01*
X0233894Y0068646D01*
X0234045Y0068618D01*
X0234195Y0068587D01*
X0234344Y0068551D01*
X0234492Y0068512D01*
X0234639Y0068469D01*
X0234785Y0068422D01*
X0234930Y0068371D01*
X0235073Y0068316D01*
X0235215Y0068258D01*
X0235355Y0068196D01*
X0235494Y0068131D01*
X0235631Y0068062D01*
X0235766Y0067989D01*
X0235899Y0067913D01*
X0236030Y0067833D01*
X0236159Y0067751D01*
X0236286Y0067664D01*
X0236411Y0067575D01*
X0236533Y0067482D01*
X0236652Y0067386D01*
X0236770Y0067287D01*
X0236884Y0067186D01*
X0236996Y0067081D01*
X0237105Y0066973D01*
X0237211Y0066862D01*
X0237315Y0066749D01*
X0237415Y0066633D01*
X0237513Y0066515D01*
X0237607Y0066394D01*
X0237698Y0066271D01*
X0237786Y0066145D01*
X0237870Y0066017D01*
X0237952Y0065887D01*
X0238029Y0065755D01*
X0238104Y0065621D01*
X0238175Y0065485D01*
X0238242Y0065347D01*
X0238306Y0065207D01*
X0238366Y0065066D01*
X0238422Y0064924D01*
X0238475Y0064780D01*
X0238524Y0064634D01*
X0238569Y0064488D01*
X0238610Y0064340D01*
X0238647Y0064192D01*
X0238681Y0064042D01*
X0238711Y0063891D01*
X0238736Y0063740D01*
X0238758Y0063589D01*
X0238776Y0063436D01*
X0238790Y0063284D01*
X0238800Y0063131D01*
X0238806Y0062977D01*
X0238808Y0062824D01*
X0238806Y0062671D01*
X0238800Y0062517D01*
X0238790Y0062364D01*
X0238776Y0062212D01*
X0238758Y0062059D01*
X0238736Y0061908D01*
X0238711Y0061757D01*
X0238681Y0061606D01*
X0238647Y0061456D01*
X0238610Y0061308D01*
X0238569Y0061160D01*
X0238524Y0061014D01*
X0238475Y0060868D01*
X0238422Y0060724D01*
X0238366Y0060582D01*
X0238306Y0060441D01*
X0238242Y0060301D01*
X0238175Y0060163D01*
X0238104Y0060027D01*
X0238029Y0059893D01*
X0237952Y0059761D01*
X0237870Y0059631D01*
X0237786Y0059503D01*
X0237698Y0059377D01*
X0237607Y0059254D01*
X0237513Y0059133D01*
X0237415Y0059015D01*
X0237315Y0058899D01*
X0237211Y0058786D01*
X0237105Y0058675D01*
X0236996Y0058567D01*
X0236884Y0058462D01*
X0236770Y0058361D01*
X0236652Y0058262D01*
X0236533Y0058166D01*
X0236411Y0058073D01*
X0236286Y0057984D01*
X0236159Y0057897D01*
X0236030Y0057815D01*
X0235899Y0057735D01*
X0235766Y0057659D01*
X0235631Y0057586D01*
X0235494Y0057517D01*
X0235355Y0057452D01*
X0235215Y0057390D01*
X0235073Y0057332D01*
X0234930Y0057277D01*
X0234785Y0057226D01*
X0234639Y0057179D01*
X0234492Y0057136D01*
X0234344Y0057097D01*
X0234195Y0057061D01*
X0234045Y0057030D01*
X0233894Y0057002D01*
X0233743Y0056978D01*
X0233590Y0056958D01*
X0233438Y0056942D01*
X0233285Y0056930D01*
X0233132Y0056922D01*
X0232979Y0056918D01*
X0232825Y0056918D01*
X0232672Y0056922D01*
X0232519Y0056930D01*
X0232366Y0056942D01*
X0232214Y0056958D01*
X0232061Y0056978D01*
X0231910Y0057002D01*
X0231759Y0057030D01*
X0231609Y0057061D01*
X0231460Y0057097D01*
X0231312Y0057136D01*
X0231165Y0057179D01*
X0231019Y0057226D01*
X0230874Y0057277D01*
X0230731Y0057332D01*
X0230589Y0057390D01*
X0230449Y0057452D01*
X0230310Y0057517D01*
X0230173Y0057586D01*
X0230038Y0057659D01*
X0229905Y0057735D01*
X0229774Y0057815D01*
X0229645Y0057897D01*
X0229518Y0057984D01*
X0229393Y0058073D01*
X0229271Y0058166D01*
X0229152Y0058262D01*
X0229034Y0058361D01*
X0228920Y0058462D01*
X0228808Y0058567D01*
X0228699Y0058675D01*
X0228593Y0058786D01*
X0228489Y0058899D01*
X0228389Y0059015D01*
X0228291Y0059133D01*
X0228197Y0059254D01*
X0228106Y0059377D01*
X0228018Y0059503D01*
X0227934Y0059631D01*
X0227852Y0059761D01*
X0227775Y0059893D01*
X0227700Y0060027D01*
X0227629Y0060163D01*
X0227562Y0060301D01*
X0227498Y0060441D01*
X0227438Y0060582D01*
X0227382Y0060724D01*
X0227329Y0060868D01*
X0227280Y0061014D01*
X0227235Y0061160D01*
X0227194Y0061308D01*
X0227157Y0061456D01*
X0227123Y0061606D01*
X0227093Y0061757D01*
X0227068Y0061908D01*
X0227046Y0062059D01*
X0227028Y0062212D01*
X0227014Y0062364D01*
X0227004Y0062517D01*
X0226998Y0062671D01*
X0226996Y0062824D01*
X0226996Y0055540D02*
X0226998Y0055693D01*
X0227004Y0055847D01*
X0227014Y0056000D01*
X0227028Y0056152D01*
X0227046Y0056305D01*
X0227068Y0056456D01*
X0227093Y0056607D01*
X0227123Y0056758D01*
X0227157Y0056908D01*
X0227194Y0057056D01*
X0227235Y0057204D01*
X0227280Y0057350D01*
X0227329Y0057496D01*
X0227382Y0057640D01*
X0227438Y0057782D01*
X0227498Y0057923D01*
X0227562Y0058063D01*
X0227629Y0058201D01*
X0227700Y0058337D01*
X0227775Y0058471D01*
X0227852Y0058603D01*
X0227934Y0058733D01*
X0228018Y0058861D01*
X0228106Y0058987D01*
X0228197Y0059110D01*
X0228291Y0059231D01*
X0228389Y0059349D01*
X0228489Y0059465D01*
X0228593Y0059578D01*
X0228699Y0059689D01*
X0228808Y0059797D01*
X0228920Y0059902D01*
X0229034Y0060003D01*
X0229152Y0060102D01*
X0229271Y0060198D01*
X0229393Y0060291D01*
X0229518Y0060380D01*
X0229645Y0060467D01*
X0229774Y0060549D01*
X0229905Y0060629D01*
X0230038Y0060705D01*
X0230173Y0060778D01*
X0230310Y0060847D01*
X0230449Y0060912D01*
X0230589Y0060974D01*
X0230731Y0061032D01*
X0230874Y0061087D01*
X0231019Y0061138D01*
X0231165Y0061185D01*
X0231312Y0061228D01*
X0231460Y0061267D01*
X0231609Y0061303D01*
X0231759Y0061334D01*
X0231910Y0061362D01*
X0232061Y0061386D01*
X0232214Y0061406D01*
X0232366Y0061422D01*
X0232519Y0061434D01*
X0232672Y0061442D01*
X0232825Y0061446D01*
X0232979Y0061446D01*
X0233132Y0061442D01*
X0233285Y0061434D01*
X0233438Y0061422D01*
X0233590Y0061406D01*
X0233743Y0061386D01*
X0233894Y0061362D01*
X0234045Y0061334D01*
X0234195Y0061303D01*
X0234344Y0061267D01*
X0234492Y0061228D01*
X0234639Y0061185D01*
X0234785Y0061138D01*
X0234930Y0061087D01*
X0235073Y0061032D01*
X0235215Y0060974D01*
X0235355Y0060912D01*
X0235494Y0060847D01*
X0235631Y0060778D01*
X0235766Y0060705D01*
X0235899Y0060629D01*
X0236030Y0060549D01*
X0236159Y0060467D01*
X0236286Y0060380D01*
X0236411Y0060291D01*
X0236533Y0060198D01*
X0236652Y0060102D01*
X0236770Y0060003D01*
X0236884Y0059902D01*
X0236996Y0059797D01*
X0237105Y0059689D01*
X0237211Y0059578D01*
X0237315Y0059465D01*
X0237415Y0059349D01*
X0237513Y0059231D01*
X0237607Y0059110D01*
X0237698Y0058987D01*
X0237786Y0058861D01*
X0237870Y0058733D01*
X0237952Y0058603D01*
X0238029Y0058471D01*
X0238104Y0058337D01*
X0238175Y0058201D01*
X0238242Y0058063D01*
X0238306Y0057923D01*
X0238366Y0057782D01*
X0238422Y0057640D01*
X0238475Y0057496D01*
X0238524Y0057350D01*
X0238569Y0057204D01*
X0238610Y0057056D01*
X0238647Y0056908D01*
X0238681Y0056758D01*
X0238711Y0056607D01*
X0238736Y0056456D01*
X0238758Y0056305D01*
X0238776Y0056152D01*
X0238790Y0056000D01*
X0238800Y0055847D01*
X0238806Y0055693D01*
X0238808Y0055540D01*
X0238806Y0055387D01*
X0238800Y0055233D01*
X0238790Y0055080D01*
X0238776Y0054928D01*
X0238758Y0054775D01*
X0238736Y0054624D01*
X0238711Y0054473D01*
X0238681Y0054322D01*
X0238647Y0054172D01*
X0238610Y0054024D01*
X0238569Y0053876D01*
X0238524Y0053730D01*
X0238475Y0053584D01*
X0238422Y0053440D01*
X0238366Y0053298D01*
X0238306Y0053157D01*
X0238242Y0053017D01*
X0238175Y0052879D01*
X0238104Y0052743D01*
X0238029Y0052609D01*
X0237952Y0052477D01*
X0237870Y0052347D01*
X0237786Y0052219D01*
X0237698Y0052093D01*
X0237607Y0051970D01*
X0237513Y0051849D01*
X0237415Y0051731D01*
X0237315Y0051615D01*
X0237211Y0051502D01*
X0237105Y0051391D01*
X0236996Y0051283D01*
X0236884Y0051178D01*
X0236770Y0051077D01*
X0236652Y0050978D01*
X0236533Y0050882D01*
X0236411Y0050789D01*
X0236286Y0050700D01*
X0236159Y0050613D01*
X0236030Y0050531D01*
X0235899Y0050451D01*
X0235766Y0050375D01*
X0235631Y0050302D01*
X0235494Y0050233D01*
X0235355Y0050168D01*
X0235215Y0050106D01*
X0235073Y0050048D01*
X0234930Y0049993D01*
X0234785Y0049942D01*
X0234639Y0049895D01*
X0234492Y0049852D01*
X0234344Y0049813D01*
X0234195Y0049777D01*
X0234045Y0049746D01*
X0233894Y0049718D01*
X0233743Y0049694D01*
X0233590Y0049674D01*
X0233438Y0049658D01*
X0233285Y0049646D01*
X0233132Y0049638D01*
X0232979Y0049634D01*
X0232825Y0049634D01*
X0232672Y0049638D01*
X0232519Y0049646D01*
X0232366Y0049658D01*
X0232214Y0049674D01*
X0232061Y0049694D01*
X0231910Y0049718D01*
X0231759Y0049746D01*
X0231609Y0049777D01*
X0231460Y0049813D01*
X0231312Y0049852D01*
X0231165Y0049895D01*
X0231019Y0049942D01*
X0230874Y0049993D01*
X0230731Y0050048D01*
X0230589Y0050106D01*
X0230449Y0050168D01*
X0230310Y0050233D01*
X0230173Y0050302D01*
X0230038Y0050375D01*
X0229905Y0050451D01*
X0229774Y0050531D01*
X0229645Y0050613D01*
X0229518Y0050700D01*
X0229393Y0050789D01*
X0229271Y0050882D01*
X0229152Y0050978D01*
X0229034Y0051077D01*
X0228920Y0051178D01*
X0228808Y0051283D01*
X0228699Y0051391D01*
X0228593Y0051502D01*
X0228489Y0051615D01*
X0228389Y0051731D01*
X0228291Y0051849D01*
X0228197Y0051970D01*
X0228106Y0052093D01*
X0228018Y0052219D01*
X0227934Y0052347D01*
X0227852Y0052477D01*
X0227775Y0052609D01*
X0227700Y0052743D01*
X0227629Y0052879D01*
X0227562Y0053017D01*
X0227498Y0053157D01*
X0227438Y0053298D01*
X0227382Y0053440D01*
X0227329Y0053584D01*
X0227280Y0053730D01*
X0227235Y0053876D01*
X0227194Y0054024D01*
X0227157Y0054172D01*
X0227123Y0054322D01*
X0227093Y0054473D01*
X0227068Y0054624D01*
X0227046Y0054775D01*
X0227028Y0054928D01*
X0227014Y0055080D01*
X0227004Y0055233D01*
X0226998Y0055387D01*
X0226996Y0055540D01*
X0227193Y0048257D02*
X0227195Y0048410D01*
X0227201Y0048564D01*
X0227211Y0048717D01*
X0227225Y0048869D01*
X0227243Y0049022D01*
X0227265Y0049173D01*
X0227290Y0049324D01*
X0227320Y0049475D01*
X0227354Y0049625D01*
X0227391Y0049773D01*
X0227432Y0049921D01*
X0227477Y0050067D01*
X0227526Y0050213D01*
X0227579Y0050357D01*
X0227635Y0050499D01*
X0227695Y0050640D01*
X0227759Y0050780D01*
X0227826Y0050918D01*
X0227897Y0051054D01*
X0227972Y0051188D01*
X0228049Y0051320D01*
X0228131Y0051450D01*
X0228215Y0051578D01*
X0228303Y0051704D01*
X0228394Y0051827D01*
X0228488Y0051948D01*
X0228586Y0052066D01*
X0228686Y0052182D01*
X0228790Y0052295D01*
X0228896Y0052406D01*
X0229005Y0052514D01*
X0229117Y0052619D01*
X0229231Y0052720D01*
X0229349Y0052819D01*
X0229468Y0052915D01*
X0229590Y0053008D01*
X0229715Y0053097D01*
X0229842Y0053184D01*
X0229971Y0053266D01*
X0230102Y0053346D01*
X0230235Y0053422D01*
X0230370Y0053495D01*
X0230507Y0053564D01*
X0230646Y0053629D01*
X0230786Y0053691D01*
X0230928Y0053749D01*
X0231071Y0053804D01*
X0231216Y0053855D01*
X0231362Y0053902D01*
X0231509Y0053945D01*
X0231657Y0053984D01*
X0231806Y0054020D01*
X0231956Y0054051D01*
X0232107Y0054079D01*
X0232258Y0054103D01*
X0232411Y0054123D01*
X0232563Y0054139D01*
X0232716Y0054151D01*
X0232869Y0054159D01*
X0233022Y0054163D01*
X0233176Y0054163D01*
X0233329Y0054159D01*
X0233482Y0054151D01*
X0233635Y0054139D01*
X0233787Y0054123D01*
X0233940Y0054103D01*
X0234091Y0054079D01*
X0234242Y0054051D01*
X0234392Y0054020D01*
X0234541Y0053984D01*
X0234689Y0053945D01*
X0234836Y0053902D01*
X0234982Y0053855D01*
X0235127Y0053804D01*
X0235270Y0053749D01*
X0235412Y0053691D01*
X0235552Y0053629D01*
X0235691Y0053564D01*
X0235828Y0053495D01*
X0235963Y0053422D01*
X0236096Y0053346D01*
X0236227Y0053266D01*
X0236356Y0053184D01*
X0236483Y0053097D01*
X0236608Y0053008D01*
X0236730Y0052915D01*
X0236849Y0052819D01*
X0236967Y0052720D01*
X0237081Y0052619D01*
X0237193Y0052514D01*
X0237302Y0052406D01*
X0237408Y0052295D01*
X0237512Y0052182D01*
X0237612Y0052066D01*
X0237710Y0051948D01*
X0237804Y0051827D01*
X0237895Y0051704D01*
X0237983Y0051578D01*
X0238067Y0051450D01*
X0238149Y0051320D01*
X0238226Y0051188D01*
X0238301Y0051054D01*
X0238372Y0050918D01*
X0238439Y0050780D01*
X0238503Y0050640D01*
X0238563Y0050499D01*
X0238619Y0050357D01*
X0238672Y0050213D01*
X0238721Y0050067D01*
X0238766Y0049921D01*
X0238807Y0049773D01*
X0238844Y0049625D01*
X0238878Y0049475D01*
X0238908Y0049324D01*
X0238933Y0049173D01*
X0238955Y0049022D01*
X0238973Y0048869D01*
X0238987Y0048717D01*
X0238997Y0048564D01*
X0239003Y0048410D01*
X0239005Y0048257D01*
X0239003Y0048104D01*
X0238997Y0047950D01*
X0238987Y0047797D01*
X0238973Y0047645D01*
X0238955Y0047492D01*
X0238933Y0047341D01*
X0238908Y0047190D01*
X0238878Y0047039D01*
X0238844Y0046889D01*
X0238807Y0046741D01*
X0238766Y0046593D01*
X0238721Y0046447D01*
X0238672Y0046301D01*
X0238619Y0046157D01*
X0238563Y0046015D01*
X0238503Y0045874D01*
X0238439Y0045734D01*
X0238372Y0045596D01*
X0238301Y0045460D01*
X0238226Y0045326D01*
X0238149Y0045194D01*
X0238067Y0045064D01*
X0237983Y0044936D01*
X0237895Y0044810D01*
X0237804Y0044687D01*
X0237710Y0044566D01*
X0237612Y0044448D01*
X0237512Y0044332D01*
X0237408Y0044219D01*
X0237302Y0044108D01*
X0237193Y0044000D01*
X0237081Y0043895D01*
X0236967Y0043794D01*
X0236849Y0043695D01*
X0236730Y0043599D01*
X0236608Y0043506D01*
X0236483Y0043417D01*
X0236356Y0043330D01*
X0236227Y0043248D01*
X0236096Y0043168D01*
X0235963Y0043092D01*
X0235828Y0043019D01*
X0235691Y0042950D01*
X0235552Y0042885D01*
X0235412Y0042823D01*
X0235270Y0042765D01*
X0235127Y0042710D01*
X0234982Y0042659D01*
X0234836Y0042612D01*
X0234689Y0042569D01*
X0234541Y0042530D01*
X0234392Y0042494D01*
X0234242Y0042463D01*
X0234091Y0042435D01*
X0233940Y0042411D01*
X0233787Y0042391D01*
X0233635Y0042375D01*
X0233482Y0042363D01*
X0233329Y0042355D01*
X0233176Y0042351D01*
X0233022Y0042351D01*
X0232869Y0042355D01*
X0232716Y0042363D01*
X0232563Y0042375D01*
X0232411Y0042391D01*
X0232258Y0042411D01*
X0232107Y0042435D01*
X0231956Y0042463D01*
X0231806Y0042494D01*
X0231657Y0042530D01*
X0231509Y0042569D01*
X0231362Y0042612D01*
X0231216Y0042659D01*
X0231071Y0042710D01*
X0230928Y0042765D01*
X0230786Y0042823D01*
X0230646Y0042885D01*
X0230507Y0042950D01*
X0230370Y0043019D01*
X0230235Y0043092D01*
X0230102Y0043168D01*
X0229971Y0043248D01*
X0229842Y0043330D01*
X0229715Y0043417D01*
X0229590Y0043506D01*
X0229468Y0043599D01*
X0229349Y0043695D01*
X0229231Y0043794D01*
X0229117Y0043895D01*
X0229005Y0044000D01*
X0228896Y0044108D01*
X0228790Y0044219D01*
X0228686Y0044332D01*
X0228586Y0044448D01*
X0228488Y0044566D01*
X0228394Y0044687D01*
X0228303Y0044810D01*
X0228215Y0044936D01*
X0228131Y0045064D01*
X0228049Y0045194D01*
X0227972Y0045326D01*
X0227897Y0045460D01*
X0227826Y0045596D01*
X0227759Y0045734D01*
X0227695Y0045874D01*
X0227635Y0046015D01*
X0227579Y0046157D01*
X0227526Y0046301D01*
X0227477Y0046447D01*
X0227432Y0046593D01*
X0227391Y0046741D01*
X0227354Y0046889D01*
X0227320Y0047039D01*
X0227290Y0047190D01*
X0227265Y0047341D01*
X0227243Y0047492D01*
X0227225Y0047645D01*
X0227211Y0047797D01*
X0227201Y0047950D01*
X0227195Y0048104D01*
X0227193Y0048257D01*
D11*
X0228292Y0016289D02*
X0228292Y0011685D01*
X0226757Y0011685D02*
X0223688Y0011685D01*
X0223688Y0016289D01*
X0223151Y0016289D02*
X0223918Y0015522D01*
X0223918Y0012453D01*
X0223151Y0011685D01*
X0221616Y0011685D01*
X0220849Y0012453D01*
X0220849Y0015522D01*
X0221616Y0016289D01*
X0223151Y0016289D01*
X0222153Y0015522D02*
X0221386Y0016289D01*
X0219851Y0016289D01*
X0219084Y0015522D01*
X0219084Y0012453D01*
X0219851Y0011685D01*
X0221386Y0011685D01*
X0222153Y0012453D01*
X0219315Y0011685D02*
X0217780Y0011685D01*
X0218547Y0011685D02*
X0218547Y0016289D01*
X0217780Y0016289D02*
X0219315Y0016289D01*
X0217549Y0015522D02*
X0216782Y0016289D01*
X0215247Y0016289D01*
X0214480Y0015522D01*
X0214480Y0014755D01*
X0215247Y0013987D01*
X0216782Y0013987D01*
X0217549Y0013220D01*
X0217549Y0012453D01*
X0216782Y0011685D01*
X0215247Y0011685D01*
X0214480Y0012453D01*
X0215478Y0011685D02*
X0216245Y0012453D01*
X0216245Y0015522D01*
X0215478Y0016289D01*
X0213176Y0016289D01*
X0213176Y0011685D01*
X0215478Y0011685D01*
X0211641Y0011685D02*
X0211641Y0016289D01*
X0208572Y0016289D02*
X0208572Y0011685D01*
X0210107Y0013220D01*
X0211641Y0011685D01*
X0207327Y0011685D02*
X0204257Y0011685D01*
X0204735Y0011685D02*
X0203968Y0012453D01*
X0204735Y0011685D02*
X0206270Y0011685D01*
X0207037Y0012453D01*
X0207037Y0013220D01*
X0206270Y0013987D01*
X0204735Y0013987D01*
X0203968Y0014755D01*
X0203968Y0015522D01*
X0204735Y0016289D01*
X0206270Y0016289D01*
X0207037Y0015522D01*
X0205792Y0016289D02*
X0205792Y0011685D01*
X0202723Y0012453D02*
X0201955Y0011685D01*
X0200421Y0011685D01*
X0199654Y0012453D01*
X0202723Y0015522D01*
X0202723Y0012453D01*
X0199654Y0012453D02*
X0199654Y0015522D01*
X0200421Y0016289D01*
X0201955Y0016289D01*
X0202723Y0015522D01*
X0204257Y0014755D02*
X0205792Y0016289D01*
X0198119Y0012453D02*
X0198119Y0011685D01*
X0197352Y0011685D01*
X0197352Y0012453D01*
X0198119Y0012453D01*
X0195817Y0013987D02*
X0195050Y0013220D01*
X0192748Y0013220D01*
X0193665Y0012453D02*
X0192898Y0011685D01*
X0191363Y0011685D01*
X0190596Y0012453D01*
X0193665Y0015522D01*
X0193665Y0012453D01*
X0192748Y0011685D02*
X0192748Y0016289D01*
X0195050Y0016289D01*
X0195817Y0015522D01*
X0195817Y0013987D01*
X0193665Y0015522D02*
X0192898Y0016289D01*
X0191363Y0016289D01*
X0190596Y0015522D01*
X0190596Y0012453D01*
X0189061Y0012453D02*
X0188294Y0011685D01*
X0186759Y0011685D01*
X0185992Y0012453D01*
X0189061Y0015522D01*
X0189061Y0012453D01*
X0185992Y0012453D02*
X0185992Y0015522D01*
X0186759Y0016289D01*
X0188294Y0016289D01*
X0189061Y0015522D01*
X0184457Y0012453D02*
X0184457Y0011685D01*
X0183690Y0011685D01*
X0183690Y0012453D01*
X0184457Y0012453D01*
X0182155Y0013987D02*
X0181388Y0013220D01*
X0179086Y0013220D01*
X0180261Y0012453D02*
X0180261Y0015522D01*
X0179494Y0016289D01*
X0177192Y0016289D01*
X0177192Y0011685D01*
X0179494Y0011685D01*
X0180261Y0012453D01*
X0179086Y0011685D02*
X0179086Y0016289D01*
X0181388Y0016289D01*
X0182155Y0015522D01*
X0182155Y0013987D01*
X0175657Y0012453D02*
X0175657Y0015522D01*
X0174890Y0016289D01*
X0172588Y0016289D01*
X0172588Y0011685D01*
X0174890Y0011685D01*
X0175657Y0012453D01*
X0171053Y0013220D02*
X0171053Y0016289D01*
X0171053Y0013220D02*
X0169518Y0011685D01*
X0167984Y0013220D01*
X0167984Y0016289D01*
X0167781Y0015522D02*
X0167013Y0016289D01*
X0164711Y0016289D01*
X0164711Y0011685D01*
X0167013Y0011685D01*
X0167781Y0012453D01*
X0167781Y0015522D01*
X0163177Y0016289D02*
X0163177Y0011685D01*
X0160107Y0016289D01*
X0160107Y0011685D01*
X0158573Y0012453D02*
X0158573Y0013987D01*
X0157038Y0013987D01*
X0155504Y0012453D02*
X0156271Y0011685D01*
X0157805Y0011685D01*
X0158573Y0012453D01*
X0158573Y0015522D02*
X0157805Y0016289D01*
X0156271Y0016289D01*
X0155504Y0015522D01*
X0155504Y0012453D01*
X0087781Y0020996D02*
X0087781Y0024065D01*
X0087014Y0024832D01*
X0084712Y0024832D01*
X0084712Y0020228D01*
X0087014Y0020228D01*
X0087781Y0020996D01*
X0083177Y0020228D02*
X0083177Y0024832D01*
X0080108Y0024832D02*
X0083177Y0020228D01*
X0080108Y0020228D02*
X0080108Y0024832D01*
X0078573Y0024065D02*
X0077806Y0024832D01*
X0076271Y0024832D01*
X0075504Y0024065D01*
X0075504Y0020996D01*
X0076271Y0020228D01*
X0077806Y0020228D01*
X0078573Y0020996D01*
X0078573Y0022530D01*
X0077039Y0022530D01*
X0126761Y0059460D02*
X0127529Y0058693D01*
X0129063Y0058693D01*
X0129831Y0059460D01*
X0129831Y0060228D01*
X0129063Y0060995D01*
X0128296Y0060995D01*
X0129063Y0060995D02*
X0129831Y0061762D01*
X0129831Y0062530D01*
X0129063Y0063297D01*
X0127529Y0063297D01*
X0126761Y0062530D01*
X0125227Y0060995D02*
X0122157Y0060995D01*
X0123692Y0062530D02*
X0123692Y0059460D01*
X0131365Y0059460D02*
X0131365Y0058693D01*
X0132133Y0058693D01*
X0132133Y0059460D01*
X0131365Y0059460D01*
X0133667Y0059460D02*
X0134435Y0058693D01*
X0135969Y0058693D01*
X0136737Y0059460D01*
X0136737Y0060228D01*
X0135969Y0060995D01*
X0135202Y0060995D01*
X0135969Y0060995D02*
X0136737Y0061762D01*
X0136737Y0062530D01*
X0135969Y0063297D01*
X0134435Y0063297D01*
X0133667Y0062530D01*
X0138271Y0063297D02*
X0138271Y0060228D01*
X0139806Y0058693D01*
X0141340Y0060228D01*
X0141340Y0063297D01*
X0228292Y0013220D02*
X0231361Y0016289D01*
X0229059Y0013987D02*
X0231361Y0011685D01*
X0041931Y0061409D02*
X0040396Y0059874D01*
X0038862Y0061409D01*
X0038862Y0064478D01*
X0037327Y0063711D02*
X0037327Y0062943D01*
X0036560Y0062176D01*
X0037327Y0061409D01*
X0037327Y0060641D01*
X0036560Y0059874D01*
X0035025Y0059874D01*
X0034258Y0060641D01*
X0032723Y0060641D02*
X0032723Y0059874D01*
X0031956Y0059874D01*
X0031956Y0060641D01*
X0032723Y0060641D01*
X0030421Y0060641D02*
X0030421Y0061409D01*
X0029654Y0062176D01*
X0028887Y0062176D01*
X0029654Y0062176D02*
X0030421Y0062943D01*
X0030421Y0063711D01*
X0029654Y0064478D01*
X0028119Y0064478D01*
X0027352Y0063711D01*
X0025817Y0062176D02*
X0022748Y0062176D01*
X0024283Y0063711D02*
X0024283Y0060641D01*
X0027352Y0060641D02*
X0028119Y0059874D01*
X0029654Y0059874D01*
X0030421Y0060641D01*
X0035792Y0062176D02*
X0036560Y0062176D01*
X0037327Y0063711D02*
X0036560Y0064478D01*
X0035025Y0064478D01*
X0034258Y0063711D01*
X0041931Y0064478D02*
X0041931Y0061409D01*
D12*
X0041446Y0047981D02*
X0041458Y0048947D01*
X0041493Y0049913D01*
X0041553Y0050877D01*
X0041636Y0051840D01*
X0041742Y0052800D01*
X0041872Y0053758D01*
X0042026Y0054712D01*
X0042202Y0055662D01*
X0042403Y0056607D01*
X0042626Y0057547D01*
X0042872Y0058481D01*
X0043141Y0059410D01*
X0043433Y0060331D01*
X0043747Y0061244D01*
X0044084Y0062150D01*
X0044443Y0063047D01*
X0044824Y0063935D01*
X0045226Y0064814D01*
X0045650Y0065682D01*
X0046095Y0066540D01*
X0046561Y0067386D01*
X0047047Y0068221D01*
X0047554Y0069044D01*
X0048081Y0069854D01*
X0048628Y0070651D01*
X0049194Y0071434D01*
X0049779Y0072203D01*
X0050383Y0072957D01*
X0051005Y0073696D01*
X0051645Y0074420D01*
X0052302Y0075128D01*
X0052977Y0075820D01*
X0053669Y0076495D01*
X0054377Y0077152D01*
X0055101Y0077792D01*
X0055840Y0078414D01*
X0056594Y0079018D01*
X0057363Y0079603D01*
X0058146Y0080169D01*
X0058943Y0080716D01*
X0059753Y0081243D01*
X0060576Y0081750D01*
X0061411Y0082236D01*
X0062257Y0082702D01*
X0063115Y0083147D01*
X0063983Y0083571D01*
X0064862Y0083973D01*
X0065750Y0084354D01*
X0066647Y0084713D01*
X0067553Y0085050D01*
X0068466Y0085364D01*
X0069387Y0085656D01*
X0070316Y0085925D01*
X0071250Y0086171D01*
X0072190Y0086394D01*
X0073135Y0086595D01*
X0074085Y0086771D01*
X0075039Y0086925D01*
X0075997Y0087055D01*
X0076957Y0087161D01*
X0077920Y0087244D01*
X0078884Y0087304D01*
X0079850Y0087339D01*
X0080816Y0087351D01*
X0081782Y0087339D01*
X0082748Y0087304D01*
X0083712Y0087244D01*
X0084675Y0087161D01*
X0085635Y0087055D01*
X0086593Y0086925D01*
X0087547Y0086771D01*
X0088497Y0086595D01*
X0089442Y0086394D01*
X0090382Y0086171D01*
X0091316Y0085925D01*
X0092245Y0085656D01*
X0093166Y0085364D01*
X0094079Y0085050D01*
X0094985Y0084713D01*
X0095882Y0084354D01*
X0096770Y0083973D01*
X0097649Y0083571D01*
X0098517Y0083147D01*
X0099375Y0082702D01*
X0100221Y0082236D01*
X0101056Y0081750D01*
X0101879Y0081243D01*
X0102689Y0080716D01*
X0103486Y0080169D01*
X0104269Y0079603D01*
X0105038Y0079018D01*
X0105792Y0078414D01*
X0106531Y0077792D01*
X0107255Y0077152D01*
X0107963Y0076495D01*
X0108655Y0075820D01*
X0109330Y0075128D01*
X0109987Y0074420D01*
X0110627Y0073696D01*
X0111249Y0072957D01*
X0111853Y0072203D01*
X0112438Y0071434D01*
X0113004Y0070651D01*
X0113551Y0069854D01*
X0114078Y0069044D01*
X0114585Y0068221D01*
X0115071Y0067386D01*
X0115537Y0066540D01*
X0115982Y0065682D01*
X0116406Y0064814D01*
X0116808Y0063935D01*
X0117189Y0063047D01*
X0117548Y0062150D01*
X0117885Y0061244D01*
X0118199Y0060331D01*
X0118491Y0059410D01*
X0118760Y0058481D01*
X0119006Y0057547D01*
X0119229Y0056607D01*
X0119430Y0055662D01*
X0119606Y0054712D01*
X0119760Y0053758D01*
X0119890Y0052800D01*
X0119996Y0051840D01*
X0120079Y0050877D01*
X0120139Y0049913D01*
X0120174Y0048947D01*
X0120186Y0047981D01*
X0120174Y0047015D01*
X0120139Y0046049D01*
X0120079Y0045085D01*
X0119996Y0044122D01*
X0119890Y0043162D01*
X0119760Y0042204D01*
X0119606Y0041250D01*
X0119430Y0040300D01*
X0119229Y0039355D01*
X0119006Y0038415D01*
X0118760Y0037481D01*
X0118491Y0036552D01*
X0118199Y0035631D01*
X0117885Y0034718D01*
X0117548Y0033812D01*
X0117189Y0032915D01*
X0116808Y0032027D01*
X0116406Y0031148D01*
X0115982Y0030280D01*
X0115537Y0029422D01*
X0115071Y0028576D01*
X0114585Y0027741D01*
X0114078Y0026918D01*
X0113551Y0026108D01*
X0113004Y0025311D01*
X0112438Y0024528D01*
X0111853Y0023759D01*
X0111249Y0023005D01*
X0110627Y0022266D01*
X0109987Y0021542D01*
X0109330Y0020834D01*
X0108655Y0020142D01*
X0107963Y0019467D01*
X0107255Y0018810D01*
X0106531Y0018170D01*
X0105792Y0017548D01*
X0105038Y0016944D01*
X0104269Y0016359D01*
X0103486Y0015793D01*
X0102689Y0015246D01*
X0101879Y0014719D01*
X0101056Y0014212D01*
X0100221Y0013726D01*
X0099375Y0013260D01*
X0098517Y0012815D01*
X0097649Y0012391D01*
X0096770Y0011989D01*
X0095882Y0011608D01*
X0094985Y0011249D01*
X0094079Y0010912D01*
X0093166Y0010598D01*
X0092245Y0010306D01*
X0091316Y0010037D01*
X0090382Y0009791D01*
X0089442Y0009568D01*
X0088497Y0009367D01*
X0087547Y0009191D01*
X0086593Y0009037D01*
X0085635Y0008907D01*
X0084675Y0008801D01*
X0083712Y0008718D01*
X0082748Y0008658D01*
X0081782Y0008623D01*
X0080816Y0008611D01*
X0079850Y0008623D01*
X0078884Y0008658D01*
X0077920Y0008718D01*
X0076957Y0008801D01*
X0075997Y0008907D01*
X0075039Y0009037D01*
X0074085Y0009191D01*
X0073135Y0009367D01*
X0072190Y0009568D01*
X0071250Y0009791D01*
X0070316Y0010037D01*
X0069387Y0010306D01*
X0068466Y0010598D01*
X0067553Y0010912D01*
X0066647Y0011249D01*
X0065750Y0011608D01*
X0064862Y0011989D01*
X0063983Y0012391D01*
X0063115Y0012815D01*
X0062257Y0013260D01*
X0061411Y0013726D01*
X0060576Y0014212D01*
X0059753Y0014719D01*
X0058943Y0015246D01*
X0058146Y0015793D01*
X0057363Y0016359D01*
X0056594Y0016944D01*
X0055840Y0017548D01*
X0055101Y0018170D01*
X0054377Y0018810D01*
X0053669Y0019467D01*
X0052977Y0020142D01*
X0052302Y0020834D01*
X0051645Y0021542D01*
X0051005Y0022266D01*
X0050383Y0023005D01*
X0049779Y0023759D01*
X0049194Y0024528D01*
X0048628Y0025311D01*
X0048081Y0026108D01*
X0047554Y0026918D01*
X0047047Y0027741D01*
X0046561Y0028576D01*
X0046095Y0029422D01*
X0045650Y0030280D01*
X0045226Y0031148D01*
X0044824Y0032027D01*
X0044443Y0032915D01*
X0044084Y0033812D01*
X0043747Y0034718D01*
X0043433Y0035631D01*
X0043141Y0036552D01*
X0042872Y0037481D01*
X0042626Y0038415D01*
X0042403Y0039355D01*
X0042202Y0040300D01*
X0042026Y0041250D01*
X0041872Y0042204D01*
X0041742Y0043162D01*
X0041636Y0044122D01*
X0041553Y0045085D01*
X0041493Y0046049D01*
X0041458Y0047015D01*
X0041446Y0047981D01*
X0125580Y0067233D02*
X0125580Y0094595D01*
X0131879Y0094595D01*
X0131879Y0067233D01*
X0125580Y0067233D01*
X0150737Y0039202D02*
X0209792Y0039202D01*
X0209792Y0117942D01*
X0150737Y0117942D01*
X0150737Y0039202D01*
X0074831Y0115383D02*
X0069713Y0115383D01*
X0069713Y0127981D01*
X0074831Y0127981D01*
X0074831Y0115383D01*
X0049950Y0117194D02*
X0035776Y0117194D01*
X0035776Y0127430D01*
X0049950Y0127430D01*
X0049950Y0117194D01*
M02*
