G75*
%MOIN*%
%OFA0B0*%
%FSLAX25Y25*%
%IPPOS*%
%LPD*%
%AMOC8*
5,1,8,0,0,1.08239X$1,22.5*
%
%ADD10C,0.12611*%
%ADD11R,0.04343X0.04343*%
%ADD12R,0.08674X0.12611*%
%ADD13C,0.40170*%
%ADD14R,0.12611X0.12611*%
%ADD15R,0.12611X0.02769*%
%ADD16R,0.02769X0.12611*%
%ADD17R,0.06706X0.03359*%
%ADD18R,0.03400X0.05800*%
%ADD19C,0.04762*%
%ADD20C,0.04800*%
D10*
X0019123Y0047469D03*
X0018926Y0055540D03*
X0018729Y0063020D03*
X0019123Y0070501D03*
X0019713Y0078178D03*
X0019713Y0085265D03*
X0019713Y0093139D03*
X0128769Y0080934D03*
X0232902Y0077981D03*
X0232902Y0085461D03*
X0232706Y0093139D03*
X0232902Y0070107D03*
X0232902Y0062824D03*
X0232902Y0055540D03*
X0233099Y0048257D03*
D11*
X0216052Y0009517D03*
X0205540Y0009517D03*
X0194320Y0009517D03*
X0180658Y0009517D03*
X0169556Y0009517D03*
X0157076Y0009517D03*
D12*
X0128729Y0064871D03*
X0128729Y0097351D03*
D13*
X0081013Y0047784D03*
D14*
X0121367Y0048178D03*
X0040068Y0048375D03*
D15*
X0148769Y0047863D03*
X0148769Y0052194D03*
X0148769Y0056524D03*
X0148769Y0060855D03*
X0148769Y0065186D03*
X0148769Y0069517D03*
X0148769Y0073847D03*
X0148769Y0078178D03*
X0148769Y0082509D03*
X0148769Y0086839D03*
X0148769Y0091170D03*
X0148769Y0095501D03*
X0211761Y0095501D03*
X0211761Y0091170D03*
X0211761Y0086839D03*
X0211761Y0082509D03*
X0211761Y0078178D03*
X0211761Y0073847D03*
X0211761Y0069517D03*
X0211761Y0065186D03*
X0211761Y0060855D03*
X0211761Y0056524D03*
X0211761Y0052194D03*
X0211761Y0047863D03*
D16*
X0204083Y0037233D03*
X0199753Y0037233D03*
X0195422Y0037233D03*
X0191091Y0037233D03*
X0186761Y0037233D03*
X0182430Y0037233D03*
X0178099Y0037233D03*
X0173769Y0037233D03*
X0169438Y0037233D03*
X0165107Y0037233D03*
X0160776Y0037233D03*
X0156446Y0037233D03*
D17*
X0049950Y0117194D03*
X0035776Y0117194D03*
X0035776Y0127430D03*
X0049950Y0127233D03*
D18*
X0069320Y0128769D03*
X0075225Y0128769D03*
X0075225Y0114595D03*
X0069320Y0114595D03*
D19*
X0074831Y0086839D03*
X0075816Y0078375D03*
X0141367Y0099044D03*
X0162824Y0112233D03*
X0190973Y0102391D03*
X0201209Y0102194D03*
X0166367Y0080737D03*
X0165776Y0061446D03*
X0142745Y0043532D03*
X0160658Y0027981D03*
X0165776Y0027981D03*
X0155540Y0024241D03*
X0174635Y0009477D03*
X0187666Y0009517D03*
X0195894Y0025028D03*
X0096485Y0027391D03*
D20*
X0119347Y0022595D03*
X0127072Y0021308D03*
X0109048Y0013583D03*
X0151532Y0039331D03*
X0174706Y0050918D03*
X0201741Y0067654D03*
X0186292Y0075379D03*
X0157969Y0071517D03*
X0136083Y0068942D03*
X0093599Y0086965D03*
X0129646Y0106276D03*
X0121922Y0107564D03*
X0093599Y0129450D03*
X0047253Y0103702D03*
X0215902Y0018733D03*
M02*
