G75*
%MOIN*%
%OFA0B0*%
%FSLAX25Y25*%
%IPPOS*%
%LPD*%
%AMOC8*
5,1,8,0,0,1.08239X$1,22.5*
%
%ADD10R,0.05906X0.05118*%
%ADD11R,0.06693X0.07087*%
%ADD12R,0.06299X0.05118*%
%ADD13R,0.03937X0.03937*%
%ADD14R,0.03543X0.01378*%
%ADD15R,0.11811X0.11811*%
%ADD16R,0.08700X0.02400*%
%ADD17R,0.02398X0.02398*%
%ADD18C,0.01575*%
%ADD19C,0.01600*%
%ADD20C,0.03962*%
%ADD21C,0.01000*%
%ADD22C,0.04000*%
D10*
X0084753Y0090225D03*
X0084753Y0097706D03*
X0062115Y0098493D03*
X0062115Y0091013D03*
X0061761Y0114950D03*
X0061761Y0122430D03*
X0174162Y0122627D03*
X0174162Y0115146D03*
X0196367Y0082154D03*
X0196367Y0074674D03*
D11*
X0203493Y0046918D03*
X0203493Y0030776D03*
D12*
X0133769Y0021328D03*
X0133769Y0013847D03*
X0129044Y0114950D03*
X0129044Y0122430D03*
X0151091Y0122706D03*
X0151091Y0115225D03*
X0106800Y0115068D03*
X0106800Y0122548D03*
X0084556Y0122469D03*
X0084556Y0114989D03*
X0196406Y0114635D03*
X0196406Y0122115D03*
D13*
X0111485Y0085540D03*
X0104398Y0085737D03*
X0104398Y0078454D03*
X0111485Y0078257D03*
D14*
X0159300Y0064989D03*
X0159300Y0062430D03*
X0159300Y0059871D03*
X0159300Y0057312D03*
X0159300Y0054753D03*
X0159300Y0052194D03*
X0159300Y0049635D03*
X0181938Y0049635D03*
X0181938Y0052194D03*
X0181938Y0054753D03*
X0181938Y0057312D03*
X0181938Y0059871D03*
X0181938Y0062430D03*
X0181938Y0064989D03*
D15*
X0121367Y0048178D03*
X0040068Y0048375D03*
D16*
X0057051Y0034497D03*
X0057051Y0029497D03*
X0057051Y0024497D03*
X0057051Y0019497D03*
X0077651Y0019497D03*
X0077651Y0024497D03*
X0077651Y0029497D03*
X0077651Y0034497D03*
D17*
X0083162Y0034485D03*
X0085520Y0034485D03*
X0085544Y0029501D03*
X0083162Y0029501D03*
X0083162Y0024493D03*
X0085544Y0024493D03*
X0085544Y0019509D03*
X0083162Y0019509D03*
X0051517Y0019501D03*
X0049127Y0019501D03*
X0049162Y0024493D03*
X0051544Y0024493D03*
X0051544Y0029501D03*
X0049178Y0029501D03*
X0049194Y0034493D03*
X0051544Y0034493D03*
D18*
X0056265Y0035469D02*
X0056265Y0038044D01*
X0045965Y0048343D01*
X0040816Y0048343D01*
X0040068Y0048375D01*
X0056265Y0035469D02*
X0057051Y0034497D01*
X0057552Y0034182D01*
X0057552Y0030320D01*
X0057051Y0029497D01*
X0057552Y0029032D01*
X0061414Y0029032D01*
X0065276Y0025170D01*
X0076863Y0025170D01*
X0077651Y0024497D01*
X0076863Y0029032D02*
X0070426Y0029032D01*
X0066564Y0032894D01*
X0066564Y0066367D01*
X0047253Y0085678D01*
X0047253Y0103702D01*
X0053690Y0095977D02*
X0056265Y0098552D01*
X0061414Y0098552D01*
X0062115Y0098493D01*
X0053690Y0095977D02*
X0053690Y0086965D01*
X0057552Y0083103D01*
X0101324Y0083103D01*
X0103898Y0085678D01*
X0104398Y0085737D01*
X0103898Y0086965D01*
X0103898Y0107564D01*
X0106473Y0110139D01*
X0106473Y0114001D01*
X0106800Y0115068D01*
X0093599Y0123013D02*
X0084587Y0123013D01*
X0084556Y0122469D01*
X0083300Y0123013D01*
X0062702Y0123013D01*
X0061761Y0122430D01*
X0056265Y0129450D02*
X0051115Y0124300D01*
X0051115Y0085678D01*
X0078150Y0058643D01*
X0078150Y0035469D01*
X0077651Y0034497D01*
X0077651Y0029497D02*
X0076863Y0029032D01*
X0069139Y0016158D02*
X0061414Y0023883D01*
X0057552Y0023883D01*
X0057051Y0024497D01*
X0057051Y0019497D02*
X0057552Y0018733D01*
X0057552Y0016158D01*
X0060127Y0013583D01*
X0102611Y0013583D01*
X0109048Y0013583D02*
X0109083Y0006712D01*
X0087162Y0016158D02*
X0069139Y0016158D01*
X0105186Y0034182D02*
X0105186Y0050918D01*
X0116772Y0062505D01*
X0129646Y0062505D01*
X0136083Y0068942D01*
X0148957Y0076666D02*
X0159257Y0076666D01*
X0165694Y0070229D01*
X0157969Y0071517D02*
X0156682Y0071517D01*
X0152820Y0067654D01*
X0152820Y0061217D01*
X0159300Y0057312D02*
X0160544Y0057355D01*
X0161831Y0057355D01*
X0160544Y0052206D02*
X0159300Y0052194D01*
X0160544Y0052206D02*
X0163119Y0052206D01*
X0165694Y0049631D01*
X0165694Y0047056D01*
X0139946Y0021308D01*
X0134796Y0021308D01*
X0133769Y0021328D01*
X0133509Y0021308D01*
X0127072Y0021308D01*
X0121922Y0022595D02*
X0138658Y0039331D01*
X0151532Y0039331D01*
X0174706Y0050918D02*
X0174706Y0065080D01*
X0160544Y0079241D01*
X0150245Y0079241D01*
X0151532Y0110139D02*
X0186292Y0075379D01*
X0195304Y0075379D01*
X0196367Y0074674D01*
X0196591Y0074091D01*
X0196591Y0053493D01*
X0195304Y0052206D01*
X0195304Y0030320D01*
X0196591Y0029032D01*
X0200454Y0032894D01*
X0201741Y0032894D01*
X0203028Y0031607D01*
X0203493Y0030776D01*
X0212040Y0025170D02*
X0212040Y0043194D01*
X0209465Y0045769D01*
X0204316Y0045769D01*
X0203493Y0046918D01*
X0215902Y0053493D02*
X0201741Y0067654D01*
X0215902Y0053493D02*
X0215902Y0018733D01*
X0121922Y0022595D02*
X0119347Y0022595D01*
X0103898Y0064989D02*
X0103898Y0077954D01*
X0104398Y0078454D01*
X0111623Y0084391D02*
X0111485Y0085540D01*
X0093599Y0086965D02*
X0093599Y0101127D01*
X0084587Y0110139D01*
X0084587Y0114001D01*
X0084556Y0114989D01*
X0093599Y0123013D02*
X0101324Y0130737D01*
X0200454Y0130737D01*
X0204316Y0126875D01*
X0204316Y0110139D01*
X0196406Y0122115D02*
X0195304Y0121725D01*
X0181143Y0121725D01*
X0179855Y0123013D01*
X0174706Y0123013D01*
X0174162Y0122627D01*
X0173418Y0123013D01*
X0159477Y0123013D01*
X0151532Y0123013D01*
X0151091Y0122706D01*
X0151091Y0115225D02*
X0151532Y0114001D01*
X0151532Y0110139D01*
X0129646Y0106276D02*
X0129646Y0114001D01*
X0129044Y0114950D01*
X0093599Y0129450D02*
X0056265Y0129450D01*
X0061761Y0114950D02*
X0062702Y0114001D01*
X0062702Y0108851D01*
X0065276Y0106276D01*
X0062115Y0091013D02*
X0062702Y0090828D01*
X0069910Y0090828D01*
X0084587Y0090828D01*
X0084753Y0090225D01*
X0174162Y0115146D02*
X0174706Y0115288D01*
X0183717Y0115288D01*
D19*
X0006804Y0134595D02*
X0006987Y0006793D01*
X0107902Y0006713D01*
X0107902Y0015052D01*
X0104229Y0011379D01*
X0103274Y0010983D01*
X0102094Y0010983D01*
X0102063Y0010996D01*
X0059612Y0010996D01*
X0058661Y0011390D01*
X0057933Y0012118D01*
X0055358Y0014693D01*
X0054965Y0015644D01*
X0054965Y0016497D01*
X0051956Y0016497D01*
X0051950Y0016502D01*
X0047182Y0016502D01*
X0046128Y0017556D01*
X0046128Y0021445D01*
X0046697Y0022015D01*
X0046163Y0022548D01*
X0046163Y0026437D01*
X0046731Y0027005D01*
X0046179Y0027556D01*
X0046179Y0031445D01*
X0046739Y0032005D01*
X0046195Y0032548D01*
X0046195Y0036437D01*
X0047249Y0037492D01*
X0051950Y0037492D01*
X0051956Y0037497D01*
X0053153Y0037497D01*
X0047773Y0042876D01*
X0047773Y0041724D01*
X0046719Y0040669D01*
X0033417Y0040669D01*
X0032362Y0041724D01*
X0032362Y0055026D01*
X0033417Y0056080D01*
X0046719Y0056080D01*
X0047773Y0055026D01*
X0047773Y0050195D01*
X0048159Y0049809D01*
X0058458Y0039510D01*
X0058852Y0038559D01*
X0058852Y0037497D01*
X0062147Y0037497D01*
X0063201Y0036442D01*
X0063201Y0032551D01*
X0062647Y0031997D01*
X0063201Y0031442D01*
X0063201Y0030904D01*
X0063608Y0030498D01*
X0066348Y0027757D01*
X0068042Y0027757D01*
X0065098Y0030701D01*
X0064370Y0031429D01*
X0063976Y0032380D01*
X0063976Y0065295D01*
X0045787Y0083484D01*
X0045059Y0084212D01*
X0044665Y0085163D01*
X0044665Y0100915D01*
X0044031Y0101549D01*
X0043453Y0102946D01*
X0043453Y0104457D01*
X0044031Y0105854D01*
X0045100Y0106923D01*
X0046497Y0107502D01*
X0048009Y0107502D01*
X0048528Y0107287D01*
X0048528Y0124815D01*
X0048921Y0125766D01*
X0054071Y0130915D01*
X0054799Y0131643D01*
X0055750Y0132037D01*
X0090813Y0132037D01*
X0091447Y0132671D01*
X0092843Y0133250D01*
X0094355Y0133250D01*
X0095752Y0132671D01*
X0096821Y0131602D01*
X0097321Y0130394D01*
X0099858Y0132930D01*
X0100809Y0133324D01*
X0200968Y0133324D01*
X0201919Y0132930D01*
X0202647Y0132203D01*
X0206509Y0128340D01*
X0206903Y0127389D01*
X0206903Y0110686D01*
X0206916Y0110656D01*
X0206916Y0104783D01*
X0206520Y0103827D01*
X0205789Y0103096D01*
X0204991Y0102298D01*
X0204991Y0101442D01*
X0204415Y0100052D01*
X0203351Y0098988D01*
X0201962Y0098413D01*
X0200457Y0098413D01*
X0199068Y0098988D01*
X0198004Y0100052D01*
X0197428Y0101442D01*
X0197428Y0102946D01*
X0198004Y0104336D01*
X0199068Y0105399D01*
X0200457Y0105975D01*
X0201314Y0105975D01*
X0201716Y0106377D01*
X0201716Y0110656D01*
X0201728Y0110686D01*
X0201728Y0125803D01*
X0199382Y0128150D01*
X0102395Y0128150D01*
X0095793Y0121547D01*
X0095065Y0120819D01*
X0094114Y0120425D01*
X0089505Y0120425D01*
X0089505Y0119165D01*
X0089070Y0118729D01*
X0089505Y0118294D01*
X0089505Y0111684D01*
X0088451Y0110630D01*
X0087755Y0110630D01*
X0095065Y0103320D01*
X0095793Y0102592D01*
X0096187Y0101641D01*
X0096187Y0094713D01*
X0101311Y0094713D01*
X0101311Y0108078D01*
X0101705Y0109029D01*
X0103384Y0110709D01*
X0102905Y0110709D01*
X0101850Y0111763D01*
X0101850Y0118372D01*
X0102286Y0118808D01*
X0102210Y0118884D01*
X0101973Y0119294D01*
X0101850Y0119752D01*
X0101850Y0122068D01*
X0106320Y0122068D01*
X0106320Y0123028D01*
X0106320Y0126907D01*
X0103413Y0126907D01*
X0102956Y0126784D01*
X0102545Y0126547D01*
X0102210Y0126212D01*
X0101973Y0125802D01*
X0101850Y0125344D01*
X0101850Y0123028D01*
X0106320Y0123028D01*
X0107280Y0123028D01*
X0107280Y0126907D01*
X0110187Y0126907D01*
X0110644Y0126784D01*
X0111055Y0126547D01*
X0111390Y0126212D01*
X0111627Y0125802D01*
X0111750Y0125344D01*
X0111750Y0123028D01*
X0107280Y0123028D01*
X0107280Y0122068D01*
X0111750Y0122068D01*
X0111750Y0119752D01*
X0111627Y0119294D01*
X0111390Y0118884D01*
X0111314Y0118808D01*
X0111750Y0118372D01*
X0111750Y0111763D01*
X0110695Y0110709D01*
X0109061Y0110709D01*
X0109061Y0109624D01*
X0108667Y0108673D01*
X0107939Y0107945D01*
X0106486Y0106492D01*
X0106486Y0094713D01*
X0116981Y0094713D01*
X0117217Y0094949D01*
X0118173Y0095345D01*
X0130464Y0095345D01*
X0122045Y0103764D01*
X0121166Y0103764D01*
X0119770Y0104342D01*
X0118701Y0105411D01*
X0118122Y0106808D01*
X0118122Y0108320D01*
X0118701Y0109716D01*
X0119770Y0110785D01*
X0121166Y0111364D01*
X0122678Y0111364D01*
X0124075Y0110785D01*
X0125144Y0109716D01*
X0125722Y0108320D01*
X0125722Y0107441D01*
X0125930Y0107233D01*
X0126425Y0108429D01*
X0127059Y0109063D01*
X0127059Y0110591D01*
X0125149Y0110591D01*
X0124094Y0111645D01*
X0124094Y0118254D01*
X0124530Y0118690D01*
X0124454Y0118766D01*
X0124217Y0119176D01*
X0124094Y0119634D01*
X0124094Y0121950D01*
X0128564Y0121950D01*
X0128564Y0122909D01*
X0124094Y0122909D01*
X0124094Y0125226D01*
X0124217Y0125684D01*
X0124454Y0126094D01*
X0124789Y0126429D01*
X0125200Y0126666D01*
X0125658Y0126789D01*
X0128565Y0126789D01*
X0128565Y0122910D01*
X0129524Y0122910D01*
X0129524Y0126789D01*
X0132431Y0126789D01*
X0132888Y0126666D01*
X0133299Y0126429D01*
X0133634Y0126094D01*
X0133871Y0125684D01*
X0133994Y0125226D01*
X0133994Y0122909D01*
X0129524Y0122909D01*
X0129524Y0121950D01*
X0133994Y0121950D01*
X0133994Y0119634D01*
X0133871Y0119176D01*
X0133634Y0118766D01*
X0133558Y0118690D01*
X0133994Y0118254D01*
X0133994Y0111645D01*
X0132939Y0110591D01*
X0132234Y0110591D01*
X0132234Y0109063D01*
X0132868Y0108429D01*
X0133446Y0107032D01*
X0133446Y0105520D01*
X0132868Y0104124D01*
X0131799Y0103055D01*
X0130603Y0102560D01*
X0151334Y0081828D01*
X0161059Y0081828D01*
X0162010Y0081434D01*
X0176171Y0067273D01*
X0176899Y0066545D01*
X0177293Y0065594D01*
X0177293Y0053705D01*
X0177927Y0053071D01*
X0178366Y0052010D01*
X0178366Y0056187D01*
X0178408Y0056229D01*
X0178366Y0056386D01*
X0178366Y0057312D01*
X0181938Y0057312D01*
X0185509Y0057312D01*
X0185509Y0058238D01*
X0185467Y0058394D01*
X0185509Y0058436D01*
X0185509Y0066424D01*
X0184455Y0067478D01*
X0179421Y0067478D01*
X0178366Y0066424D01*
X0178366Y0058436D01*
X0178408Y0058394D01*
X0178366Y0058238D01*
X0178366Y0057312D01*
X0181938Y0057312D01*
X0181938Y0057312D01*
X0186052Y0057312D01*
X0188808Y0060068D01*
X0188808Y0065580D01*
X0182509Y0071879D01*
X0166367Y0080737D01*
X0164719Y0078725D02*
X0179286Y0078725D01*
X0180885Y0077127D02*
X0166317Y0077127D01*
X0167916Y0075528D02*
X0182483Y0075528D01*
X0182492Y0075520D02*
X0182492Y0074623D01*
X0183071Y0073226D01*
X0184140Y0072157D01*
X0185536Y0071579D01*
X0187048Y0071579D01*
X0188445Y0072157D01*
X0189079Y0072791D01*
X0191614Y0072791D01*
X0191614Y0071369D01*
X0192669Y0070315D01*
X0194004Y0070315D01*
X0194004Y0054565D01*
X0193838Y0054399D01*
X0193110Y0053671D01*
X0192717Y0052720D01*
X0192717Y0029805D01*
X0193110Y0028854D01*
X0193294Y0028670D01*
X0193294Y0027776D01*
X0192689Y0027170D01*
X0192113Y0025780D01*
X0192113Y0024276D01*
X0192689Y0022887D01*
X0193753Y0021823D01*
X0195142Y0021247D01*
X0196647Y0021247D01*
X0198036Y0021823D01*
X0199100Y0022887D01*
X0199676Y0024276D01*
X0199676Y0025433D01*
X0207585Y0025433D01*
X0208639Y0026487D01*
X0208639Y0035065D01*
X0207585Y0036120D01*
X0199401Y0036120D01*
X0198346Y0035065D01*
X0198346Y0034447D01*
X0198260Y0034360D01*
X0197891Y0033991D01*
X0197891Y0051134D01*
X0198785Y0052027D01*
X0199179Y0052978D01*
X0199179Y0064843D01*
X0199588Y0064433D01*
X0200985Y0063854D01*
X0201882Y0063854D01*
X0213315Y0052421D01*
X0213315Y0045578D01*
X0210931Y0047962D01*
X0209980Y0048356D01*
X0208639Y0048356D01*
X0208639Y0051207D01*
X0207585Y0052261D01*
X0199401Y0052261D01*
X0198346Y0051207D01*
X0198346Y0042629D01*
X0199401Y0041575D01*
X0207585Y0041575D01*
X0208639Y0042629D01*
X0208639Y0042935D01*
X0209453Y0042122D01*
X0209453Y0026319D01*
X0201707Y0018573D01*
X0195790Y0018573D01*
X0172156Y0042208D01*
X0172156Y0048094D01*
X0172553Y0047697D01*
X0173950Y0047118D01*
X0175461Y0047118D01*
X0176858Y0047697D01*
X0177927Y0048766D01*
X0178366Y0049826D01*
X0178366Y0048200D01*
X0179421Y0047146D01*
X0184455Y0047146D01*
X0185509Y0048200D01*
X0185509Y0056187D01*
X0185467Y0056229D01*
X0185509Y0056386D01*
X0185509Y0057312D01*
X0181938Y0057312D01*
X0181938Y0057312D01*
X0185509Y0057945D02*
X0194004Y0057945D01*
X0194004Y0059543D02*
X0185509Y0059543D01*
X0185509Y0061142D02*
X0194004Y0061142D01*
X0194004Y0062740D02*
X0185509Y0062740D01*
X0185509Y0064339D02*
X0194004Y0064339D01*
X0194004Y0065937D02*
X0185509Y0065937D01*
X0178366Y0065937D02*
X0177151Y0065937D01*
X0177293Y0064339D02*
X0178366Y0064339D01*
X0178366Y0062740D02*
X0177293Y0062740D01*
X0177293Y0061142D02*
X0178366Y0061142D01*
X0178366Y0059543D02*
X0177293Y0059543D01*
X0177293Y0057945D02*
X0178366Y0057945D01*
X0178377Y0056346D02*
X0177293Y0056346D01*
X0177293Y0054748D02*
X0178366Y0054748D01*
X0178366Y0053149D02*
X0177848Y0053149D01*
X0177515Y0048354D02*
X0178366Y0048354D01*
X0172156Y0046755D02*
X0192717Y0046755D01*
X0192717Y0048354D02*
X0185509Y0048354D01*
X0185509Y0049952D02*
X0192717Y0049952D01*
X0192717Y0051551D02*
X0185509Y0051551D01*
X0185509Y0053149D02*
X0192894Y0053149D01*
X0194004Y0054748D02*
X0185509Y0054748D01*
X0185499Y0056346D02*
X0194004Y0056346D01*
X0199179Y0056346D02*
X0209390Y0056346D01*
X0210988Y0054748D02*
X0199179Y0054748D01*
X0199179Y0053149D02*
X0212587Y0053149D01*
X0213315Y0051551D02*
X0208296Y0051551D01*
X0208639Y0049952D02*
X0213315Y0049952D01*
X0213315Y0048354D02*
X0209985Y0048354D01*
X0212138Y0046755D02*
X0213315Y0046755D01*
X0218490Y0046755D02*
X0222418Y0046755D01*
X0222394Y0046847D02*
X0223123Y0044125D01*
X0224533Y0041683D01*
X0226526Y0039690D01*
X0228967Y0038281D01*
X0231690Y0037551D01*
X0234509Y0037551D01*
X0237231Y0038281D01*
X0239673Y0039690D01*
X0241666Y0041683D01*
X0243075Y0044125D01*
X0243805Y0046847D01*
X0243805Y0049666D01*
X0243108Y0052266D01*
X0243608Y0054131D01*
X0243608Y0056950D01*
X0243010Y0059182D01*
X0243608Y0061414D01*
X0243608Y0064233D01*
X0243010Y0066465D01*
X0243608Y0068698D01*
X0243608Y0071516D01*
X0242931Y0074044D01*
X0243608Y0076572D01*
X0243608Y0079391D01*
X0242983Y0081721D01*
X0243608Y0084052D01*
X0243608Y0086871D01*
X0242878Y0089594D01*
X0242851Y0089640D01*
X0243411Y0091729D01*
X0243411Y0094548D01*
X0242681Y0097271D01*
X0241272Y0099712D01*
X0239279Y0101705D01*
X0236838Y0103115D01*
X0234115Y0103844D01*
X0231296Y0103844D01*
X0228573Y0103115D01*
X0226132Y0101705D01*
X0224139Y0099712D01*
X0222730Y0097271D01*
X0222000Y0094548D01*
X0222000Y0091729D01*
X0222730Y0089006D01*
X0222757Y0088960D01*
X0222197Y0086871D01*
X0222197Y0084052D01*
X0222821Y0081721D01*
X0222197Y0079391D01*
X0222197Y0076572D01*
X0222874Y0074044D01*
X0222197Y0071516D01*
X0222197Y0068698D01*
X0222795Y0066465D01*
X0222197Y0064233D01*
X0222197Y0061414D01*
X0222795Y0059182D01*
X0222197Y0056950D01*
X0222197Y0054131D01*
X0222893Y0051531D01*
X0222394Y0049666D01*
X0222394Y0046847D01*
X0222394Y0048354D02*
X0218490Y0048354D01*
X0218490Y0049952D02*
X0222470Y0049952D01*
X0222888Y0051551D02*
X0218490Y0051551D01*
X0218490Y0053149D02*
X0222460Y0053149D01*
X0222197Y0054748D02*
X0218183Y0054748D01*
X0218096Y0054959D02*
X0205541Y0067513D01*
X0205541Y0068410D01*
X0204962Y0069807D01*
X0203893Y0070876D01*
X0202497Y0071454D01*
X0201120Y0071454D01*
X0201120Y0077979D01*
X0200684Y0078414D01*
X0200760Y0078490D01*
X0200997Y0078900D01*
X0201120Y0079358D01*
X0201120Y0081675D01*
X0196847Y0081675D01*
X0196847Y0082634D01*
X0201120Y0082634D01*
X0201120Y0084950D01*
X0200997Y0085408D01*
X0200760Y0085819D01*
X0200425Y0086154D01*
X0200014Y0086391D01*
X0199557Y0086513D01*
X0196846Y0086513D01*
X0196846Y0082634D01*
X0195887Y0082634D01*
X0195887Y0081675D01*
X0191614Y0081675D01*
X0191614Y0079358D01*
X0191737Y0078900D01*
X0191974Y0078490D01*
X0192050Y0078414D01*
X0191614Y0077979D01*
X0191614Y0077966D01*
X0189079Y0077966D01*
X0188445Y0078600D01*
X0187048Y0079179D01*
X0186151Y0079179D01*
X0154464Y0110866D01*
X0154987Y0110866D01*
X0156041Y0111921D01*
X0156041Y0118530D01*
X0155605Y0118965D01*
X0156041Y0119401D01*
X0156041Y0120425D01*
X0158388Y0120425D01*
X0160224Y0118589D01*
X0160224Y0114980D01*
X0159618Y0114375D01*
X0159043Y0112985D01*
X0159043Y0111481D01*
X0159618Y0110091D01*
X0160682Y0109028D01*
X0162072Y0108452D01*
X0163576Y0108452D01*
X0164965Y0109028D01*
X0166029Y0110091D01*
X0166605Y0111481D01*
X0166605Y0112985D01*
X0166029Y0114375D01*
X0165424Y0114980D01*
X0165424Y0120183D01*
X0165323Y0120425D01*
X0169409Y0120425D01*
X0169409Y0119322D01*
X0169845Y0118887D01*
X0169409Y0118451D01*
X0169409Y0111842D01*
X0170464Y0110787D01*
X0177861Y0110787D01*
X0178915Y0111842D01*
X0178915Y0112701D01*
X0182301Y0112701D01*
X0183846Y0111156D01*
X0183846Y0106401D01*
X0184241Y0105445D01*
X0187192Y0102495D01*
X0187192Y0101638D01*
X0187768Y0100249D01*
X0188831Y0099185D01*
X0190221Y0098609D01*
X0191725Y0098609D01*
X0193115Y0099185D01*
X0194179Y0100249D01*
X0194754Y0101638D01*
X0194754Y0103143D01*
X0194179Y0104532D01*
X0193115Y0105596D01*
X0191725Y0106172D01*
X0190869Y0106172D01*
X0189046Y0107995D01*
X0189046Y0112750D01*
X0188650Y0113706D01*
X0187918Y0114437D01*
X0186153Y0116203D01*
X0185921Y0116761D01*
X0185190Y0117492D01*
X0184234Y0117888D01*
X0183200Y0117888D01*
X0183170Y0117876D01*
X0178915Y0117876D01*
X0178915Y0118451D01*
X0178479Y0118887D01*
X0178915Y0119322D01*
X0178915Y0120294D01*
X0179677Y0119532D01*
X0180628Y0119138D01*
X0191457Y0119138D01*
X0191457Y0118810D01*
X0191892Y0118375D01*
X0191816Y0118299D01*
X0191579Y0117888D01*
X0191457Y0117431D01*
X0191457Y0115114D01*
X0195927Y0115114D01*
X0195927Y0114155D01*
X0196886Y0114155D01*
X0196886Y0115114D01*
X0201356Y0115114D01*
X0201356Y0117431D01*
X0201233Y0117888D01*
X0200996Y0118299D01*
X0200920Y0118375D01*
X0201356Y0118810D01*
X0201356Y0125420D01*
X0200301Y0126474D01*
X0192511Y0126474D01*
X0191457Y0125420D01*
X0191457Y0124313D01*
X0182214Y0124313D01*
X0182049Y0124478D01*
X0181321Y0125206D01*
X0180370Y0125600D01*
X0178915Y0125600D01*
X0178915Y0125931D01*
X0177861Y0126986D01*
X0170464Y0126986D01*
X0169409Y0125931D01*
X0169409Y0125600D01*
X0160025Y0125600D01*
X0159994Y0125613D01*
X0158960Y0125613D01*
X0158930Y0125600D01*
X0156041Y0125600D01*
X0156041Y0126010D01*
X0154987Y0127065D01*
X0147196Y0127065D01*
X0146142Y0126010D01*
X0146142Y0119401D01*
X0146577Y0118965D01*
X0146142Y0118530D01*
X0146142Y0111921D01*
X0147196Y0110866D01*
X0148945Y0110866D01*
X0148945Y0109624D01*
X0149339Y0108673D01*
X0182492Y0075520D01*
X0182779Y0073930D02*
X0169514Y0073930D01*
X0171113Y0072331D02*
X0183966Y0072331D01*
X0188619Y0072331D02*
X0191614Y0072331D01*
X0192251Y0070733D02*
X0172711Y0070733D01*
X0174310Y0069134D02*
X0194004Y0069134D01*
X0194004Y0067536D02*
X0175908Y0067536D01*
X0169556Y0066367D02*
X0169556Y0041131D01*
X0194713Y0015973D01*
X0202784Y0015973D01*
X0211981Y0025170D01*
X0212040Y0025170D01*
X0213315Y0022827D02*
X0213315Y0021520D01*
X0212681Y0020886D01*
X0212102Y0019489D01*
X0212102Y0017977D01*
X0212681Y0016581D01*
X0213750Y0015512D01*
X0215146Y0014933D01*
X0216658Y0014933D01*
X0218055Y0015512D01*
X0219124Y0016581D01*
X0219702Y0017977D01*
X0219702Y0019489D01*
X0219124Y0020886D01*
X0218490Y0021520D01*
X0218490Y0054008D01*
X0218096Y0054959D01*
X0216708Y0056346D02*
X0222197Y0056346D01*
X0222464Y0057945D02*
X0215110Y0057945D01*
X0213511Y0059543D02*
X0222698Y0059543D01*
X0222270Y0061142D02*
X0211913Y0061142D01*
X0210314Y0062740D02*
X0222197Y0062740D01*
X0222225Y0064339D02*
X0208716Y0064339D01*
X0207117Y0065937D02*
X0222654Y0065937D01*
X0222508Y0067536D02*
X0205541Y0067536D01*
X0205241Y0069134D02*
X0222197Y0069134D01*
X0222197Y0070733D02*
X0204036Y0070733D01*
X0201120Y0072331D02*
X0222415Y0072331D01*
X0222844Y0073930D02*
X0201120Y0073930D01*
X0201120Y0075528D02*
X0222476Y0075528D01*
X0222197Y0077127D02*
X0201120Y0077127D01*
X0200896Y0078725D02*
X0222197Y0078725D01*
X0222447Y0080324D02*
X0201120Y0080324D01*
X0196847Y0081922D02*
X0222767Y0081922D01*
X0222339Y0083521D02*
X0201120Y0083521D01*
X0201074Y0085119D02*
X0222197Y0085119D01*
X0222197Y0086718D02*
X0178612Y0086718D01*
X0177014Y0088316D02*
X0222584Y0088316D01*
X0222486Y0089915D02*
X0175415Y0089915D01*
X0173816Y0091513D02*
X0222058Y0091513D01*
X0222000Y0093112D02*
X0172218Y0093112D01*
X0170619Y0094711D02*
X0222044Y0094711D01*
X0222472Y0096309D02*
X0169021Y0096309D01*
X0167422Y0097908D02*
X0223097Y0097908D01*
X0224020Y0099506D02*
X0203869Y0099506D01*
X0204851Y0101105D02*
X0225532Y0101105D01*
X0227861Y0102703D02*
X0205396Y0102703D01*
X0206716Y0104302D02*
X0244785Y0104302D01*
X0244782Y0102703D02*
X0237550Y0102703D01*
X0239879Y0101105D02*
X0244780Y0101105D01*
X0244778Y0099506D02*
X0241391Y0099506D01*
X0242314Y0097908D02*
X0244775Y0097908D01*
X0244773Y0096309D02*
X0242939Y0096309D01*
X0243367Y0094711D02*
X0244771Y0094711D01*
X0244769Y0093112D02*
X0243411Y0093112D01*
X0243353Y0091513D02*
X0244766Y0091513D01*
X0244764Y0089915D02*
X0242925Y0089915D01*
X0243221Y0088316D02*
X0244762Y0088316D01*
X0244759Y0086718D02*
X0243608Y0086718D01*
X0243608Y0085119D02*
X0244757Y0085119D01*
X0244755Y0083521D02*
X0243466Y0083521D01*
X0243037Y0081922D02*
X0244753Y0081922D01*
X0244750Y0080324D02*
X0243358Y0080324D01*
X0243608Y0078725D02*
X0244748Y0078725D01*
X0244746Y0077127D02*
X0243608Y0077127D01*
X0243328Y0075528D02*
X0244743Y0075528D01*
X0244741Y0073930D02*
X0242961Y0073930D01*
X0243390Y0072331D02*
X0244739Y0072331D01*
X0244737Y0070733D02*
X0243608Y0070733D01*
X0243608Y0069134D02*
X0244734Y0069134D01*
X0244732Y0067536D02*
X0243297Y0067536D01*
X0243151Y0065937D02*
X0244730Y0065937D01*
X0244727Y0064339D02*
X0243580Y0064339D01*
X0243608Y0062740D02*
X0244725Y0062740D01*
X0244723Y0061142D02*
X0243535Y0061142D01*
X0243107Y0059543D02*
X0244721Y0059543D01*
X0244718Y0057945D02*
X0243341Y0057945D01*
X0243608Y0056346D02*
X0244716Y0056346D01*
X0244714Y0054748D02*
X0243608Y0054748D01*
X0243345Y0053149D02*
X0244711Y0053149D01*
X0244709Y0051551D02*
X0243300Y0051551D01*
X0243728Y0049952D02*
X0244707Y0049952D01*
X0244704Y0048354D02*
X0243805Y0048354D01*
X0243780Y0046755D02*
X0244702Y0046755D01*
X0244700Y0045157D02*
X0243352Y0045157D01*
X0242748Y0043558D02*
X0244698Y0043558D01*
X0244695Y0041960D02*
X0241825Y0041960D01*
X0240344Y0040361D02*
X0244693Y0040361D01*
X0244691Y0038763D02*
X0238066Y0038763D01*
X0244688Y0037164D02*
X0218490Y0037164D01*
X0218490Y0035566D02*
X0244686Y0035566D01*
X0244684Y0033967D02*
X0218490Y0033967D01*
X0218490Y0032369D02*
X0244682Y0032369D01*
X0244679Y0030770D02*
X0218490Y0030770D01*
X0218490Y0029172D02*
X0244677Y0029172D01*
X0244675Y0027573D02*
X0218490Y0027573D01*
X0218490Y0025975D02*
X0244672Y0025975D01*
X0244670Y0024376D02*
X0218490Y0024376D01*
X0218490Y0022777D02*
X0244668Y0022777D01*
X0244666Y0021179D02*
X0218830Y0021179D01*
X0219664Y0019580D02*
X0244663Y0019580D01*
X0244661Y0017982D02*
X0219702Y0017982D01*
X0218927Y0016383D02*
X0244659Y0016383D01*
X0244656Y0014785D02*
X0205273Y0014785D01*
X0204257Y0013769D02*
X0203301Y0013373D01*
X0194196Y0013373D01*
X0193241Y0013769D01*
X0192509Y0014500D01*
X0167352Y0039658D01*
X0166956Y0040614D01*
X0166956Y0044659D01*
X0142139Y0019842D01*
X0141411Y0019114D01*
X0140460Y0018720D01*
X0138718Y0018720D01*
X0138718Y0018023D01*
X0138283Y0017587D01*
X0138718Y0017152D01*
X0138718Y0016408D01*
X0146589Y0016408D01*
X0152319Y0022137D01*
X0151759Y0023489D01*
X0151759Y0024993D01*
X0152335Y0026383D01*
X0153398Y0027446D01*
X0154788Y0028022D01*
X0156292Y0028022D01*
X0156877Y0027780D01*
X0156877Y0028733D01*
X0157453Y0030123D01*
X0158516Y0031187D01*
X0159906Y0031762D01*
X0161410Y0031762D01*
X0162800Y0031187D01*
X0163217Y0030769D01*
X0163635Y0031187D01*
X0165024Y0031762D01*
X0166528Y0031762D01*
X0167918Y0031187D01*
X0168982Y0030123D01*
X0169557Y0028733D01*
X0169557Y0027877D01*
X0185118Y0012316D01*
X0185524Y0012722D01*
X0186914Y0013298D01*
X0188418Y0013298D01*
X0189808Y0012722D01*
X0190872Y0011658D01*
X0191447Y0010269D01*
X0191447Y0008764D01*
X0190872Y0007375D01*
X0190144Y0006647D01*
X0244645Y0006604D01*
X0244828Y0134405D01*
X0006804Y0134595D01*
X0006806Y0133075D02*
X0092421Y0133075D01*
X0094777Y0133075D02*
X0100206Y0133075D01*
X0098404Y0131476D02*
X0096873Y0131476D01*
X0100926Y0126681D02*
X0102776Y0126681D01*
X0101850Y0125082D02*
X0099328Y0125082D01*
X0097729Y0123484D02*
X0101850Y0123484D01*
X0101850Y0121885D02*
X0096131Y0121885D01*
X0101850Y0120287D02*
X0089505Y0120287D01*
X0089111Y0118688D02*
X0102166Y0118688D01*
X0101850Y0117090D02*
X0089505Y0117090D01*
X0089505Y0115491D02*
X0101850Y0115491D01*
X0101850Y0113893D02*
X0089505Y0113893D01*
X0089505Y0112294D02*
X0101850Y0112294D01*
X0103371Y0110696D02*
X0088517Y0110696D01*
X0089288Y0109097D02*
X0101773Y0109097D01*
X0101311Y0107499D02*
X0090887Y0107499D01*
X0092485Y0105900D02*
X0101311Y0105900D01*
X0101311Y0104302D02*
X0094084Y0104302D01*
X0095682Y0102703D02*
X0101311Y0102703D01*
X0101311Y0101105D02*
X0096187Y0101105D01*
X0096187Y0099506D02*
X0101311Y0099506D01*
X0101311Y0097908D02*
X0096187Y0097908D01*
X0096187Y0096309D02*
X0101311Y0096309D01*
X0106486Y0096309D02*
X0129500Y0096309D01*
X0127901Y0097908D02*
X0106486Y0097908D01*
X0106486Y0099506D02*
X0126303Y0099506D01*
X0124704Y0101105D02*
X0106486Y0101105D01*
X0106486Y0102703D02*
X0123106Y0102703D01*
X0119868Y0104302D02*
X0106486Y0104302D01*
X0106486Y0105900D02*
X0118498Y0105900D01*
X0118122Y0107499D02*
X0107492Y0107499D01*
X0108842Y0109097D02*
X0118444Y0109097D01*
X0119680Y0110696D02*
X0109061Y0110696D01*
X0111750Y0112294D02*
X0124094Y0112294D01*
X0124094Y0113893D02*
X0111750Y0113893D01*
X0111750Y0115491D02*
X0124094Y0115491D01*
X0124094Y0117090D02*
X0111750Y0117090D01*
X0111434Y0118688D02*
X0124528Y0118688D01*
X0124094Y0120287D02*
X0111750Y0120287D01*
X0111750Y0121885D02*
X0124094Y0121885D01*
X0124094Y0123484D02*
X0111750Y0123484D01*
X0111750Y0125082D02*
X0124094Y0125082D01*
X0125254Y0126681D02*
X0110824Y0126681D01*
X0107280Y0126681D02*
X0106320Y0126681D01*
X0106320Y0125082D02*
X0107280Y0125082D01*
X0107280Y0123484D02*
X0106320Y0123484D01*
X0124164Y0110696D02*
X0125044Y0110696D01*
X0125400Y0109097D02*
X0127059Y0109097D01*
X0126040Y0107499D02*
X0125722Y0107499D01*
X0121922Y0107564D02*
X0150245Y0079241D01*
X0151240Y0081922D02*
X0176089Y0081922D01*
X0174491Y0083521D02*
X0149642Y0083521D01*
X0148043Y0085119D02*
X0172892Y0085119D01*
X0171294Y0086718D02*
X0146445Y0086718D01*
X0144846Y0088316D02*
X0169695Y0088316D01*
X0168097Y0089915D02*
X0143248Y0089915D01*
X0141649Y0091513D02*
X0166498Y0091513D01*
X0164900Y0093112D02*
X0140051Y0093112D01*
X0138452Y0094711D02*
X0163301Y0094711D01*
X0161703Y0096309D02*
X0136854Y0096309D01*
X0135255Y0097908D02*
X0160104Y0097908D01*
X0158506Y0099506D02*
X0133657Y0099506D01*
X0132058Y0101105D02*
X0156907Y0101105D01*
X0155309Y0102703D02*
X0130950Y0102703D01*
X0132942Y0104302D02*
X0153710Y0104302D01*
X0152112Y0105900D02*
X0133446Y0105900D01*
X0133253Y0107499D02*
X0150513Y0107499D01*
X0149163Y0109097D02*
X0132234Y0109097D01*
X0133044Y0110696D02*
X0148945Y0110696D01*
X0146142Y0112294D02*
X0133994Y0112294D01*
X0133994Y0113893D02*
X0146142Y0113893D01*
X0146142Y0115491D02*
X0133994Y0115491D01*
X0133994Y0117090D02*
X0146142Y0117090D01*
X0146300Y0118688D02*
X0133560Y0118688D01*
X0133994Y0120287D02*
X0146142Y0120287D01*
X0146142Y0121885D02*
X0133994Y0121885D01*
X0133994Y0123484D02*
X0146142Y0123484D01*
X0146142Y0125082D02*
X0133994Y0125082D01*
X0132835Y0126681D02*
X0146812Y0126681D01*
X0155370Y0126681D02*
X0170159Y0126681D01*
X0178166Y0126681D02*
X0200851Y0126681D01*
X0201356Y0125082D02*
X0201728Y0125082D01*
X0201728Y0123484D02*
X0201356Y0123484D01*
X0201356Y0121885D02*
X0201728Y0121885D01*
X0201728Y0120287D02*
X0201356Y0120287D01*
X0201234Y0118688D02*
X0201728Y0118688D01*
X0201728Y0117090D02*
X0201356Y0117090D01*
X0201356Y0115491D02*
X0201728Y0115491D01*
X0201356Y0114155D02*
X0196886Y0114155D01*
X0196886Y0110276D01*
X0199793Y0110276D01*
X0200251Y0110398D01*
X0200661Y0110635D01*
X0200996Y0110970D01*
X0201233Y0111381D01*
X0201356Y0111839D01*
X0201356Y0114155D01*
X0201356Y0113893D02*
X0201728Y0113893D01*
X0201728Y0112294D02*
X0201356Y0112294D01*
X0201728Y0110696D02*
X0200722Y0110696D01*
X0201716Y0109097D02*
X0189046Y0109097D01*
X0189046Y0110696D02*
X0192091Y0110696D01*
X0192151Y0110635D02*
X0192562Y0110398D01*
X0193020Y0110276D01*
X0195927Y0110276D01*
X0195927Y0114155D01*
X0191457Y0114155D01*
X0191457Y0111839D01*
X0191579Y0111381D01*
X0191816Y0110970D01*
X0192151Y0110635D01*
X0191457Y0112294D02*
X0189046Y0112294D01*
X0188463Y0113893D02*
X0191457Y0113893D01*
X0191457Y0115491D02*
X0186865Y0115491D01*
X0185593Y0117090D02*
X0191457Y0117090D01*
X0191579Y0118688D02*
X0178678Y0118688D01*
X0178915Y0120287D02*
X0178922Y0120287D01*
X0181445Y0125082D02*
X0191457Y0125082D01*
X0203373Y0131476D02*
X0244824Y0131476D01*
X0244826Y0133075D02*
X0201571Y0133075D01*
X0204972Y0129878D02*
X0244821Y0129878D01*
X0244819Y0128279D02*
X0206535Y0128279D01*
X0206903Y0126681D02*
X0244817Y0126681D01*
X0244814Y0125082D02*
X0206903Y0125082D01*
X0206903Y0123484D02*
X0244812Y0123484D01*
X0244810Y0121885D02*
X0206903Y0121885D01*
X0206903Y0120287D02*
X0244808Y0120287D01*
X0244805Y0118688D02*
X0206903Y0118688D01*
X0206903Y0117090D02*
X0244803Y0117090D01*
X0244801Y0115491D02*
X0206903Y0115491D01*
X0206903Y0113893D02*
X0244798Y0113893D01*
X0244796Y0112294D02*
X0206903Y0112294D01*
X0206903Y0110696D02*
X0244794Y0110696D01*
X0244792Y0109097D02*
X0206916Y0109097D01*
X0206916Y0107499D02*
X0244789Y0107499D01*
X0244787Y0105900D02*
X0206916Y0105900D01*
X0204316Y0105300D02*
X0204316Y0110139D01*
X0201716Y0107499D02*
X0189542Y0107499D01*
X0186446Y0106918D02*
X0190973Y0102391D01*
X0187413Y0101105D02*
X0164225Y0101105D01*
X0162627Y0102703D02*
X0186984Y0102703D01*
X0185385Y0104302D02*
X0161028Y0104302D01*
X0159430Y0105900D02*
X0184053Y0105900D01*
X0183846Y0107499D02*
X0157831Y0107499D01*
X0156233Y0109097D02*
X0160612Y0109097D01*
X0159368Y0110696D02*
X0154634Y0110696D01*
X0156041Y0112294D02*
X0159043Y0112294D01*
X0159418Y0113893D02*
X0156041Y0113893D01*
X0156041Y0115491D02*
X0160224Y0115491D01*
X0160224Y0117090D02*
X0156041Y0117090D01*
X0155883Y0118688D02*
X0160125Y0118688D01*
X0158526Y0120287D02*
X0156041Y0120287D01*
X0159477Y0123013D02*
X0162824Y0119666D01*
X0162824Y0112233D01*
X0166605Y0112294D02*
X0169409Y0112294D01*
X0169409Y0113893D02*
X0166229Y0113893D01*
X0165424Y0115491D02*
X0169409Y0115491D01*
X0169409Y0117090D02*
X0165424Y0117090D01*
X0165424Y0118688D02*
X0169647Y0118688D01*
X0169409Y0120287D02*
X0165381Y0120287D01*
X0178915Y0112294D02*
X0182708Y0112294D01*
X0183846Y0110696D02*
X0166279Y0110696D01*
X0165035Y0109097D02*
X0183846Y0109097D01*
X0186446Y0106918D02*
X0186446Y0112233D01*
X0183717Y0114961D01*
X0183717Y0115288D01*
X0195927Y0113893D02*
X0196886Y0113893D01*
X0196367Y0114595D02*
X0196406Y0114635D01*
X0196367Y0114595D02*
X0196367Y0082154D01*
X0195887Y0081922D02*
X0183408Y0081922D01*
X0181809Y0083521D02*
X0191614Y0083521D01*
X0191614Y0082634D02*
X0195887Y0082634D01*
X0195887Y0086513D01*
X0193177Y0086513D01*
X0192719Y0086391D01*
X0192309Y0086154D01*
X0191974Y0085819D01*
X0191737Y0085408D01*
X0191614Y0084950D01*
X0191614Y0082634D01*
X0195887Y0083521D02*
X0196846Y0083521D01*
X0196846Y0085119D02*
X0195887Y0085119D01*
X0191659Y0085119D02*
X0180211Y0085119D01*
X0177688Y0080324D02*
X0163120Y0080324D01*
X0148957Y0076666D02*
X0148587Y0076666D01*
X0132509Y0092745D01*
X0118690Y0092745D01*
X0111485Y0085540D01*
X0091012Y0094713D02*
X0090186Y0094713D01*
X0090186Y0088655D01*
X0089799Y0087721D01*
X0089799Y0086209D01*
X0090014Y0085691D01*
X0058624Y0085691D01*
X0056277Y0088037D01*
X0056277Y0094905D01*
X0057336Y0095965D01*
X0057362Y0095965D01*
X0057362Y0095188D01*
X0057798Y0094753D01*
X0057362Y0094317D01*
X0057362Y0087708D01*
X0058417Y0086654D01*
X0065813Y0086654D01*
X0066868Y0087708D01*
X0066868Y0088240D01*
X0069363Y0088240D01*
X0069393Y0088228D01*
X0070427Y0088228D01*
X0070458Y0088240D01*
X0080000Y0088240D01*
X0080000Y0086921D01*
X0081054Y0085866D01*
X0088451Y0085866D01*
X0089505Y0086921D01*
X0089505Y0093530D01*
X0089070Y0093965D01*
X0089146Y0094041D01*
X0089383Y0094452D01*
X0089505Y0094909D01*
X0089505Y0097226D01*
X0085232Y0097226D01*
X0085232Y0098185D01*
X0084273Y0098185D01*
X0084273Y0097226D01*
X0080000Y0097226D01*
X0080000Y0094909D01*
X0080123Y0094452D01*
X0080360Y0094041D01*
X0080436Y0093965D01*
X0080000Y0093530D01*
X0080000Y0093415D01*
X0073298Y0093415D01*
X0073298Y0101530D01*
X0072902Y0102485D01*
X0072170Y0103217D01*
X0066907Y0108481D01*
X0066607Y0108604D01*
X0065289Y0109923D01*
X0065289Y0110591D01*
X0065459Y0110591D01*
X0066513Y0111645D01*
X0066513Y0118254D01*
X0066078Y0118690D01*
X0066513Y0119125D01*
X0066513Y0120425D01*
X0079606Y0120425D01*
X0079606Y0119165D01*
X0080042Y0118729D01*
X0079606Y0118294D01*
X0079606Y0111684D01*
X0080661Y0110630D01*
X0082000Y0110630D01*
X0082000Y0109624D01*
X0082394Y0108673D01*
X0091012Y0100055D01*
X0091012Y0094713D01*
X0090186Y0094711D02*
X0089452Y0094711D01*
X0089505Y0096309D02*
X0091012Y0096309D01*
X0091012Y0097908D02*
X0085232Y0097908D01*
X0085232Y0098185D02*
X0089505Y0098185D01*
X0089505Y0100502D01*
X0089383Y0100959D01*
X0089146Y0101370D01*
X0088811Y0101705D01*
X0088400Y0101942D01*
X0087942Y0102065D01*
X0085232Y0102065D01*
X0085232Y0098185D01*
X0084753Y0097706D02*
X0089162Y0097706D01*
X0089595Y0097272D01*
X0089595Y0086052D01*
X0089398Y0085855D01*
X0075816Y0085855D01*
X0074831Y0086839D01*
X0080203Y0086718D02*
X0065878Y0086718D01*
X0062233Y0090186D02*
X0062233Y0090580D01*
X0057362Y0089915D02*
X0056277Y0089915D01*
X0056277Y0091513D02*
X0057362Y0091513D01*
X0057362Y0093112D02*
X0056277Y0093112D01*
X0056277Y0094711D02*
X0057755Y0094711D01*
X0057362Y0088316D02*
X0056277Y0088316D01*
X0057596Y0086718D02*
X0058352Y0086718D01*
X0059936Y0080516D02*
X0090186Y0080516D01*
X0090186Y0064989D01*
X0107902Y0064989D01*
X0107902Y0057294D01*
X0102992Y0052384D01*
X0102598Y0051433D01*
X0102598Y0034785D01*
X0102546Y0034660D01*
X0102546Y0024924D01*
X0096381Y0018758D01*
X0088543Y0018758D01*
X0088543Y0021453D01*
X0087995Y0022001D01*
X0088543Y0022548D01*
X0088543Y0026437D01*
X0087983Y0026997D01*
X0088543Y0027556D01*
X0088543Y0031445D01*
X0087983Y0032005D01*
X0088519Y0032541D01*
X0088519Y0036429D01*
X0087465Y0037484D01*
X0082760Y0037484D01*
X0082747Y0037497D01*
X0080738Y0037497D01*
X0080738Y0059157D01*
X0080344Y0060108D01*
X0059936Y0080516D01*
X0060128Y0080324D02*
X0090186Y0080324D01*
X0090186Y0078725D02*
X0061727Y0078725D01*
X0063325Y0077127D02*
X0090186Y0077127D01*
X0090186Y0075528D02*
X0064924Y0075528D01*
X0066522Y0073930D02*
X0090186Y0073930D01*
X0090186Y0072331D02*
X0068121Y0072331D01*
X0069719Y0070733D02*
X0090186Y0070733D01*
X0090186Y0069134D02*
X0071318Y0069134D01*
X0072916Y0067536D02*
X0090186Y0067536D01*
X0090186Y0065937D02*
X0074515Y0065937D01*
X0076113Y0064339D02*
X0107902Y0064339D01*
X0107902Y0062740D02*
X0077712Y0062740D01*
X0079310Y0061142D02*
X0107902Y0061142D01*
X0107902Y0059543D02*
X0080578Y0059543D01*
X0080738Y0057945D02*
X0107902Y0057945D01*
X0106955Y0056346D02*
X0080738Y0056346D01*
X0080738Y0054748D02*
X0105356Y0054748D01*
X0103758Y0053149D02*
X0080738Y0053149D01*
X0080738Y0051551D02*
X0102647Y0051551D01*
X0102598Y0049952D02*
X0080738Y0049952D01*
X0080738Y0048354D02*
X0102598Y0048354D01*
X0102598Y0046755D02*
X0080738Y0046755D01*
X0080738Y0045157D02*
X0102598Y0045157D01*
X0102598Y0043558D02*
X0080738Y0043558D01*
X0080738Y0041960D02*
X0102598Y0041960D01*
X0102598Y0040361D02*
X0080738Y0040361D01*
X0080738Y0038763D02*
X0102598Y0038763D01*
X0102598Y0037164D02*
X0087785Y0037164D01*
X0088519Y0035566D02*
X0102598Y0035566D01*
X0102546Y0033967D02*
X0088519Y0033967D01*
X0088347Y0032369D02*
X0102546Y0032369D01*
X0102546Y0030770D02*
X0088543Y0030770D01*
X0088543Y0029172D02*
X0102546Y0029172D01*
X0102546Y0027573D02*
X0088543Y0027573D01*
X0088543Y0025975D02*
X0102546Y0025975D01*
X0101998Y0024376D02*
X0088543Y0024376D01*
X0088543Y0022777D02*
X0100400Y0022777D01*
X0098801Y0021179D02*
X0088543Y0021179D01*
X0088543Y0019580D02*
X0097203Y0019580D01*
X0097457Y0016158D02*
X0105146Y0023847D01*
X0105146Y0034143D01*
X0105186Y0034182D01*
X0096485Y0027391D02*
X0088591Y0019497D01*
X0077651Y0019497D01*
X0077651Y0019497D01*
X0071501Y0019497D01*
X0071501Y0020934D01*
X0071624Y0021392D01*
X0071861Y0021802D01*
X0072056Y0021997D01*
X0071501Y0022551D01*
X0071501Y0022583D01*
X0066373Y0022583D01*
X0070210Y0018746D01*
X0071501Y0018746D01*
X0071501Y0019497D01*
X0077651Y0019497D01*
X0071501Y0019580D02*
X0069375Y0019580D01*
X0067777Y0021179D02*
X0071567Y0021179D01*
X0066628Y0029172D02*
X0064934Y0029172D01*
X0065029Y0030770D02*
X0063336Y0030770D01*
X0063018Y0032369D02*
X0063981Y0032369D01*
X0063976Y0033967D02*
X0063201Y0033967D01*
X0063201Y0035566D02*
X0063976Y0035566D01*
X0063976Y0037164D02*
X0062480Y0037164D01*
X0063976Y0038763D02*
X0058768Y0038763D01*
X0057607Y0040361D02*
X0063976Y0040361D01*
X0063976Y0041960D02*
X0056008Y0041960D01*
X0054410Y0043558D02*
X0063976Y0043558D01*
X0063976Y0045157D02*
X0052811Y0045157D01*
X0051213Y0046755D02*
X0063976Y0046755D01*
X0063976Y0048354D02*
X0049614Y0048354D01*
X0048016Y0049952D02*
X0063976Y0049952D01*
X0063976Y0051551D02*
X0047773Y0051551D01*
X0047773Y0053149D02*
X0063976Y0053149D01*
X0063976Y0054748D02*
X0047773Y0054748D01*
X0063976Y0056346D02*
X0029631Y0056346D01*
X0029631Y0056950D02*
X0029631Y0054131D01*
X0029000Y0051773D01*
X0029099Y0051601D01*
X0029828Y0048879D01*
X0029828Y0046060D01*
X0029099Y0043337D01*
X0027689Y0040896D01*
X0025696Y0038903D01*
X0023255Y0037493D01*
X0020532Y0036764D01*
X0017713Y0036764D01*
X0014991Y0037493D01*
X0012549Y0038903D01*
X0010556Y0040896D01*
X0009147Y0043337D01*
X0008417Y0046060D01*
X0008417Y0048879D01*
X0009049Y0051236D01*
X0008950Y0051408D01*
X0008220Y0054131D01*
X0008220Y0056950D01*
X0008747Y0058913D01*
X0008024Y0061611D01*
X0008024Y0064430D01*
X0008753Y0067153D01*
X0008879Y0067370D01*
X0008417Y0069091D01*
X0008417Y0071910D01*
X0009147Y0074633D01*
X0009443Y0075145D01*
X0009008Y0076769D01*
X0009008Y0079587D01*
X0009580Y0081721D01*
X0009008Y0083855D01*
X0009008Y0086674D01*
X0009685Y0089202D01*
X0009008Y0091729D01*
X0009008Y0094548D01*
X0009737Y0097271D01*
X0011147Y0099712D01*
X0013140Y0101705D01*
X0015581Y0103115D01*
X0018304Y0103844D01*
X0021123Y0103844D01*
X0023846Y0103115D01*
X0026287Y0101705D01*
X0028280Y0099712D01*
X0029689Y0097271D01*
X0030419Y0094548D01*
X0030419Y0091729D01*
X0029742Y0089202D01*
X0030419Y0086674D01*
X0030419Y0083855D01*
X0029847Y0081721D01*
X0030419Y0079587D01*
X0030419Y0076769D01*
X0029689Y0074046D01*
X0029393Y0073533D01*
X0029828Y0071910D01*
X0029828Y0069091D01*
X0029099Y0066369D01*
X0028973Y0066151D01*
X0029435Y0064430D01*
X0029435Y0061611D01*
X0028909Y0059648D01*
X0029631Y0056950D01*
X0029365Y0057945D02*
X0063976Y0057945D01*
X0063976Y0059543D02*
X0028937Y0059543D01*
X0029309Y0061142D02*
X0063976Y0061142D01*
X0063976Y0062740D02*
X0029435Y0062740D01*
X0029435Y0064339D02*
X0063976Y0064339D01*
X0063334Y0065937D02*
X0029031Y0065937D01*
X0029412Y0067536D02*
X0061736Y0067536D01*
X0060137Y0069134D02*
X0029828Y0069134D01*
X0029828Y0070733D02*
X0058539Y0070733D01*
X0056940Y0072331D02*
X0029715Y0072331D01*
X0029622Y0073930D02*
X0055342Y0073930D01*
X0053743Y0075528D02*
X0030087Y0075528D01*
X0030419Y0077127D02*
X0052145Y0077127D01*
X0050546Y0078725D02*
X0030419Y0078725D01*
X0030222Y0080324D02*
X0048948Y0080324D01*
X0047349Y0081922D02*
X0029901Y0081922D01*
X0030329Y0083521D02*
X0045751Y0083521D01*
X0044684Y0085119D02*
X0030419Y0085119D01*
X0030407Y0086718D02*
X0044665Y0086718D01*
X0044665Y0088316D02*
X0029979Y0088316D01*
X0029933Y0089915D02*
X0044665Y0089915D01*
X0044665Y0091513D02*
X0030361Y0091513D01*
X0030419Y0093112D02*
X0044665Y0093112D01*
X0044665Y0094711D02*
X0030375Y0094711D01*
X0029947Y0096309D02*
X0044665Y0096309D01*
X0044665Y0097908D02*
X0029322Y0097908D01*
X0028399Y0099506D02*
X0044665Y0099506D01*
X0044476Y0101105D02*
X0026887Y0101105D01*
X0024558Y0102703D02*
X0043553Y0102703D01*
X0043453Y0104302D02*
X0006847Y0104302D01*
X0006849Y0102703D02*
X0014869Y0102703D01*
X0012539Y0101105D02*
X0006852Y0101105D01*
X0006854Y0099506D02*
X0011028Y0099506D01*
X0010105Y0097908D02*
X0006856Y0097908D01*
X0006859Y0096309D02*
X0009480Y0096309D01*
X0009051Y0094711D02*
X0006861Y0094711D01*
X0006863Y0093112D02*
X0009008Y0093112D01*
X0009066Y0091513D02*
X0006865Y0091513D01*
X0006868Y0089915D02*
X0009494Y0089915D01*
X0009448Y0088316D02*
X0006870Y0088316D01*
X0006872Y0086718D02*
X0009020Y0086718D01*
X0009008Y0085119D02*
X0006875Y0085119D01*
X0006877Y0083521D02*
X0009097Y0083521D01*
X0009526Y0081922D02*
X0006879Y0081922D01*
X0006881Y0080324D02*
X0009205Y0080324D01*
X0009008Y0078725D02*
X0006884Y0078725D01*
X0006886Y0077127D02*
X0009008Y0077127D01*
X0009340Y0075528D02*
X0006888Y0075528D01*
X0006891Y0073930D02*
X0008959Y0073930D01*
X0008530Y0072331D02*
X0006893Y0072331D01*
X0006895Y0070733D02*
X0008417Y0070733D01*
X0008417Y0069134D02*
X0006898Y0069134D01*
X0006900Y0067536D02*
X0008834Y0067536D01*
X0008428Y0065937D02*
X0006902Y0065937D01*
X0006904Y0064339D02*
X0008024Y0064339D01*
X0008024Y0062740D02*
X0006907Y0062740D01*
X0006909Y0061142D02*
X0008149Y0061142D01*
X0008578Y0059543D02*
X0006911Y0059543D01*
X0006914Y0057945D02*
X0008487Y0057945D01*
X0008220Y0056346D02*
X0006916Y0056346D01*
X0006918Y0054748D02*
X0008220Y0054748D01*
X0008483Y0053149D02*
X0006920Y0053149D01*
X0006923Y0051551D02*
X0008912Y0051551D01*
X0008705Y0049952D02*
X0006925Y0049952D01*
X0006927Y0048354D02*
X0008417Y0048354D01*
X0008417Y0046755D02*
X0006930Y0046755D01*
X0006932Y0045157D02*
X0008659Y0045157D01*
X0009088Y0043558D02*
X0006934Y0043558D01*
X0006936Y0041960D02*
X0009942Y0041960D01*
X0011091Y0040361D02*
X0006939Y0040361D01*
X0006941Y0038763D02*
X0012792Y0038763D01*
X0016219Y0037164D02*
X0006943Y0037164D01*
X0006946Y0035566D02*
X0046195Y0035566D01*
X0046195Y0033967D02*
X0006948Y0033967D01*
X0006950Y0032369D02*
X0046375Y0032369D01*
X0046179Y0030770D02*
X0006952Y0030770D01*
X0006955Y0029172D02*
X0046179Y0029172D01*
X0046179Y0027573D02*
X0006957Y0027573D01*
X0006959Y0025975D02*
X0046163Y0025975D01*
X0046163Y0024376D02*
X0006962Y0024376D01*
X0006964Y0022777D02*
X0046163Y0022777D01*
X0046128Y0021179D02*
X0006966Y0021179D01*
X0006969Y0019580D02*
X0046128Y0019580D01*
X0046128Y0017982D02*
X0006971Y0017982D01*
X0006973Y0016383D02*
X0054965Y0016383D01*
X0055320Y0014785D02*
X0006975Y0014785D01*
X0006978Y0013186D02*
X0056865Y0013186D01*
X0058463Y0011588D02*
X0006980Y0011588D01*
X0006982Y0009989D02*
X0107902Y0009989D01*
X0109083Y0009989D02*
X0129372Y0009989D01*
X0129873Y0009488D02*
X0128819Y0010543D01*
X0128819Y0017152D01*
X0129254Y0017587D01*
X0128893Y0017949D01*
X0127828Y0017508D01*
X0126316Y0017508D01*
X0124919Y0018086D01*
X0123850Y0019155D01*
X0123342Y0020383D01*
X0122437Y0020008D01*
X0122134Y0020008D01*
X0121500Y0019374D01*
X0120103Y0018795D01*
X0118591Y0018795D01*
X0117195Y0019374D01*
X0116126Y0020443D01*
X0115547Y0021839D01*
X0115547Y0022697D01*
X0109083Y0016233D01*
X0109083Y0006712D01*
X0172103Y0006662D01*
X0171429Y0007335D01*
X0170854Y0008725D01*
X0170854Y0009581D01*
X0158541Y0021894D01*
X0158140Y0021494D01*
X0158140Y0021165D01*
X0157744Y0020209D01*
X0149870Y0012335D01*
X0149139Y0011604D01*
X0148183Y0011208D01*
X0138718Y0011208D01*
X0138718Y0010543D01*
X0137664Y0009488D01*
X0129873Y0009488D01*
X0128819Y0011588D02*
X0109083Y0011588D01*
X0107902Y0011588D02*
X0104438Y0011588D01*
X0106037Y0013186D02*
X0107902Y0013186D01*
X0109083Y0013186D02*
X0128819Y0013186D01*
X0128819Y0014785D02*
X0109083Y0014785D01*
X0107902Y0014785D02*
X0107635Y0014785D01*
X0109234Y0016383D02*
X0128819Y0016383D01*
X0125171Y0017982D02*
X0110832Y0017982D01*
X0112431Y0019580D02*
X0116988Y0019580D01*
X0115821Y0021179D02*
X0114029Y0021179D01*
X0121706Y0019580D02*
X0123674Y0019580D01*
X0133769Y0013847D02*
X0133808Y0013808D01*
X0147666Y0013808D01*
X0155540Y0021682D01*
X0155540Y0024241D01*
X0152054Y0022777D02*
X0145074Y0022777D01*
X0146673Y0024376D02*
X0151759Y0024376D01*
X0152166Y0025975D02*
X0148271Y0025975D01*
X0149870Y0027573D02*
X0153704Y0027573D01*
X0151468Y0029172D02*
X0157059Y0029172D01*
X0158100Y0030770D02*
X0153067Y0030770D01*
X0154665Y0032369D02*
X0174641Y0032369D01*
X0176240Y0030770D02*
X0168335Y0030770D01*
X0169376Y0029172D02*
X0177838Y0029172D01*
X0179437Y0027573D02*
X0169861Y0027573D01*
X0171460Y0025975D02*
X0181035Y0025975D01*
X0182634Y0024376D02*
X0173058Y0024376D01*
X0174657Y0022777D02*
X0184232Y0022777D01*
X0185831Y0021179D02*
X0176255Y0021179D01*
X0177854Y0019580D02*
X0187429Y0019580D01*
X0189028Y0017982D02*
X0179452Y0017982D01*
X0181051Y0016383D02*
X0190626Y0016383D01*
X0192225Y0014785D02*
X0182649Y0014785D01*
X0184248Y0013186D02*
X0186646Y0013186D01*
X0188687Y0013186D02*
X0244654Y0013186D01*
X0244652Y0011588D02*
X0190901Y0011588D01*
X0191447Y0009989D02*
X0244650Y0009989D01*
X0244647Y0008391D02*
X0191293Y0008391D01*
X0190289Y0006792D02*
X0244645Y0006792D01*
X0212878Y0016383D02*
X0206871Y0016383D01*
X0208470Y0017982D02*
X0212102Y0017982D01*
X0212140Y0019580D02*
X0210068Y0019580D01*
X0211667Y0021179D02*
X0212974Y0021179D01*
X0213265Y0022777D02*
X0213315Y0022777D01*
X0213315Y0022827D02*
X0204257Y0013769D01*
X0202715Y0019580D02*
X0194783Y0019580D01*
X0193185Y0021179D02*
X0204313Y0021179D01*
X0205912Y0022777D02*
X0198991Y0022777D01*
X0199676Y0024376D02*
X0207510Y0024376D01*
X0208126Y0025975D02*
X0209109Y0025975D01*
X0209453Y0027573D02*
X0208639Y0027573D01*
X0208639Y0029172D02*
X0209453Y0029172D01*
X0209453Y0030770D02*
X0208639Y0030770D01*
X0208639Y0032369D02*
X0209453Y0032369D01*
X0209453Y0033967D02*
X0208639Y0033967D01*
X0208139Y0035566D02*
X0209453Y0035566D01*
X0209453Y0037164D02*
X0197891Y0037164D01*
X0197891Y0035566D02*
X0198847Y0035566D01*
X0197891Y0038763D02*
X0209453Y0038763D01*
X0209453Y0040361D02*
X0197891Y0040361D01*
X0197891Y0041960D02*
X0199016Y0041960D01*
X0198346Y0043558D02*
X0197891Y0043558D01*
X0197891Y0045157D02*
X0198346Y0045157D01*
X0198346Y0046755D02*
X0197891Y0046755D01*
X0197891Y0048354D02*
X0198346Y0048354D01*
X0198346Y0049952D02*
X0197891Y0049952D01*
X0198308Y0051551D02*
X0198690Y0051551D01*
X0199179Y0057945D02*
X0207791Y0057945D01*
X0206193Y0059543D02*
X0199179Y0059543D01*
X0199179Y0061142D02*
X0204594Y0061142D01*
X0202996Y0062740D02*
X0199179Y0062740D01*
X0199179Y0064339D02*
X0199815Y0064339D01*
X0191838Y0078725D02*
X0188142Y0078725D01*
X0185006Y0080324D02*
X0191614Y0080324D01*
X0169556Y0066367D02*
X0165694Y0070229D01*
X0163013Y0067548D01*
X0157312Y0067548D01*
X0155737Y0065973D01*
X0155737Y0058296D01*
X0156678Y0057355D01*
X0161831Y0057355D01*
X0163414Y0054753D02*
X0165776Y0057115D01*
X0165776Y0061446D01*
X0163414Y0054753D02*
X0159300Y0054753D01*
X0162824Y0054753D01*
X0159300Y0049635D02*
X0148847Y0049635D01*
X0142745Y0043532D01*
X0156264Y0033967D02*
X0173043Y0033967D01*
X0171444Y0035566D02*
X0157863Y0035566D01*
X0159461Y0037164D02*
X0169846Y0037164D01*
X0168247Y0038763D02*
X0161060Y0038763D01*
X0162658Y0040361D02*
X0167060Y0040361D01*
X0166956Y0041960D02*
X0164257Y0041960D01*
X0165855Y0043558D02*
X0166956Y0043558D01*
X0172156Y0043558D02*
X0192717Y0043558D01*
X0192717Y0041960D02*
X0172404Y0041960D01*
X0174002Y0040361D02*
X0192717Y0040361D01*
X0192717Y0038763D02*
X0175601Y0038763D01*
X0177199Y0037164D02*
X0192717Y0037164D01*
X0192717Y0035566D02*
X0178798Y0035566D01*
X0180396Y0033967D02*
X0192717Y0033967D01*
X0192717Y0032369D02*
X0181995Y0032369D01*
X0183593Y0030770D02*
X0192717Y0030770D01*
X0192979Y0029172D02*
X0185192Y0029172D01*
X0186791Y0027573D02*
X0193092Y0027573D01*
X0192194Y0025975D02*
X0188389Y0025975D01*
X0189988Y0024376D02*
X0192113Y0024376D01*
X0191586Y0022777D02*
X0192798Y0022777D01*
X0195894Y0025028D02*
X0195894Y0028335D01*
X0196591Y0029032D01*
X0218490Y0038763D02*
X0228132Y0038763D01*
X0225855Y0040361D02*
X0218490Y0040361D01*
X0218490Y0041960D02*
X0224373Y0041960D01*
X0223450Y0043558D02*
X0218490Y0043558D01*
X0218490Y0045157D02*
X0222847Y0045157D01*
X0209453Y0041960D02*
X0207970Y0041960D01*
X0192717Y0045157D02*
X0172156Y0045157D01*
X0163217Y0030770D02*
X0163218Y0030770D01*
X0165776Y0027981D02*
X0184241Y0009517D01*
X0187666Y0009517D01*
X0174635Y0009477D02*
X0160658Y0023454D01*
X0160658Y0027981D01*
X0159256Y0021179D02*
X0158140Y0021179D01*
X0157116Y0019580D02*
X0160854Y0019580D01*
X0162453Y0017982D02*
X0155517Y0017982D01*
X0153919Y0016383D02*
X0164051Y0016383D01*
X0165650Y0014785D02*
X0152320Y0014785D01*
X0150722Y0013186D02*
X0167248Y0013186D01*
X0168847Y0011588D02*
X0149101Y0011588D01*
X0148163Y0017982D02*
X0138677Y0017982D01*
X0141877Y0019580D02*
X0149762Y0019580D01*
X0151360Y0021179D02*
X0143476Y0021179D01*
X0138165Y0009989D02*
X0170445Y0009989D01*
X0170992Y0008391D02*
X0109083Y0008391D01*
X0107902Y0008391D02*
X0006985Y0008391D01*
X0007790Y0006792D02*
X0107902Y0006792D01*
X0109083Y0006792D02*
X0171972Y0006792D01*
X0121485Y0027194D02*
X0116367Y0027194D01*
X0102757Y0013583D01*
X0102611Y0013583D01*
X0097457Y0016158D02*
X0087162Y0016158D01*
X0121485Y0027194D02*
X0152820Y0058528D01*
X0152820Y0061217D01*
X0103898Y0064989D02*
X0101339Y0062430D01*
X0092351Y0062430D01*
X0076406Y0078375D01*
X0075816Y0078375D01*
X0089303Y0086718D02*
X0089799Y0086718D01*
X0090046Y0088316D02*
X0089505Y0088316D01*
X0089505Y0089915D02*
X0090186Y0089915D01*
X0090186Y0091513D02*
X0089505Y0091513D01*
X0089505Y0093112D02*
X0090186Y0093112D01*
X0084273Y0097908D02*
X0073298Y0097908D01*
X0073298Y0099506D02*
X0080000Y0099506D01*
X0080000Y0100502D02*
X0080000Y0098185D01*
X0084273Y0098185D01*
X0084273Y0102065D01*
X0081563Y0102065D01*
X0081105Y0101942D01*
X0080695Y0101705D01*
X0080360Y0101370D01*
X0080123Y0100959D01*
X0080000Y0100502D01*
X0080207Y0101105D02*
X0073298Y0101105D01*
X0072684Y0102703D02*
X0088364Y0102703D01*
X0089299Y0101105D02*
X0089962Y0101105D01*
X0089505Y0099506D02*
X0091012Y0099506D01*
X0085232Y0099506D02*
X0084273Y0099506D01*
X0084273Y0101105D02*
X0085232Y0101105D01*
X0086765Y0104302D02*
X0071086Y0104302D01*
X0069487Y0105900D02*
X0085167Y0105900D01*
X0083568Y0107499D02*
X0067889Y0107499D01*
X0066115Y0109097D02*
X0082218Y0109097D01*
X0080595Y0110696D02*
X0065564Y0110696D01*
X0066513Y0112294D02*
X0079606Y0112294D01*
X0079606Y0113893D02*
X0066513Y0113893D01*
X0066513Y0115491D02*
X0079606Y0115491D01*
X0079606Y0117090D02*
X0066513Y0117090D01*
X0066079Y0118688D02*
X0080001Y0118688D01*
X0079606Y0120287D02*
X0066513Y0120287D01*
X0053034Y0129878D02*
X0006810Y0129878D01*
X0006813Y0128279D02*
X0051435Y0128279D01*
X0049837Y0126681D02*
X0006815Y0126681D01*
X0006817Y0125082D02*
X0048638Y0125082D01*
X0048528Y0123484D02*
X0006820Y0123484D01*
X0006822Y0121885D02*
X0048528Y0121885D01*
X0048528Y0120287D02*
X0006824Y0120287D01*
X0006827Y0118688D02*
X0048528Y0118688D01*
X0048528Y0117090D02*
X0006829Y0117090D01*
X0006831Y0115491D02*
X0048528Y0115491D01*
X0048528Y0113893D02*
X0006833Y0113893D01*
X0006836Y0112294D02*
X0048528Y0112294D01*
X0048528Y0110696D02*
X0006838Y0110696D01*
X0006840Y0109097D02*
X0048528Y0109097D01*
X0048528Y0107499D02*
X0048016Y0107499D01*
X0046490Y0107499D02*
X0006843Y0107499D01*
X0006845Y0105900D02*
X0044077Y0105900D01*
X0065276Y0106276D02*
X0065434Y0106276D01*
X0070698Y0101013D01*
X0070698Y0091615D01*
X0069910Y0090828D01*
X0073298Y0094711D02*
X0080053Y0094711D01*
X0080000Y0096309D02*
X0073298Y0096309D01*
X0129044Y0122430D02*
X0129083Y0122469D01*
X0135855Y0122469D01*
X0141367Y0116957D01*
X0141367Y0099044D01*
X0165824Y0099506D02*
X0188510Y0099506D01*
X0193436Y0099506D02*
X0198550Y0099506D01*
X0197568Y0101105D02*
X0194533Y0101105D01*
X0194754Y0102703D02*
X0197428Y0102703D01*
X0197990Y0104302D02*
X0194274Y0104302D01*
X0192381Y0105900D02*
X0200277Y0105900D01*
X0201209Y0102194D02*
X0204316Y0105300D01*
X0196886Y0110696D02*
X0195927Y0110696D01*
X0195927Y0112294D02*
X0196886Y0112294D01*
X0129524Y0123484D02*
X0128565Y0123484D01*
X0128565Y0125082D02*
X0129524Y0125082D01*
X0129524Y0126681D02*
X0128565Y0126681D01*
X0054632Y0131476D02*
X0006808Y0131476D01*
X0029631Y0054748D02*
X0032362Y0054748D01*
X0032362Y0053149D02*
X0029368Y0053149D01*
X0029112Y0051551D02*
X0032362Y0051551D01*
X0032362Y0049952D02*
X0029541Y0049952D01*
X0029828Y0048354D02*
X0032362Y0048354D01*
X0032362Y0046755D02*
X0029828Y0046755D01*
X0029586Y0045157D02*
X0032362Y0045157D01*
X0032362Y0043558D02*
X0029158Y0043558D01*
X0028303Y0041960D02*
X0032362Y0041960D01*
X0027155Y0040361D02*
X0050288Y0040361D01*
X0048690Y0041960D02*
X0047773Y0041960D01*
X0051887Y0038763D02*
X0025453Y0038763D01*
X0022026Y0037164D02*
X0046922Y0037164D01*
D20*
X0096485Y0027391D03*
X0142745Y0043532D03*
X0160658Y0027981D03*
X0165776Y0027981D03*
X0155540Y0024241D03*
X0174635Y0009477D03*
X0187666Y0009517D03*
X0195894Y0025028D03*
X0165776Y0061446D03*
X0166367Y0080737D03*
X0141367Y0099044D03*
X0162824Y0112233D03*
X0190973Y0102391D03*
X0201209Y0102194D03*
X0075816Y0078375D03*
X0074831Y0086839D03*
D21*
X0062233Y0090580D02*
X0062115Y0091013D01*
D22*
X0047253Y0103702D03*
X0093599Y0086965D03*
X0129646Y0106276D03*
X0121922Y0107564D03*
X0093599Y0129450D03*
X0186292Y0075379D03*
X0201741Y0067654D03*
X0174706Y0050918D03*
X0151532Y0039331D03*
X0127072Y0021308D03*
X0119347Y0022595D03*
X0109048Y0013583D03*
X0136083Y0068942D03*
X0157969Y0071517D03*
X0215902Y0018733D03*
M02*
